<svg width="100" height="45" viewBox="0 0 100 45" fill="none" xmlns="http://www.w3.org/2000/svg">
<path d="M50 0H88C94.6274 0 100 5.37258 100 12V33C100 39.6274 94.6274 45 88 45H50V0Z" fill="#F1F0EB"/>
<path d="M50 0H100H50ZM100 45H50H100ZM49.5 45V0H50.5V45H49.5ZM100 0V45V0Z" fill="#D9D9D9"/>
<path d="M72.75 17.75L78 23L72.75 28.25" stroke="#4F4F4F" stroke-linecap="round" stroke-linejoin="round"/>
<path d="M50 0H12C5.37258 0 0 5.37258 0 12V33C0 39.6274 5.37258 45 12 45H50V0Z" fill="#F1F0EB"/>
<path d="M27.25 17.75L22 23L27.25 28.25" stroke="#4F4F4F" stroke-linecap="round" stroke-linejoin="round"/>
</svg>
