<svg width="231" height="33" viewBox="0 0 231 33" fill="none" xmlns="http://www.w3.org/2000/svg">
<path d="M10.3702 26.9712H3.01442C1.3496 26.9712 0 28.3208 0 29.9856C0 31.6504 1.3496 33 3.01442 33H227.034C228.698 33 230.048 31.6504 230.048 29.9856C230.048 28.3208 228.698 26.9712 227.034 26.9712H219.678C217.351 26.9712 215.093 26.1888 213.264 24.75L188.077 4.9263C184.022 1.73508 179.012 0 173.852 0H56.1962C51.0363 0 46.0262 1.73508 41.9715 4.9263L16.7837 24.75C14.9555 26.1888 12.6966 26.9712 10.3702 26.9712Z" fill="#F1F0EB"/>
<path d="M87.0118 20.0536V22.0576H79.0438V14.0536H81.4798V20.0536H87.0118ZM97.2999 14.0536V15.8776H90.8079V17.2456H96.8679V18.8296H90.8079V20.2456H97.2999V22.0576H88.3719V14.0536H97.2999ZM101.939 22.0576V16.0576H98.3625V14.0536H107.939V16.0576H104.375V22.0576H101.939ZM109.374 18.4216H109.194C109.01 18.4216 108.834 18.4096 108.666 18.3856V17.1376L108.918 17.1616C109.198 17.1616 109.394 17.0896 109.506 16.9456C109.618 16.7936 109.674 16.5736 109.674 16.2856H109.002V14.0536H111.414V16.2856C111.414 17.0536 111.27 17.6016 110.982 17.9296C110.694 18.2576 110.158 18.4216 109.374 18.4216ZM115.473 19.6336C115.473 19.9616 115.581 20.1696 115.797 20.2576C116.021 20.3376 116.329 20.3776 116.721 20.3776L117.873 20.3896L119.505 20.3416C119.953 20.3416 120.245 20.2856 120.381 20.1736C120.517 20.0616 120.585 19.8856 120.585 19.6456C120.585 19.4296 120.505 19.2576 120.345 19.1296C120.193 19.0016 119.897 18.9376 119.457 18.9376H119.061L115.053 18.8536C114.301 18.8536 113.769 18.6656 113.457 18.2896C113.153 17.9056 113.001 17.3216 113.001 16.5376C113.001 15.8736 113.097 15.3576 113.289 14.9896C113.489 14.6216 113.845 14.3736 114.357 14.2456C114.877 14.1096 115.553 14.0296 116.385 14.0056C117.225 13.9816 117.789 13.9696 118.077 13.9696L119.781 13.9936C120.461 13.9936 121.009 14.0496 121.425 14.1616C121.841 14.2656 122.133 14.4616 122.301 14.7496C122.477 15.0376 122.589 15.2976 122.637 15.5296C122.685 15.7616 122.709 16.0816 122.709 16.4896H120.321C120.321 16.2096 120.237 16.0136 120.069 15.9016C119.909 15.7896 119.681 15.7336 119.385 15.7336L118.209 15.7216L116.349 15.7816C116.101 15.7816 115.889 15.8296 115.713 15.9256C115.545 16.0136 115.461 16.1656 115.461 16.3816C115.461 16.6776 115.561 16.8736 115.761 16.9696C115.969 17.0576 116.249 17.1016 116.601 17.1016H116.853L118.485 17.1256L120.093 17.1376C121.125 17.1376 121.873 17.3016 122.337 17.6296C122.809 17.9496 123.045 18.5976 123.045 19.5736C123.045 20.5176 122.833 21.1656 122.409 21.5176C121.993 21.8696 121.301 22.0456 120.333 22.0456L117.213 22.1296L115.581 22.0936C114.717 22.0936 114.081 21.9536 113.673 21.6736C113.265 21.3936 113.061 20.8296 113.061 19.9816V19.5016H115.461L115.473 19.6336ZM138.254 17.5456L138.266 19.2256C138.266 20.2096 138.094 20.9416 137.75 21.4216C137.414 21.8936 136.754 22.1296 135.77 22.1296L134.498 22.1416L133.046 22.1296L131.786 22.1176C130.866 22.1176 130.134 22.0576 129.59 21.9376C129.054 21.8096 128.626 21.5336 128.306 21.1096C127.994 20.6856 127.838 20.0376 127.838 19.1656L127.814 18.1576C127.814 16.5976 128.006 15.5176 128.39 14.9176C128.774 14.3176 129.678 14.0176 131.102 14.0176L132.926 13.9816L133.598 13.9696L135.23 14.0056C136.286 14.0056 137.05 14.1896 137.522 14.5576C138.002 14.9176 138.242 15.6176 138.242 16.6576V16.8016H135.854C135.854 16.6096 135.826 16.4456 135.77 16.3096C135.714 16.1736 135.61 16.0776 135.458 16.0216C135.306 15.9656 135.158 15.9336 135.014 15.9256C134.878 15.9096 134.678 15.9016 134.414 15.9016L131.594 15.8896C131.018 15.8896 130.654 16.0296 130.502 16.3096C130.35 16.5896 130.274 17.0616 130.274 17.7256V18.4696C130.274 19.0216 130.35 19.4336 130.502 19.7056C130.654 19.9696 130.87 20.1216 131.15 20.1616C131.43 20.1936 131.646 20.2136 131.798 20.2216C131.95 20.2296 132.142 20.2336 132.374 20.2336L134.546 20.2456C134.954 20.2456 135.274 20.1776 135.506 20.0416C135.746 19.9056 135.866 19.6496 135.866 19.2736L135.854 19.0456H132.77V17.5456H138.254ZM145.329 13.9696L147.273 13.9816C148.697 13.9816 149.669 14.2176 150.189 14.6896C150.717 15.1616 150.981 16.1056 150.981 17.5216V17.9056C150.981 19.5696 150.773 20.6856 150.357 21.2536C149.941 21.8136 148.889 22.0936 147.201 22.0936L145.365 22.1296L144.597 22.1416L142.941 22.0816C142.013 22.0816 141.297 21.8736 140.793 21.4576C140.289 21.0336 140.037 20.3536 140.037 19.4176L140.013 17.9416C140.013 16.3176 140.221 15.2576 140.637 14.7616C141.053 14.2576 142.041 14.0056 143.601 14.0056L145.329 13.9696ZM144.009 20.1496L145.317 20.1736L146.565 20.1616C147.253 20.1616 147.745 20.0896 148.041 19.9456C148.345 19.7936 148.497 19.4256 148.497 18.8416L148.521 17.7616C148.521 17.3936 148.497 17.0816 148.449 16.8256C148.409 16.5616 148.321 16.3696 148.185 16.2496C148.049 16.1216 147.845 16.0376 147.573 15.9976C147.309 15.9576 147.025 15.9376 146.721 15.9376L144.297 15.9496C143.745 15.9496 143.325 16.0056 143.037 16.1176C142.749 16.2296 142.581 16.4696 142.533 16.8376C142.493 17.1976 142.473 17.4976 142.473 17.7376V17.9536V18.2776C142.473 19.0136 142.557 19.5096 142.725 19.7656C142.901 20.0216 143.329 20.1496 144.009 20.1496Z" fill="black"/>
</svg>
