<svg width="25" height="22" viewBox="0 0 25 22" fill="none" xmlns="http://www.w3.org/2000/svg">
<g clip-path="url(#clip0_1_16185)">
<path d="M17.8405 7.12936C18.7238 7.72471 19.5947 8.35051 20.5077 8.91078C21.0153 9.2223 21.0692 9.50566 20.7565 9.98793C20.4807 10.4125 20.3459 10.634 19.7735 10.2413C17.9839 9.01969 16.1862 7.80824 14.4368 6.5331C13.5092 5.85745 12.5678 5.73931 11.6018 6.37757C9.74831 7.60241 7.90904 8.84709 6.06693 10.0858C5.732 10.3105 5.34693 10.4647 5.0735 10.7743C4.88995 10.9806 4.8048 10.9013 4.66193 10.6867C3.79339 9.38336 3.78629 9.39167 5.08248 8.51296C5.78357 8.03807 6.4766 7.55164 7.1985 7.05322C7.11146 6.97522 7.05327 6.88892 6.97285 6.85754C6.54283 6.69001 6.338 6.44726 6.33989 5.93914C6.34178 5.43102 6.55608 5.20073 6.96622 4.98659C10.1007 3.36624 13.3318 3.20425 16.6508 4.35802C17.0519 4.49647 17.4342 4.688 17.8221 4.86106C18.4021 5.12274 18.6306 5.5284 18.5974 6.18882C18.57 6.74078 18.0137 6.73801 17.8405 7.12936Z" fill="black"/>
<path d="M15.3603 12.5581C15.4076 13.902 16.0074 14.8403 17.2412 15.3442C17.4574 15.4324 17.4479 15.5164 17.3528 15.6742C16.8528 16.5003 16.3466 17.3227 15.8646 18.1585C15.7444 18.3666 15.5935 18.3892 15.3877 18.3892C13.4746 18.3855 11.5616 18.3892 9.6485 18.3855C9.37886 18.3855 8.69244 17.6222 8.71515 17.3605C8.72272 17.2738 8.78611 17.2401 8.86275 17.2101C10.5587 16.5437 11.7901 15.2385 13.2149 14.1974C13.9245 13.6768 14.6176 13.1285 15.3603 12.5581Z" fill="black"/>
<path d="M11.5187 14.4779C11.8228 12.2945 10.8057 10.3303 8.09131 9.74606C8.53315 9.44054 8.93336 9.15948 9.33783 8.88535C9.75082 8.60567 10.169 8.33154 10.6454 8.01587C10.7074 8.77412 10.95 9.40823 11.5546 9.85682C11.9875 10.1799 12.4903 10.3396 13.0211 10.3026C14.0543 10.2311 14.9876 9.60714 15.1901 8.1054L17.7446 9.86328C16.2285 10.2934 15.4739 11.5801 14.3022 12.3379C13.3508 12.9508 12.5022 13.7122 11.5187 14.4779Z" fill="black"/>
<path d="M18.3099 10.657C18.8683 10.6566 19.4042 10.8717 19.8007 11.2553C20.1972 11.6389 20.4221 12.1599 20.4264 12.7047C20.4302 13.7758 19.4514 14.7445 18.3511 14.7579C17.1996 14.7727 16.227 13.8446 16.2161 12.7222C16.214 12.4523 16.2665 12.1847 16.3707 11.9347C16.4749 11.6847 16.6287 11.4572 16.8232 11.2653C17.0178 11.0734 17.2493 10.9209 17.5044 10.8165C17.7595 10.7121 18.0333 10.6579 18.3099 10.657Z" fill="black"/>
<path d="M11.5191 8.11548C11.5216 7.76047 11.6675 7.42077 11.9253 7.17017C12.1831 6.91957 12.5318 6.77832 12.8957 6.77711C13.689 6.77388 14.3243 7.38122 14.3177 8.13717C14.3111 8.88389 13.6436 9.51108 12.8744 9.49261C12.1265 9.47277 11.5153 8.85251 11.5191 8.11548Z" fill="#010101"/>
<path d="M10.7281 13.4967C10.6169 11.7711 9.21431 10.478 7.57089 10.5892C5.82055 10.7083 4.51821 12.1094 4.61519 13.7736C4.7098 15.3745 6.23638 16.7152 7.82493 16.5888C9.53884 16.4535 10.8298 15.0787 10.7281 13.4967ZM7.82256 15.4479C6.74587 15.4678 5.84279 14.5711 5.84989 13.4953C5.85651 12.5012 6.72458 11.6853 7.77573 11.6853C8.03283 11.6847 8.28744 11.7344 8.52445 11.8316C8.76147 11.9288 8.97608 12.0714 9.15555 12.251C9.33501 12.4306 9.47569 12.6436 9.56924 12.8772C9.66279 13.1108 9.70731 13.3604 9.70015 13.6111C9.68359 14.5498 8.78335 15.4304 7.82256 15.4479Z" fill="black"/>
<path d="M8.83736 13.5304C8.84116 13.669 8.81658 13.807 8.76507 13.9362C8.71355 14.0654 8.63613 14.1833 8.53733 14.283C8.43854 14.3827 8.32036 14.4621 8.1897 14.5167C8.05905 14.5713 7.91855 14.5999 7.77642 14.6008C7.6343 14.6018 7.49341 14.5751 7.362 14.5223C7.23059 14.4694 7.1113 14.3916 7.01111 14.2932C6.91093 14.1949 6.83185 14.078 6.77852 13.9495C6.72519 13.821 6.69868 13.6834 6.70053 13.5447C6.70337 13.0099 7.18116 12.5294 7.73276 12.504C8.29381 12.4796 8.82506 12.9725 8.83736 13.5304Z" fill="#010101"/>
</g>
<defs>
<clipPath id="clip0_1_16185">
<rect width="25" height="22" fill="white"/>
</clipPath>
</defs>
</svg>
