<svg width="200" height="100" viewBox="0 0 200 100" fill="none" xmlns="http://www.w3.org/2000/svg">
<rect x="0.5" y="0.5" width="199" height="99" rx="6.5" stroke="#D9D9D9"/>
<path d="M107.722 73.864V74.601H101.914V78H101.023V70.663H108.03V71.411H101.914V73.864H107.722ZM110.036 78H108.991L113.325 70.663H114.513L118.88 78H117.857L116.9 76.35H110.971L110.036 78ZM111.389 75.613H116.482L113.919 71.312L111.389 75.613ZM126.463 78.044L124.571 78.077L123.757 78.088L122.129 78.011C120.824 77.879 120.171 77.1787 120.171 75.91L120.127 74.513C120.127 73.9557 120.131 73.5413 120.138 73.27C120.153 72.9987 120.208 72.621 120.303 72.137C120.398 71.653 120.629 71.2863 120.996 71.037C121.363 70.7877 121.872 70.663 122.525 70.663C122.818 70.6337 123.093 70.6153 123.35 70.608C123.614 70.6007 123.922 70.597 124.274 70.597H124.538L125.594 70.586C126.019 70.586 126.364 70.597 126.628 70.619C126.892 70.6337 127.237 70.685 127.662 70.773C128.095 70.861 128.395 71.0957 128.564 71.477C128.733 71.8583 128.817 72.368 128.817 73.006H127.937V72.94C127.937 72.61 127.915 72.3387 127.871 72.126C127.834 71.9133 127.739 71.7593 127.585 71.664C127.438 71.5687 127.163 71.4953 126.76 71.444C126.357 71.3927 125.799 71.367 125.088 71.367C124.824 71.367 124.424 71.378 123.889 71.4C123.354 71.422 122.95 71.433 122.679 71.433C122.048 71.4843 121.645 71.598 121.469 71.774C121.293 71.9427 121.183 72.2397 121.139 72.665C121.095 73.0903 121.069 73.479 121.062 73.831C121.055 74.1757 121.051 74.5057 121.051 74.821C121.051 75.7523 121.143 76.394 121.326 76.746C121.517 77.098 122.015 77.274 122.822 77.274L124.538 77.296L126.177 77.274C126.852 77.274 127.321 77.1933 127.585 77.032C127.849 76.8707 127.981 76.482 127.981 75.866V75.569H128.905C128.905 76.5297 128.758 77.1823 128.465 77.527C128.172 77.8717 127.504 78.044 126.463 78.044ZM138.37 73.831V74.568H132.221V77.263H138.678V78H131.33V70.663H138.601V71.411H132.221V73.831H138.37ZM149.35 72.5C149.35 73.072 149.262 73.4607 149.086 73.666C148.91 73.8713 148.539 74.0217 147.975 74.117C148.598 74.117 149.023 74.249 149.251 74.513C149.485 74.7697 149.603 75.2207 149.603 75.866C149.603 76.6653 149.416 77.2227 149.042 77.538C148.668 77.846 148.055 78 147.205 78H141.1V70.663H147.304C147.971 70.663 148.477 70.806 148.822 71.092C149.174 71.378 149.35 71.8473 149.35 72.5ZM148.426 72.577C148.426 72.115 148.323 71.807 148.118 71.653C147.912 71.4917 147.568 71.411 147.084 71.411H141.991V73.809H146.952C147.472 73.809 147.846 73.7247 148.074 73.556C148.308 73.3873 148.426 73.061 148.426 72.577ZM148.679 75.998C148.679 75.6753 148.653 75.415 148.602 75.217C148.55 75.0117 148.44 74.8613 148.272 74.766C148.103 74.6707 147.923 74.612 147.733 74.59C147.549 74.5607 147.348 74.546 147.128 74.546H147.007H141.991V77.263H147.029C147.593 77.263 148.008 77.1787 148.272 77.01C148.543 76.834 148.679 76.4967 148.679 75.998ZM154.362 70.608L157.607 70.586C159.133 70.586 160.108 70.7913 160.533 71.202C160.966 71.6053 161.182 72.5513 161.182 74.04V74.304V74.535C161.182 75.063 161.149 75.6203 161.083 76.207C161.025 76.7863 160.816 77.2337 160.456 77.549C160.104 77.8643 159.573 78.022 158.861 78.022C158.641 78.044 158.359 78.0587 158.014 78.066C157.677 78.0733 157.354 78.077 157.046 78.077H155.407H155.209C154.762 78.077 154.329 78.055 153.911 78.011C153.501 77.967 153.152 77.8863 152.866 77.769C152.588 77.6517 152.357 77.45 152.173 77.164C151.997 76.8707 151.884 76.493 151.832 76.031C151.781 75.569 151.755 75.0227 151.755 74.392C151.755 73.798 151.763 73.3727 151.777 73.116C151.792 72.852 151.851 72.478 151.953 71.994C152.063 71.51 152.324 71.158 152.734 70.938C153.145 70.718 153.688 70.608 154.362 70.608ZM154.549 77.263L156.441 77.296H157.123H157.354C157.875 77.296 158.399 77.2703 158.927 77.219C159.455 77.1677 159.804 76.9953 159.972 76.702C160.148 76.4013 160.236 75.954 160.236 75.36L160.258 73.853C160.258 73.391 160.24 72.9913 160.203 72.654C160.167 72.3093 160.086 72.049 159.961 71.873C159.837 71.6897 159.672 71.5723 159.466 71.521C159.268 71.4623 159.063 71.4257 158.85 71.411C158.645 71.389 158.425 71.378 158.19 71.378L156.463 71.367L154.758 71.4C153.922 71.4 153.372 71.51 153.108 71.73C152.844 71.9427 152.712 72.4523 152.712 73.259L152.679 74.359V74.898C152.679 75.822 152.778 76.449 152.976 76.779C153.174 77.1017 153.699 77.263 154.549 77.263ZM166.055 70.608L169.3 70.586C170.825 70.586 171.8 70.7913 172.226 71.202C172.658 71.6053 172.875 72.5513 172.875 74.04V74.304V74.535C172.875 75.063 172.842 75.6203 172.776 76.207C172.717 76.7863 172.508 77.2337 172.149 77.549C171.797 77.8643 171.265 78.022 170.554 78.022C170.334 78.044 170.051 78.0587 169.707 78.066C169.369 78.0733 169.047 78.077 168.739 78.077H167.1H166.902C166.454 78.077 166.022 78.055 165.604 78.011C165.193 77.967 164.845 77.8863 164.559 77.769C164.28 77.6517 164.049 77.45 163.866 77.164C163.69 76.8707 163.576 76.493 163.525 76.031C163.473 75.569 163.448 75.0227 163.448 74.392C163.448 73.798 163.455 73.3727 163.47 73.116C163.484 72.852 163.543 72.478 163.646 71.994C163.756 71.51 164.016 71.158 164.427 70.938C164.837 70.718 165.38 70.608 166.055 70.608ZM166.242 77.263L168.134 77.296H168.816H169.047C169.567 77.296 170.092 77.2703 170.62 77.219C171.148 77.1677 171.496 76.9953 171.665 76.702C171.841 76.4013 171.929 75.954 171.929 75.36L171.951 73.853C171.951 73.391 171.932 72.9913 171.896 72.654C171.859 72.3093 171.778 72.049 171.654 71.873C171.529 71.6897 171.364 71.5723 171.159 71.521C170.961 71.4623 170.755 71.4257 170.543 71.411C170.337 71.389 170.117 71.378 169.883 71.378L168.156 71.367L166.451 71.4C165.615 71.4 165.065 71.51 164.801 71.73C164.537 71.9427 164.405 72.4523 164.405 73.259L164.372 74.359V74.898C164.372 75.822 164.471 76.449 164.669 76.779C164.867 77.1017 165.391 77.263 166.242 77.263ZM182.367 70.663H183.885L178.495 74.205L184.248 78H182.642L177.549 74.568H176.251V78H175.36V70.663H176.251V73.831H177.549L182.367 70.663Z" fill="#4F4F4F"/>
<path d="M107.722 73.864H108.222V73.364H107.722V73.864ZM107.722 74.601V75.101H108.222V74.601H107.722ZM101.914 74.601V74.101H101.414V74.601H101.914ZM101.914 78V78.5H102.414V78H101.914ZM101.023 78H100.523V78.5H101.023V78ZM101.023 70.663V70.163H100.523V70.663H101.023ZM108.03 70.663H108.53V70.163H108.03V70.663ZM108.03 71.411V71.911H108.53V71.411H108.03ZM101.914 71.411V70.911H101.414V71.411H101.914ZM101.914 73.864H101.414V74.364H101.914V73.864ZM107.222 73.864V74.601H108.222V73.864H107.222ZM107.722 74.101H101.914V75.101H107.722V74.101ZM101.414 74.601V78H102.414V74.601H101.414ZM101.914 77.5H101.023V78.5H101.914V77.5ZM101.523 78V70.663H100.523V78H101.523ZM101.023 71.163H108.03V70.163H101.023V71.163ZM107.53 70.663V71.411H108.53V70.663H107.53ZM108.03 70.911H101.914V71.911H108.03V70.911ZM101.414 71.411V73.864H102.414V71.411H101.414ZM101.914 74.364H107.722V73.364H101.914V74.364ZM110.036 78V78.5H110.327L110.471 78.2465L110.036 78ZM108.991 78L108.56 77.7457L108.115 78.5H108.991V78ZM113.325 70.663V70.163H113.039L112.894 70.4087L113.325 70.663ZM114.513 70.663L114.942 70.4073L114.797 70.163H114.513V70.663ZM118.88 78V78.5H119.759L119.309 77.7443L118.88 78ZM117.857 78L117.424 78.2509L117.569 78.5H117.857V78ZM116.9 76.35L117.332 76.0991L117.188 75.85H116.9V76.35ZM110.971 76.35V75.85H110.679L110.536 76.1035L110.971 76.35ZM111.389 75.613L110.958 75.3595L110.515 76.113H111.389V75.613ZM116.482 75.613V76.113H117.362L116.911 75.357L116.482 75.613ZM113.919 71.312L114.348 71.056L113.916 70.3306L113.488 71.0585L113.919 71.312ZM110.036 77.5H108.991V78.5H110.036V77.5ZM109.421 78.2543L113.755 70.9173L112.894 70.4087L108.56 77.7457L109.421 78.2543ZM113.325 71.163H114.513V70.163H113.325V71.163ZM114.083 70.9187L118.45 78.2557L119.309 77.7443L114.942 70.4073L114.083 70.9187ZM118.88 77.5H117.857V78.5H118.88V77.5ZM118.289 77.7491L117.332 76.0991L116.467 76.6009L117.424 78.2509L118.289 77.7491ZM116.9 75.85H110.971V76.85H116.9V75.85ZM110.536 76.1035L109.601 77.7535L110.471 78.2465L111.406 76.5965L110.536 76.1035ZM111.389 76.113H116.482V75.113H111.389V76.113ZM116.911 75.357L114.348 71.056L113.489 71.568L116.052 75.869L116.911 75.357ZM113.488 71.0585L110.958 75.3595L111.82 75.8665L114.35 71.5655L113.488 71.0585ZM126.463 78.044V77.5439L126.454 77.5441L126.463 78.044ZM124.571 78.077L124.578 78.577L124.58 78.5769L124.571 78.077ZM123.757 78.088L123.733 78.5874L123.748 78.5882L123.764 78.588L123.757 78.088ZM122.129 78.011L122.079 78.5085L122.092 78.5098L122.105 78.5104L122.129 78.011ZM120.171 75.91H120.671V75.9021L120.671 75.8943L120.171 75.91ZM120.127 74.513H119.627V74.5209L119.627 74.5287L120.127 74.513ZM120.138 73.27L119.638 73.243L119.638 73.2565L120.138 73.27ZM120.303 72.137L119.812 72.0404V72.0404L120.303 72.137ZM120.996 71.037L121.277 71.4505V71.4505L120.996 71.037ZM122.525 70.663V71.163H122.55L122.575 71.1605L122.525 70.663ZM123.35 70.608L123.336 70.1082L123.336 70.1082L123.35 70.608ZM124.538 70.597V71.097L124.543 71.097L124.538 70.597ZM125.594 70.586V70.086L125.589 70.086L125.594 70.586ZM126.628 70.619L126.586 71.1175L126.6 71.1182L126.628 70.619ZM127.662 70.773L127.561 71.2626L127.562 71.263L127.662 70.773ZM128.564 71.477L129.021 71.2747L128.564 71.477ZM128.817 73.006V73.506H129.317V73.006H128.817ZM127.937 73.006H127.437V73.506H127.937V73.006ZM127.871 72.126L127.378 72.211L127.38 72.2192L127.381 72.2273L127.871 72.126ZM127.585 71.664L127.312 72.0833L127.322 72.0891L127.585 71.664ZM126.76 71.444L126.697 71.94L126.76 71.444ZM122.679 71.433V70.933H122.659L122.638 70.9346L122.679 71.433ZM121.469 71.774L121.815 72.1351L121.822 72.1276L121.469 71.774ZM121.139 72.665L121.636 72.7164L121.139 72.665ZM121.062 73.831L121.562 73.8416L121.562 73.8414L121.062 73.831ZM121.326 76.746L120.882 76.977L120.886 76.9841L121.326 76.746ZM122.822 77.274L122.828 76.774H122.822V77.274ZM124.538 77.296L124.531 77.7961L124.545 77.796L124.538 77.296ZM126.177 77.274V76.774L126.17 76.774L126.177 77.274ZM127.585 77.032L127.324 76.6054L127.585 77.032ZM127.981 75.569V75.069H127.481V75.569H127.981ZM128.905 75.569H129.405V75.069H128.905V75.569ZM128.465 77.527L128.846 77.8511L128.465 77.527ZM126.454 77.5441L124.562 77.5771L124.58 78.5769L126.472 78.5439L126.454 77.5441ZM124.564 77.577L123.75 77.588L123.764 78.588L124.578 78.577L124.564 77.577ZM123.781 77.5886L122.153 77.5116L122.105 78.5104L123.733 78.5874L123.781 77.5886ZM122.179 77.5135C121.602 77.4552 121.244 77.2791 121.026 77.0459C120.811 76.8151 120.671 76.46 120.671 75.91H119.671C119.671 76.6287 119.857 77.2581 120.295 77.7276C120.73 78.1947 121.35 78.4348 122.079 78.5085L122.179 77.5135ZM120.671 75.8943L120.627 74.4973L119.627 74.5287L119.671 75.9257L120.671 75.8943ZM120.627 74.513C120.627 73.9565 120.631 73.5478 120.638 73.2835L119.638 73.2565C119.631 73.5349 119.627 73.9548 119.627 74.513H120.627ZM120.637 73.297C120.65 73.0607 120.7 72.7099 120.793 72.2336L119.812 72.0404C119.715 72.5321 119.655 72.9367 119.639 73.243L120.637 73.297ZM120.793 72.2336C120.867 71.8628 121.032 71.6172 121.277 71.4505L120.715 70.6235C120.227 70.9555 119.93 71.4432 119.812 72.0404L120.793 72.2336ZM121.277 71.4505C121.53 71.2783 121.928 71.163 122.525 71.163V70.163C121.817 70.163 121.195 70.297 120.715 70.6235L121.277 71.4505ZM122.575 71.1605C122.858 71.1322 123.121 71.1147 123.364 71.1078L123.336 70.1082C123.066 70.1159 122.779 70.1351 122.475 70.1655L122.575 71.1605ZM123.364 71.1078C123.622 71.1006 123.925 71.097 124.274 71.097V70.097C123.919 70.097 123.606 70.1007 123.336 70.1082L123.364 71.1078ZM124.274 71.097H124.538V70.097H124.274V71.097ZM124.543 71.097L125.599 71.086L125.589 70.086L124.533 70.097L124.543 71.097ZM125.594 71.086C126.013 71.086 126.342 71.0969 126.586 71.1173L126.669 70.1207C126.386 70.0971 126.026 70.086 125.594 70.086V71.086ZM126.6 71.1182C126.829 71.1309 127.146 71.1769 127.561 71.2626L127.763 70.2834C127.327 70.1931 126.955 70.1364 126.656 70.1198L126.6 71.1182ZM127.562 71.263C127.847 71.3209 128.008 71.4561 128.107 71.6793L129.021 71.2747C128.783 70.7352 128.342 70.4011 127.762 70.283L127.562 71.263ZM128.107 71.6793C128.236 71.9722 128.317 72.4044 128.317 73.006H129.317C129.317 72.3316 129.229 71.7445 129.021 71.2747L128.107 71.6793ZM128.817 72.506H127.937V73.506H128.817V72.506ZM128.437 73.006V72.94H127.437V73.006H128.437ZM128.437 72.94C128.437 72.5916 128.414 72.2831 128.361 72.0247L127.381 72.2273C127.416 72.3942 127.437 72.6284 127.437 72.94H128.437ZM128.364 72.041C128.308 71.7169 128.147 71.424 127.848 71.2389L127.322 72.0891C127.331 72.0947 127.361 72.1098 127.378 72.211L128.364 72.041ZM127.857 71.2448C127.606 71.0813 127.227 70.9994 126.823 70.948L126.697 71.94C127.099 71.9912 127.271 72.056 127.312 72.0832L127.857 71.2448ZM126.823 70.948C126.389 70.8927 125.807 70.867 125.088 70.867V71.867C125.791 71.867 126.324 71.8926 126.697 71.94L126.823 70.948ZM125.088 70.867C124.813 70.867 124.405 70.8784 123.868 70.9004L123.909 71.8996C124.443 71.8776 124.835 71.867 125.088 71.867V70.867ZM123.868 70.9004C123.335 70.9224 122.94 70.933 122.679 70.933V71.933C122.961 71.933 123.372 71.9216 123.909 71.8996L123.868 70.9004ZM122.638 70.9346C122.305 70.9618 122.012 71.0067 121.768 71.0755C121.533 71.1416 121.292 71.2437 121.115 71.4204L121.822 72.1276C121.822 72.1283 121.87 72.0856 122.039 72.038C122.198 71.9931 122.422 71.9556 122.719 71.9314L122.638 70.9346ZM121.123 71.413C120.817 71.7061 120.689 72.1506 120.642 72.6136L121.636 72.7164C121.676 72.3287 121.769 72.1792 121.815 72.135L121.123 71.413ZM120.642 72.6136C120.596 73.0497 120.57 73.4523 120.562 73.8206L121.562 73.8414C121.569 73.5057 121.593 73.1309 121.636 72.7164L120.642 72.6136ZM120.562 73.8204C120.555 74.1683 120.551 74.5018 120.551 74.821H121.551C121.551 74.5095 121.555 74.1831 121.562 73.8416L120.562 73.8204ZM120.551 74.821C120.551 75.752 120.637 76.5059 120.882 76.977L121.769 76.515C121.648 76.2821 121.551 75.7527 121.551 74.821H120.551ZM120.886 76.9841C121.057 77.3002 121.349 77.4978 121.676 77.6135C122 77.7275 122.388 77.774 122.822 77.774V76.774C122.449 76.774 122.185 76.7325 122.009 76.6705C121.839 76.6102 121.785 76.5438 121.766 76.5079L120.886 76.9841ZM122.815 77.774L124.531 77.796L124.544 76.796L122.828 76.774L122.815 77.774ZM124.545 77.796L126.184 77.774L126.17 76.774L124.531 76.796L124.545 77.796ZM126.177 77.774C126.858 77.774 127.453 77.6985 127.846 77.4586L127.324 76.6054C127.189 76.6881 126.845 76.774 126.177 76.774V77.774ZM127.846 77.4586C128.106 77.2995 128.264 77.0489 128.355 76.7803C128.445 76.5151 128.481 76.2041 128.481 75.866H127.481C127.481 76.1439 127.45 76.3352 127.408 76.4587C127.368 76.5788 127.328 76.6032 127.324 76.6054L127.846 77.4586ZM128.481 75.866V75.569H127.481V75.866H128.481ZM127.981 76.069H128.905V75.069H127.981V76.069ZM128.405 75.569C128.405 76.027 128.37 76.3909 128.307 76.6694C128.244 76.9515 128.159 77.1148 128.084 77.2029L128.846 77.8511C129.064 77.5945 129.199 77.2591 129.283 76.8886C129.367 76.5145 129.405 76.0717 129.405 75.569H128.405ZM128.084 77.2029C128.031 77.2656 127.902 77.3576 127.619 77.4306C127.342 77.5024 126.961 77.544 126.463 77.544V78.544C127.007 78.544 127.48 78.4995 127.869 78.3989C128.254 78.2996 128.606 78.133 128.846 77.8511L128.084 77.2029ZM138.37 73.831H138.87V73.331H138.37V73.831ZM138.37 74.568V75.068H138.87V74.568H138.37ZM132.221 74.568V74.068H131.721V74.568H132.221ZM132.221 77.263H131.721V77.763H132.221V77.263ZM138.678 77.263H139.178V76.763H138.678V77.263ZM138.678 78V78.5H139.178V78H138.678ZM131.33 78H130.83V78.5H131.33V78ZM131.33 70.663V70.163H130.83V70.663H131.33ZM138.601 70.663H139.101V70.163H138.601V70.663ZM138.601 71.411V71.911H139.101V71.411H138.601ZM132.221 71.411V70.911H131.721V71.411H132.221ZM132.221 73.831H131.721V74.331H132.221V73.831ZM137.87 73.831V74.568H138.87V73.831H137.87ZM138.37 74.068H132.221V75.068H138.37V74.068ZM131.721 74.568V77.263H132.721V74.568H131.721ZM132.221 77.763H138.678V76.763H132.221V77.763ZM138.178 77.263V78H139.178V77.263H138.178ZM138.678 77.5H131.33V78.5H138.678V77.5ZM131.83 78V70.663H130.83V78H131.83ZM131.33 71.163H138.601V70.163H131.33V71.163ZM138.101 70.663V71.411H139.101V70.663H138.101ZM138.601 70.911H132.221V71.911H138.601V70.911ZM131.721 71.411V73.831H132.721V71.411H131.721ZM132.221 74.331H138.37V73.331H132.221V74.331ZM149.086 73.666L149.465 73.9914V73.9914L149.086 73.666ZM147.975 74.117L147.891 73.624L147.975 74.617V74.117ZM149.251 74.513L148.872 74.8393L148.876 74.8449L148.882 74.8504L149.251 74.513ZM149.042 77.538L149.359 77.924L149.364 77.9203L149.042 77.538ZM141.1 78H140.6V78.5H141.1V78ZM141.1 70.663V70.163H140.6V70.663H141.1ZM148.822 71.092L148.502 71.4768L148.506 71.4801L148.822 71.092ZM148.118 71.653L147.809 72.0463L147.818 72.053L148.118 71.653ZM141.991 71.411V70.911H141.491V71.411H141.991ZM141.991 73.809H141.491V74.309H141.991V73.809ZM148.074 73.556L147.782 73.1499L147.776 73.1545L148.074 73.556ZM148.602 75.217L148.116 75.3383L148.118 75.3425L148.602 75.217ZM148.272 74.766L148.518 74.3307L148.272 74.766ZM147.733 74.59L147.654 75.0837L147.664 75.0854L147.675 75.0867L147.733 74.59ZM141.991 74.546V74.046H141.491V74.546H141.991ZM141.991 77.263H141.491V77.763H141.991V77.263ZM148.272 77.01L148.541 77.4314L148.544 77.4295L148.272 77.01ZM148.85 72.5C148.85 72.7635 148.829 72.9639 148.796 73.1101C148.762 73.2598 148.722 73.3221 148.706 73.3406L149.465 73.9914C149.625 73.8046 149.717 73.5698 149.771 73.3309C149.826 73.0884 149.85 72.8085 149.85 72.5H148.85ZM148.706 73.3406C148.689 73.3607 148.632 73.4111 148.488 73.4695C148.347 73.5265 148.152 73.58 147.891 73.624L148.058 74.61C148.362 74.5587 148.634 74.4894 148.864 74.396C149.09 74.3041 149.306 74.1767 149.465 73.9914L148.706 73.3406ZM147.975 74.617C148.56 74.617 148.792 74.747 148.872 74.8393L149.629 74.1867C149.254 73.751 148.636 73.617 147.975 73.617V74.617ZM148.882 74.8504C148.984 74.963 149.103 75.2506 149.103 75.866H150.103C150.103 75.1908 149.986 74.5763 149.62 74.1756L148.882 74.8504ZM149.103 75.866C149.103 76.6095 148.926 76.9818 148.719 77.1557L149.364 77.9203C149.906 77.4636 150.103 76.7212 150.103 75.866H149.103ZM148.724 77.152C148.485 77.3483 148.018 77.5 147.205 77.5V78.5C148.092 78.5 148.85 78.3437 149.359 77.924L148.724 77.152ZM147.205 77.5H141.1V78.5H147.205V77.5ZM141.6 78V70.663H140.6V78H141.6ZM141.1 71.163H147.304V70.163H141.1V71.163ZM147.304 71.163C147.909 71.163 148.282 71.2942 148.502 71.4768L149.141 70.7072C148.672 70.3178 148.032 70.163 147.304 70.163V71.163ZM148.506 71.4801C148.697 71.6349 148.85 71.9292 148.85 72.5H149.85C149.85 71.7655 149.65 71.1211 149.137 70.7039L148.506 71.4801ZM148.926 72.577C148.926 72.078 148.821 71.5557 148.418 71.253L147.818 72.053C147.825 72.0583 147.926 72.152 147.926 72.577H148.926ZM148.426 71.2598C148.084 70.9911 147.596 70.911 147.084 70.911V71.911C147.539 71.911 147.74 71.9922 147.809 72.0462L148.426 71.2598ZM147.084 70.911H141.991V71.911H147.084V70.911ZM141.491 71.411V73.809H142.491V71.411H141.491ZM141.991 74.309H146.952V73.309H141.991V74.309ZM146.952 74.309C147.501 74.309 148.011 74.2248 148.371 73.9575L147.776 73.1545C147.681 73.2245 147.443 73.309 146.952 73.309V74.309ZM148.365 73.962C148.799 73.6504 148.926 73.1138 148.926 72.577H147.926C147.926 73.0082 147.817 73.1243 147.782 73.15L148.365 73.962ZM149.179 75.998C149.179 75.6543 149.152 75.347 149.086 75.0915L148.118 75.3425C148.154 75.483 148.179 75.6963 148.179 75.998H149.179ZM149.087 75.0957C149.005 74.771 148.817 74.5001 148.518 74.3307L148.025 75.2013C148.063 75.2225 148.095 75.2523 148.116 75.3383L149.087 75.0957ZM148.518 74.3307C148.291 74.2028 148.048 74.123 147.79 74.0933L147.675 75.0867C147.799 75.101 147.914 75.1385 148.025 75.2013L148.518 74.3307ZM147.812 74.0963C147.598 74.0621 147.369 74.046 147.128 74.046V75.046C147.326 75.046 147.501 75.0592 147.654 75.0837L147.812 74.0963ZM147.128 74.046H147.007V75.046H147.128V74.046ZM147.007 74.046H141.991V75.046H147.007V74.046ZM141.491 74.546V77.263H142.491V74.546H141.491ZM141.991 77.763H147.029V76.763H141.991V77.763ZM147.029 77.763C147.622 77.763 148.155 77.6781 148.541 77.4313L148.002 76.5887C147.861 76.6792 147.564 76.763 147.029 76.763V77.763ZM148.544 77.4295C149.023 77.1188 149.179 76.5695 149.179 75.998H148.179C148.179 76.4238 148.063 76.5492 147.999 76.5905L148.544 77.4295ZM154.362 70.608V71.108L154.366 71.108L154.362 70.608ZM157.607 70.586V70.086L157.604 70.086L157.607 70.586ZM160.533 71.202L160.186 71.5618L160.192 71.5677L160.533 71.202ZM161.083 76.207L160.586 76.1511L160.586 76.1566L161.083 76.207ZM160.456 77.549L160.127 77.1732L160.123 77.1766L160.456 77.549ZM158.861 78.022V77.522H158.836L158.812 77.5245L158.861 78.022ZM158.014 78.066L158.004 77.5661L158.003 77.5661L158.014 78.066ZM153.911 78.011L153.858 78.5082L153.859 78.5083L153.911 78.011ZM152.866 77.769L152.672 78.2298L152.677 78.2316L152.866 77.769ZM152.173 77.164L151.745 77.4212L151.748 77.4276L151.752 77.4338L152.173 77.164ZM151.832 76.031L151.335 76.0862L151.832 76.031ZM151.777 73.116L152.277 73.1445L152.277 73.1437L151.777 73.116ZM151.953 71.994L151.466 71.8832L151.464 71.8902L151.953 71.994ZM152.734 70.938L152.97 71.3787V71.3787L152.734 70.938ZM154.549 77.263L154.558 76.763H154.549V77.263ZM156.441 77.296L156.433 77.796H156.441V77.296ZM158.927 77.219L158.879 76.7213L158.927 77.219ZM159.972 76.702L159.541 76.4494L159.539 76.4528L159.972 76.702ZM160.236 75.36L159.736 75.3527V75.36H160.236ZM160.258 73.853L160.758 73.8603V73.853H160.258ZM160.203 72.654L159.706 72.7069L159.706 72.708L160.203 72.654ZM159.961 71.873L159.548 72.1542L159.553 72.162L159.961 71.873ZM159.466 71.521L159.324 72.0004L159.335 72.0035L159.345 72.0061L159.466 71.521ZM158.85 71.411L158.797 71.9082L158.806 71.9092L158.816 71.9098L158.85 71.411ZM158.19 71.378L158.187 71.878H158.19V71.378ZM156.463 71.367L156.467 70.8668L156.454 70.8671L156.463 71.367ZM154.758 71.4V71.9001L154.768 71.8999L154.758 71.4ZM153.108 71.73L153.422 72.1194L153.428 72.1141L153.108 71.73ZM152.712 73.259L153.212 73.274L153.212 73.2665V73.259H152.712ZM152.679 74.359L152.18 74.344L152.179 74.3515V74.359H152.679ZM152.976 76.779L152.548 77.0363L152.55 77.0405L152.976 76.779ZM154.366 71.108L157.611 71.086L157.604 70.086L154.359 70.108L154.366 71.108ZM157.607 71.086C158.352 71.086 158.939 71.1364 159.38 71.2293C159.832 71.3244 160.073 71.4525 160.186 71.5617L160.881 70.8423C160.568 70.5409 160.109 70.361 159.586 70.2507C159.051 70.1382 158.388 70.086 157.607 70.086V71.086ZM160.192 71.5677C160.302 71.6702 160.434 71.8934 160.533 72.3255C160.629 72.748 160.682 73.3155 160.682 74.04H161.682C161.682 73.2758 161.627 72.626 161.508 72.1025C161.39 71.5886 161.197 71.1372 160.874 70.8363L160.192 71.5677ZM160.682 74.04V74.304H161.682V74.04H160.682ZM160.682 74.304V74.535H161.682V74.304H160.682ZM160.682 74.535C160.682 75.0423 160.651 75.5809 160.586 76.1511L161.58 76.2629C161.648 75.6598 161.682 75.0837 161.682 74.535H160.682ZM160.586 76.1566C160.537 76.6391 160.371 76.9586 160.127 77.1732L160.786 77.9248C161.26 77.5087 161.512 76.9336 161.581 76.2574L160.586 76.1566ZM160.123 77.1766C159.899 77.3768 159.51 77.522 158.861 77.522V78.522C159.635 78.522 160.31 78.3518 160.79 77.9214L160.123 77.1766ZM158.812 77.5245C158.61 77.5447 158.342 77.5589 158.004 77.5661L158.025 78.5659C158.376 78.5584 158.673 78.5433 158.911 78.5195L158.812 77.5245ZM158.003 77.5661C157.669 77.5734 157.35 77.577 157.046 77.577V78.577C157.358 78.577 157.685 78.5733 158.025 78.5659L158.003 77.5661ZM157.046 77.577H155.407V78.577H157.046V77.577ZM155.407 77.577H155.209V78.577H155.407V77.577ZM155.209 77.577C154.778 77.577 154.363 77.5558 153.964 77.5137L153.859 78.5083C154.295 78.5542 154.746 78.577 155.209 78.577V77.577ZM153.965 77.5138C153.586 77.4733 153.287 77.401 153.056 77.3064L152.677 78.2316C153.018 78.3717 153.415 78.4607 153.858 78.5082L153.965 77.5138ZM153.06 77.3082C152.886 77.2348 152.73 77.1059 152.594 76.8942L151.752 77.4338C151.983 77.7941 152.289 78.0685 152.672 78.2298L153.06 77.3082ZM152.602 76.9068C152.474 76.693 152.375 76.3905 152.329 75.9758L151.335 76.0862C151.392 76.5955 151.521 77.0483 151.745 77.4212L152.602 76.9068ZM152.329 75.9758C152.281 75.5373 152.255 75.0102 152.255 74.392H151.255C151.255 75.0351 151.281 75.6007 151.335 76.0862L152.329 75.9758ZM152.255 74.392C152.255 73.7985 152.263 73.3857 152.277 73.1445L151.278 73.0875C151.263 73.3597 151.255 73.7975 151.255 74.392H152.255ZM152.277 73.1437C152.289 72.9185 152.341 72.5743 152.442 72.0978L151.464 71.8902C151.36 72.3817 151.295 72.7855 151.278 73.0883L152.277 73.1437ZM152.441 72.1048C152.521 71.7515 152.697 71.5254 152.97 71.3787L152.498 70.4973C151.951 70.7906 151.605 71.2685 151.466 71.8832L152.441 72.1048ZM152.97 71.3787C153.283 71.2112 153.736 71.108 154.362 71.108V70.108C153.64 70.108 153.007 70.2248 152.498 70.4973L152.97 71.3787ZM154.541 77.7629L156.433 77.7959L156.45 76.7961L154.558 76.7631L154.541 77.7629ZM156.441 77.796H157.123V76.796H156.441V77.796ZM157.123 77.796H157.354V76.796H157.123V77.796ZM157.354 77.796C157.891 77.796 158.432 77.7695 158.976 77.7167L158.879 76.7213C158.367 76.7711 157.859 76.796 157.354 76.796V77.796ZM158.976 77.7167C159.571 77.6588 160.119 77.4503 160.406 76.9512L159.539 76.4528C159.489 76.5404 159.34 76.6765 158.879 76.7213L158.976 77.7167ZM160.404 76.9546C160.646 76.5407 160.736 75.9878 160.736 75.36H159.736C159.736 75.9202 159.651 76.2619 159.541 76.4494L160.404 76.9546ZM160.736 75.3673L160.758 73.8603L159.758 73.8457L159.736 75.3527L160.736 75.3673ZM160.758 73.853C160.758 73.3789 160.74 72.9603 160.7 72.6L159.706 72.708C159.74 73.0223 159.758 73.4031 159.758 73.853H160.758ZM160.701 72.6011C160.66 72.2178 160.565 71.8599 160.369 71.584L159.553 72.162C159.607 72.2381 159.674 72.4009 159.706 72.7069L160.701 72.6011ZM160.375 71.5918C160.185 71.3122 159.918 71.1186 159.588 71.0359L159.345 72.0061C159.425 72.0261 159.489 72.0671 159.548 72.1542L160.375 71.5918ZM159.608 71.0416C159.374 70.9722 159.133 70.9293 158.885 70.9122L158.816 71.9098C158.993 71.922 159.162 71.9525 159.324 72.0004L159.608 71.0416ZM158.904 70.9138C158.678 70.8897 158.44 70.878 158.19 70.878V71.878C158.41 71.878 158.612 71.8883 158.797 71.9082L158.904 70.9138ZM158.194 70.878L156.467 70.867L156.46 71.867L158.187 71.878L158.194 70.878ZM156.454 70.8671L154.749 70.9001L154.768 71.8999L156.473 71.8669L156.454 70.8671ZM154.758 70.9C154.322 70.9 153.94 70.9284 153.621 70.9922C153.31 71.0544 153.013 71.159 152.788 71.3459L153.428 72.1141C153.468 72.081 153.578 72.0206 153.817 71.9728C154.048 71.9266 154.359 71.9 154.758 71.9V70.9ZM152.795 71.3406C152.544 71.5425 152.406 71.8414 152.327 72.1464C152.247 72.4577 152.212 72.8332 152.212 73.259H153.212C153.212 72.8781 153.244 72.5954 153.295 72.3971C153.348 72.1924 153.409 72.1302 153.422 72.1194L152.795 71.3406ZM152.213 73.244L152.18 74.344L153.179 74.374L153.212 73.274L152.213 73.244ZM152.179 74.359V74.898H153.179V74.359H152.179ZM152.179 74.898C152.179 75.3755 152.205 75.7912 152.26 76.1392C152.314 76.4803 152.401 76.7919 152.548 77.0362L153.405 76.5218C153.354 76.4361 153.293 76.2692 153.247 75.9833C153.203 75.7043 153.179 75.3445 153.179 74.898H152.179ZM152.55 77.0405C152.736 77.3436 153.044 77.5192 153.371 77.6199C153.7 77.721 154.098 77.763 154.549 77.763V76.763C154.15 76.763 153.861 76.7244 153.665 76.6641C153.468 76.6034 153.415 76.537 153.403 76.5175L152.55 77.0405ZM166.055 70.608V71.108L166.058 71.108L166.055 70.608ZM169.3 70.586V70.086L169.296 70.086L169.3 70.586ZM172.226 71.202L171.878 71.5618L171.885 71.5677L172.226 71.202ZM172.776 76.207L172.279 76.1511L172.278 76.1566L172.776 76.207ZM172.149 77.549L171.819 77.1732L171.815 77.1766L172.149 77.549ZM170.554 78.022V77.522H170.529L170.504 77.5245L170.554 78.022ZM169.707 78.066L169.696 77.5661L169.696 77.5661L169.707 78.066ZM165.604 78.011L165.55 78.5082L165.551 78.5083L165.604 78.011ZM164.559 77.769L164.365 78.2298L164.369 78.2316L164.559 77.769ZM163.866 77.164L163.437 77.4212L163.441 77.4276L163.445 77.4338L163.866 77.164ZM163.525 76.031L163.028 76.0862L163.525 76.031ZM163.47 73.116L163.969 73.1445L163.969 73.1437L163.47 73.116ZM163.646 71.994L163.158 71.8832L163.156 71.8902L163.646 71.994ZM164.427 70.938L164.663 71.3787V71.3787L164.427 70.938ZM166.242 77.263L166.25 76.763H166.242V77.263ZM168.134 77.296L168.125 77.796H168.134V77.296ZM170.62 77.219L170.571 76.7213L170.62 77.219ZM171.665 76.702L171.233 76.4494L171.231 76.4528L171.665 76.702ZM171.929 75.36L171.429 75.3527V75.36H171.929ZM171.951 73.853L172.451 73.8603V73.853H171.951ZM171.896 72.654L171.398 72.7069L171.398 72.708L171.896 72.654ZM171.654 71.873L171.24 72.1542L171.246 72.162L171.654 71.873ZM171.159 71.521L171.017 72.0004L171.027 72.0035L171.037 72.0061L171.159 71.521ZM170.543 71.411L170.489 71.9082L170.499 71.9092L170.508 71.9098L170.543 71.411ZM169.883 71.378L169.879 71.878H169.883V71.378ZM168.156 71.367L168.159 70.8668L168.146 70.8671L168.156 71.367ZM166.451 71.4V71.9001L166.46 71.8999L166.451 71.4ZM164.801 71.73L165.114 72.1194L165.121 72.1141L164.801 71.73ZM164.405 73.259L164.904 73.274L164.905 73.2665V73.259H164.405ZM164.372 74.359L163.872 74.344L163.872 74.3515V74.359H164.372ZM164.669 76.779L164.24 77.0363L164.242 77.0405L164.669 76.779ZM166.058 71.108L169.303 71.086L169.296 70.086L166.051 70.108L166.058 71.108ZM169.3 71.086C170.044 71.086 170.631 71.1364 171.072 71.2293C171.524 71.3244 171.765 71.4525 171.878 71.5617L172.573 70.8423C172.261 70.5409 171.802 70.361 171.278 70.2507C170.744 70.1382 170.081 70.086 169.3 70.086V71.086ZM171.885 71.5677C171.995 71.6702 172.126 71.8934 172.225 72.3255C172.322 72.748 172.375 73.3155 172.375 74.04H173.375C173.375 73.2758 173.319 72.626 173.2 72.1025C173.082 71.5886 172.889 71.1372 172.567 70.8363L171.885 71.5677ZM172.375 74.04V74.304H173.375V74.04H172.375ZM172.375 74.304V74.535H173.375V74.304H172.375ZM172.375 74.535C172.375 75.0423 172.343 75.5809 172.279 76.1511L173.272 76.2629C173.34 75.6598 173.375 75.0837 173.375 74.535H172.375ZM172.278 76.1566C172.229 76.6391 172.063 76.9586 171.819 77.1732L172.478 77.9248C172.952 77.5087 173.205 76.9336 173.273 76.2574L172.278 76.1566ZM171.815 77.1766C171.591 77.3768 171.202 77.522 170.554 77.522V78.522C171.328 78.522 172.002 78.3518 172.482 77.9214L171.815 77.1766ZM170.504 77.5245C170.302 77.5447 170.034 77.5589 169.696 77.5661L169.717 78.5659C170.069 78.5584 170.365 78.5433 170.603 78.5195L170.504 77.5245ZM169.696 77.5661C169.362 77.5734 169.043 77.577 168.739 77.577V78.577C169.051 78.577 169.377 78.5733 169.717 78.5659L169.696 77.5661ZM168.739 77.577H167.1V78.577H168.739V77.577ZM167.1 77.577H166.902V78.577H167.1V77.577ZM166.902 77.577C166.471 77.577 166.055 77.5558 165.656 77.5137L165.551 78.5083C165.988 78.5542 166.438 78.577 166.902 78.577V77.577ZM165.657 77.5138C165.278 77.4733 164.979 77.401 164.748 77.3064L164.369 78.2316C164.71 78.3717 165.107 78.4607 165.55 78.5082L165.657 77.5138ZM164.753 77.3082C164.578 77.2348 164.422 77.1059 164.287 76.8942L163.445 77.4338C163.676 77.7941 163.981 78.0685 164.365 78.2298L164.753 77.3082ZM164.294 76.9068C164.166 76.693 164.068 76.3905 164.022 75.9758L163.028 76.0862C163.084 76.5955 163.213 77.0483 163.437 77.4212L164.294 76.9068ZM164.022 75.9758C163.973 75.5373 163.948 75.0102 163.948 74.392H162.948C162.948 75.0351 162.974 75.6007 163.028 76.0862L164.022 75.9758ZM163.948 74.392C163.948 73.7985 163.955 73.3857 163.969 73.1445L162.97 73.0875C162.955 73.3597 162.948 73.7975 162.948 74.392H163.948ZM163.969 73.1437C163.981 72.9185 164.034 72.5743 164.135 72.0978L163.156 71.8902C163.052 72.3817 162.987 72.7855 162.97 73.0883L163.969 73.1437ZM164.133 72.1048C164.213 71.7515 164.389 71.5254 164.663 71.3787L164.19 70.4973C163.643 70.7906 163.298 71.2685 163.158 71.8832L164.133 72.1048ZM164.663 71.3787C164.975 71.2112 165.428 71.108 166.055 71.108V70.108C165.332 70.108 164.699 70.2248 164.19 70.4973L164.663 71.3787ZM166.233 77.7629L168.125 77.7959L168.142 76.7961L166.25 76.7631L166.233 77.7629ZM168.134 77.796H168.816V76.796H168.134V77.796ZM168.816 77.796H169.047V76.796H168.816V77.796ZM169.047 77.796C169.584 77.796 170.124 77.7695 170.668 77.7167L170.571 76.7213C170.059 76.7711 169.551 76.796 169.047 76.796V77.796ZM170.668 77.7167C171.263 77.6588 171.811 77.4503 172.098 76.9512L171.231 76.4528C171.181 76.5404 171.032 76.6765 170.571 76.7213L170.668 77.7167ZM172.096 76.9546C172.338 76.5407 172.429 75.9878 172.429 75.36H171.429C171.429 75.9202 171.343 76.2619 171.233 76.4494L172.096 76.9546ZM172.429 75.3673L172.451 73.8603L171.451 73.8457L171.429 75.3527L172.429 75.3673ZM172.451 73.853C172.451 73.3789 172.432 72.9603 172.393 72.6L171.398 72.708C171.433 73.0223 171.451 73.4031 171.451 73.853H172.451ZM172.393 72.6011C172.352 72.2178 172.257 71.8599 172.062 71.584L171.246 72.162C171.299 72.2381 171.366 72.4009 171.398 72.7069L172.393 72.6011ZM172.067 71.5918C171.877 71.3122 171.61 71.1186 171.28 71.0359L171.037 72.0061C171.117 72.0261 171.181 72.0671 171.24 72.1542L172.067 71.5918ZM171.301 71.0416C171.066 70.9722 170.825 70.9293 170.577 70.9122L170.508 71.9098C170.686 71.922 170.855 71.9525 171.017 72.0004L171.301 71.0416ZM170.596 70.9138C170.371 70.8897 170.133 70.878 169.883 70.878V71.878C170.102 71.878 170.304 71.8883 170.489 71.9082L170.596 70.9138ZM169.886 70.878L168.159 70.867L168.152 71.867L169.879 71.878L169.886 70.878ZM168.146 70.8671L166.441 70.9001L166.46 71.8999L168.165 71.8669L168.146 70.8671ZM166.451 70.9C166.014 70.9 165.632 70.9284 165.313 70.9922C165.002 71.0544 164.705 71.159 164.48 71.3459L165.121 72.1141C165.16 72.081 165.27 72.0206 165.509 71.9728C165.74 71.9266 166.051 71.9 166.451 71.9V70.9ZM164.487 71.3406C164.236 71.5425 164.099 71.8414 164.02 72.1464C163.939 72.4577 163.905 72.8332 163.905 73.259H164.905C164.905 72.8781 164.936 72.5954 164.988 72.3971C165.041 72.1924 165.101 72.1302 165.114 72.1194L164.487 71.3406ZM163.905 73.244L163.872 74.344L164.871 74.374L164.904 73.274L163.905 73.244ZM163.872 74.359V74.898H164.872V74.359H163.872ZM163.872 74.898C163.872 75.3755 163.897 75.7912 163.952 76.1392C164.006 76.4803 164.093 76.7919 164.24 77.0362L165.097 76.5218C165.046 76.4361 164.985 76.2692 164.94 75.9833C164.896 75.7043 164.872 75.3445 164.872 74.898H163.872ZM164.242 77.0405C164.428 77.3436 164.736 77.5192 165.063 77.6199C165.392 77.721 165.791 77.763 166.242 77.763V76.763C165.842 76.763 165.553 76.7244 165.357 76.6641C165.16 76.6034 165.107 76.537 165.095 76.5175L164.242 77.0405ZM182.367 70.663V70.163H182.217L182.092 70.2452L182.367 70.663ZM183.885 70.663L184.159 71.0809L185.556 70.163H183.885V70.663ZM178.495 74.205L178.22 73.7871L177.586 74.2042L178.219 74.6224L178.495 74.205ZM184.248 78V78.5H185.914L184.523 77.5826L184.248 78ZM182.642 78L182.362 78.4146L182.489 78.5H182.642V78ZM177.549 74.568L177.828 74.1534L177.702 74.068H177.549V74.568ZM176.251 74.568V74.068H175.751V74.568H176.251ZM176.251 78V78.5H176.751V78H176.251ZM175.36 78H174.86V78.5H175.36V78ZM175.36 70.663V70.163H174.86V70.663H175.36ZM176.251 70.663H176.751V70.163H176.251V70.663ZM176.251 73.831H175.751V74.331H176.251V73.831ZM177.549 73.831V74.331H177.698L177.824 74.2488L177.549 73.831ZM182.367 71.163H183.885V70.163H182.367V71.163ZM183.61 70.2451L178.22 73.7871L178.769 74.6229L184.159 71.0809L183.61 70.2451ZM178.219 74.6224L183.972 78.4174L184.523 77.5826L178.77 73.7876L178.219 74.6224ZM184.248 77.5H182.642V78.5H184.248V77.5ZM182.921 77.5854L177.828 74.1534L177.269 74.9826L182.362 78.4146L182.921 77.5854ZM177.549 74.068H176.251V75.068H177.549V74.068ZM175.751 74.568V78H176.751V74.568H175.751ZM176.251 77.5H175.36V78.5H176.251V77.5ZM175.86 78V70.663H174.86V78H175.86ZM175.36 71.163H176.251V70.163H175.36V71.163ZM175.751 70.663V73.831H176.751V70.663H175.751ZM176.251 74.331H177.549V73.331H176.251V74.331ZM177.824 74.2488L182.642 71.0808L182.092 70.2452L177.274 73.4132L177.824 74.2488Z" fill="#4F4F4F"/>
<g clip-path="url(#clip0_1_16032)">
<path d="M27 19C22.0295 19 18 23.0295 18 28C18 32.9705 22.0295 37 27 37C31.9705 37 36 32.9705 36 28C36 23.0295 31.9705 19 27 19ZM29.6442 24.1587C29.2164 24.1587 28.7859 24.1587 28.3582 24.1587C28.0876 24.1412 27.8083 24.3478 27.7589 24.6184C27.753 25.0869 27.756 25.5553 27.756 26.0238C28.3843 26.0267 29.0129 26.0238 29.6415 26.0267C29.5949 26.7045 29.5106 27.3796 29.4117 28.0489C28.856 28.0548 28.3002 28.0489 27.7445 28.0518C27.7386 30.0507 27.7474 32.0466 27.7415 34.0457C26.9151 34.0486 26.0918 34.0428 25.2654 34.0486C25.2508 32.0497 25.2654 30.0509 25.2567 28.0518C24.8551 28.0489 24.4507 28.0548 24.0492 28.0489C24.0521 27.3767 24.0492 26.7047 24.0492 26.0354C24.4507 26.0296 24.8551 26.0354 25.2567 26.0325C25.2683 25.3808 25.245 24.7261 25.2683 24.0744C25.312 23.5535 25.5069 23.0328 25.894 22.6749C26.3625 22.2297 27.0257 22.0784 27.6543 22.0609C28.3177 22.0551 28.9812 22.058 29.6444 22.058C29.6471 22.7592 29.6471 23.4575 29.6442 24.1587Z" fill="#4F4F4F"/>
</g>
<defs>
<clipPath id="clip0_1_16032">
<rect width="18" height="18" fill="white" transform="translate(18 19)"/>
</clipPath>
</defs>
</svg>
