<svg width="177" height="47" viewBox="0 0 177 47" fill="none" xmlns="http://www.w3.org/2000/svg">
<rect x="0.44335" y="0.44335" width="176.113" height="46.1133" rx="5.55665" stroke="#D9D9D9" stroke-width="0.886699"/>
<path d="M95.517 22.9581V23.6116H90.3671V26.6255H89.577V20.1198H95.7901V20.783H90.3671V22.9581H95.517ZM97.5686 26.6255H96.642L100.485 20.1198H101.538L105.411 26.6255H104.504L103.655 25.1624H98.3977L97.5686 26.6255ZM98.7683 24.5089H103.284L101.012 20.6952L98.7683 24.5089ZM112.135 26.6645L110.457 26.6938L109.735 26.7035L108.292 26.6352C107.134 26.5182 106.555 25.8972 106.555 24.7723L106.516 23.5336C106.516 23.0394 106.52 22.672 106.526 22.4314C106.539 22.1908 106.588 21.8559 106.672 21.4268C106.757 20.9976 106.962 20.6725 107.287 20.4514C107.612 20.2303 108.064 20.1198 108.643 20.1198C108.903 20.0938 109.147 20.0775 109.374 20.071C109.608 20.0645 109.881 20.0613 110.194 20.0613H110.428L111.364 20.0515C111.741 20.0515 112.047 20.0613 112.281 20.0808C112.515 20.0938 112.821 20.1393 113.198 20.2173C113.581 20.2953 113.848 20.5034 113.998 20.8415C114.147 21.1797 114.222 21.6316 114.222 22.1973H113.442V22.1388C113.442 21.8462 113.422 21.6056 113.383 21.417C113.351 21.2284 113.266 21.0919 113.129 21.0074C112.999 20.9228 112.756 20.8578 112.398 20.8123C112.04 20.7668 111.546 20.744 110.915 20.744C110.681 20.744 110.327 20.7538 109.852 20.7733C109.378 20.7928 109.02 20.8025 108.779 20.8025C108.22 20.848 107.862 20.9488 107.706 21.1049C107.55 21.2545 107.453 21.5178 107.414 21.8949C107.375 22.2721 107.352 22.6167 107.346 22.9288C107.339 23.2345 107.336 23.5271 107.336 23.8067C107.336 24.6325 107.417 25.2014 107.58 25.5136C107.749 25.8257 108.191 25.9817 108.906 25.9817L110.428 26.0013L111.881 25.9817C112.479 25.9817 112.895 25.9102 113.129 25.7672C113.364 25.6241 113.481 25.2795 113.481 24.7333V24.4699H114.3C114.3 25.3217 114.17 25.9005 113.91 26.2061C113.65 26.5117 113.058 26.6645 112.135 26.6645ZM122.693 22.9288V23.5823H117.24V25.972H122.966V26.6255H116.45V20.1198H122.898V20.783H117.24V22.9288H122.693ZM132.428 21.7486C132.428 22.2558 132.35 22.6005 132.194 22.7825C132.038 22.9646 131.71 23.0979 131.209 23.1824C131.762 23.1824 132.139 23.2995 132.34 23.5336C132.548 23.7612 132.652 24.1611 132.652 24.7333C132.652 25.442 132.487 25.9362 132.155 26.2158C131.823 26.4889 131.28 26.6255 130.526 26.6255H125.113V20.1198H130.614C131.206 20.1198 131.654 20.2466 131.96 20.5002C132.272 20.7538 132.428 21.1699 132.428 21.7486ZM131.609 21.8169C131.609 21.4073 131.518 21.1342 131.336 20.9976C131.154 20.8546 130.848 20.783 130.419 20.783H125.903V22.9093H130.302C130.763 22.9093 131.095 22.8346 131.297 22.685C131.505 22.5354 131.609 22.2461 131.609 21.8169ZM131.833 24.8503C131.833 24.5642 131.81 24.3334 131.765 24.1578C131.719 23.9757 131.622 23.8424 131.472 23.7579C131.323 23.6734 131.163 23.6214 130.994 23.6018C130.832 23.5758 130.653 23.5628 130.458 23.5628H130.351H125.903V25.972H130.37C130.871 25.972 131.238 25.8972 131.472 25.7477C131.713 25.5916 131.833 25.2925 131.833 24.8503ZM136.873 20.071L139.75 20.0515C141.103 20.0515 141.968 20.2336 142.345 20.5977C142.728 20.9553 142.92 21.7942 142.92 23.1142V23.3482V23.5531C142.92 24.0213 142.891 24.5154 142.832 25.0356C142.78 25.5493 142.595 25.946 142.277 26.2256C141.964 26.5052 141.493 26.645 140.862 26.645C140.667 26.6645 140.417 26.6775 140.111 26.684C139.812 26.6905 139.526 26.6938 139.253 26.6938H137.8H137.624C137.227 26.6938 136.844 26.6743 136.473 26.6352C136.109 26.5962 135.8 26.5247 135.546 26.4207C135.299 26.3166 135.095 26.1378 134.932 25.8842C134.776 25.6241 134.675 25.2892 134.63 24.8796C134.584 24.4699 134.561 23.9855 134.561 23.4263C134.561 22.8996 134.568 22.5224 134.581 22.2948C134.594 22.0608 134.646 21.7291 134.737 21.3C134.834 20.8708 135.065 20.5587 135.429 20.3636C135.794 20.1685 136.275 20.071 136.873 20.071ZM137.039 25.972L138.716 26.0013H139.321H139.526C139.988 26.0013 140.453 25.9785 140.921 25.933C141.389 25.8875 141.698 25.7347 141.847 25.4746C142.003 25.208 142.081 24.8113 142.081 24.2846L142.101 22.9483C142.101 22.5387 142.085 22.1843 142.052 21.8852C142.02 21.5796 141.948 21.3487 141.838 21.1927C141.727 21.0301 141.581 20.9261 141.399 20.8806C141.223 20.8285 141.041 20.796 140.852 20.783C140.67 20.7635 140.475 20.7538 140.267 20.7538L138.736 20.744L137.224 20.7733C136.483 20.7733 135.995 20.8708 135.761 21.0659C135.527 21.2545 135.41 21.7064 135.41 22.4216L135.381 23.397V23.8749C135.381 24.6943 135.468 25.2502 135.644 25.5428C135.82 25.8289 136.285 25.972 137.039 25.972ZM147.24 20.071L150.118 20.0515C151.47 20.0515 152.335 20.2336 152.712 20.5977C153.096 20.9553 153.288 21.7942 153.288 23.1142V23.3482V23.5531C153.288 24.0213 153.259 24.5154 153.2 25.0356C153.148 25.5493 152.963 25.946 152.644 26.2256C152.332 26.5052 151.86 26.645 151.23 26.645C151.035 26.6645 150.784 26.6775 150.479 26.684C150.18 26.6905 149.893 26.6938 149.62 26.6938H148.167H147.992C147.595 26.6938 147.211 26.6743 146.841 26.6352C146.476 26.5962 146.168 26.5247 145.914 26.4207C145.667 26.3166 145.462 26.1378 145.299 25.8842C145.143 25.6241 145.043 25.2892 144.997 24.8796C144.952 24.4699 144.929 23.9855 144.929 23.4263C144.929 22.8996 144.935 22.5224 144.948 22.2948C144.961 22.0608 145.013 21.7291 145.104 21.3C145.202 20.8708 145.433 20.5587 145.797 20.3636C146.161 20.1685 146.642 20.071 147.24 20.071ZM147.406 25.972L149.084 26.0013H149.689H149.893C150.355 26.0013 150.82 25.9785 151.288 25.933C151.756 25.8875 152.065 25.7347 152.215 25.4746C152.371 25.208 152.449 24.8113 152.449 24.2846L152.468 22.9483C152.468 22.5387 152.452 22.1843 152.42 21.8852C152.387 21.5796 152.316 21.3487 152.205 21.1927C152.095 21.0301 151.948 20.9261 151.766 20.8806C151.591 20.8285 151.409 20.796 151.22 20.783C151.038 20.7635 150.843 20.7538 150.635 20.7538L149.103 20.744L147.592 20.7733C146.85 20.7733 146.363 20.8708 146.129 21.0659C145.894 21.2545 145.777 21.7064 145.777 22.4216L145.748 23.397V23.8749C145.748 24.6943 145.836 25.2502 146.012 25.5428C146.187 25.8289 146.652 25.972 147.406 25.972ZM161.705 20.1198H163.051L158.271 23.2605L163.372 26.6255H161.948L157.432 23.5823H156.281V26.6255H155.491V20.1198H156.281V22.9288H157.432L161.705 20.1198Z" fill="#4F4F4F"/>
<path d="M95.517 22.9581H95.9604V22.5147H95.517V22.9581ZM95.517 23.6116V24.0549H95.9604V23.6116H95.517ZM90.3671 23.6116V23.1682H89.9237V23.6116H90.3671ZM90.3671 26.6255V27.0688H90.8104V26.6255H90.3671ZM89.577 26.6255H89.1337V27.0688H89.577V26.6255ZM89.577 20.1198V19.6764H89.1337V20.1198H89.577ZM95.7901 20.1198H96.2335V19.6764H95.7901V20.1198ZM95.7901 20.783V21.2264H96.2335V20.783H95.7901ZM90.3671 20.783V20.3397H89.9237V20.783H90.3671ZM90.3671 22.9581H89.9237V23.4014H90.3671V22.9581ZM95.0737 22.9581V23.6116H95.9604V22.9581H95.0737ZM95.517 23.1682H90.3671V24.0549H95.517V23.1682ZM89.9237 23.6116V26.6255H90.8104V23.6116H89.9237ZM90.3671 26.1821H89.577V27.0688H90.3671V26.1821ZM90.0204 26.6255V20.1198H89.1337V26.6255H90.0204ZM89.577 20.5631H95.7901V19.6764H89.577V20.5631ZM95.3468 20.1198V20.783H96.2335V20.1198H95.3468ZM95.7901 20.3397H90.3671V21.2264H95.7901V20.3397ZM89.9237 20.783V22.9581H90.8104V20.783H89.9237ZM90.3671 23.4014H95.517V22.5147H90.3671V23.4014ZM97.5686 26.6255V27.0688H97.827L97.9544 26.8441L97.5686 26.6255ZM96.642 26.6255L96.2603 26.4L95.8652 27.0688H96.642V26.6255ZM100.485 20.1198V19.6764H100.232L100.103 19.8943L100.485 20.1198ZM101.538 20.1198L101.919 19.893L101.79 19.6764H101.538V20.1198ZM105.411 26.6255V27.0688H106.19L105.792 26.3987L105.411 26.6255ZM104.504 26.6255L104.12 26.8479L104.248 27.0688H104.504V26.6255ZM103.655 25.1624L104.038 24.94L103.91 24.7191H103.655V25.1624ZM98.3977 25.1624V24.7191H98.1394L98.012 24.9439L98.3977 25.1624ZM98.7683 24.5089L98.3862 24.2841L97.9932 24.9523H98.7683V24.5089ZM103.284 24.5089V24.9523H104.065L103.665 24.282L103.284 24.5089ZM101.012 20.6952L101.393 20.4683L101.009 19.825L100.63 20.4705L101.012 20.6952ZM97.5686 26.1821H96.642V27.0688H97.5686V26.1821ZM97.0238 26.851L100.867 20.3453L100.103 19.8943L96.2603 26.4L97.0238 26.851ZM100.485 20.5631H101.538V19.6764H100.485V20.5631ZM101.157 20.3465L105.03 26.8522L105.792 26.3987L101.919 19.893L101.157 20.3465ZM105.411 26.1821H104.504V27.0688H105.411V26.1821ZM104.887 26.4031L104.038 24.94L103.271 25.3849L104.12 26.8479L104.887 26.4031ZM103.655 24.7191H98.3977V25.6058H103.655V24.7191ZM98.012 24.9439L97.1829 26.4069L97.9544 26.8441L98.7834 25.381L98.012 24.9439ZM98.7683 24.9523H103.284V24.0656H98.7683V24.9523ZM103.665 24.282L101.393 20.4683L100.631 20.9222L102.903 24.7359L103.665 24.282ZM100.63 20.4705L98.3862 24.2841L99.1505 24.7337L101.394 20.92L100.63 20.4705ZM112.135 26.6645V26.2211L112.127 26.2212L112.135 26.6645ZM110.457 26.6938L110.463 27.1371L110.465 27.137L110.457 26.6938ZM109.735 26.7035L109.714 27.1464L109.728 27.147L109.741 27.1468L109.735 26.7035ZM108.292 26.6352L108.247 27.0763L108.259 27.0775L108.271 27.0781L108.292 26.6352ZM106.555 24.7723H106.999L106.999 24.7583L106.555 24.7723ZM106.516 23.5336H106.073L106.073 23.5475L106.516 23.5336ZM106.526 22.4314L106.083 22.4075L106.083 22.4194L106.526 22.4314ZM106.672 21.4268L106.238 21.3411V21.3411L106.672 21.4268ZM107.287 20.4514L107.536 20.818V20.818L107.287 20.4514ZM108.643 20.1198V20.5631H108.665L108.687 20.5609L108.643 20.1198ZM109.374 20.071L109.362 19.6278L109.362 19.6278L109.374 20.071ZM110.428 20.0613V20.5046L110.432 20.5046L110.428 20.0613ZM111.364 20.0515V19.6081L111.359 19.6082L111.364 20.0515ZM112.281 20.0808L112.244 20.5227L112.256 20.5234L112.281 20.0808ZM113.198 20.2173L113.108 20.6515L113.109 20.6518L113.198 20.2173ZM113.998 20.8415L114.403 20.6622L113.998 20.8415ZM114.222 22.1973V22.6407H114.665V22.1973H114.222ZM113.442 22.1973H112.998V22.6407H113.442V22.1973ZM113.383 21.417L112.946 21.4923L112.947 21.4996L112.949 21.5068L113.383 21.417ZM113.129 21.0074L112.888 21.3792L112.896 21.3843L113.129 21.0074ZM112.398 20.8123L112.342 21.2521V21.2521L112.398 20.8123ZM108.779 20.8025V20.3592H108.761L108.743 20.3606L108.779 20.8025ZM107.706 21.1049L108.013 21.4251L108.02 21.4184L107.706 21.1049ZM107.414 21.8949L107.855 21.9406L107.414 21.8949ZM107.346 22.9288L107.789 22.9383L107.789 22.9381L107.346 22.9288ZM107.58 25.5136L107.186 25.7184L107.19 25.7247L107.58 25.5136ZM108.906 25.9817L108.912 25.5384H108.906V25.9817ZM110.428 26.0013L110.422 26.4447L110.434 26.4446L110.428 26.0013ZM111.881 25.9817V25.5384L111.875 25.5384L111.881 25.9817ZM113.129 25.7672L112.898 25.3889L113.129 25.7672ZM113.481 24.4699V24.0266H113.037V24.4699H113.481ZM114.3 24.4699H114.743V24.0266H114.3V24.4699ZM113.91 26.2061L114.247 26.4934L113.91 26.2061ZM112.127 26.2212L110.449 26.2505L110.465 27.137L112.142 27.1078L112.127 26.2212ZM110.451 26.2505L109.729 26.2602L109.741 27.1468L110.463 27.1371L110.451 26.2505ZM109.756 26.2607L108.313 26.1924L108.271 27.0781L109.714 27.1464L109.756 26.2607ZM108.336 26.1941C107.825 26.1424 107.507 25.9863 107.314 25.7795C107.123 25.5748 106.999 25.2599 106.999 24.7723H106.112C106.112 25.4096 106.277 25.9677 106.665 26.384C107.051 26.7982 107.601 27.011 108.247 27.0763L108.336 26.1941ZM106.999 24.7583L106.96 23.5196L106.073 23.5475L106.112 24.7862L106.999 24.7583ZM106.96 23.5336C106.96 23.0401 106.963 22.6777 106.969 22.4434L106.083 22.4194C106.076 22.6663 106.073 23.0386 106.073 23.5336H106.96ZM106.969 22.4553C106.98 22.2458 107.024 21.9348 107.107 21.5124L106.238 21.3411C106.152 21.7771 106.098 22.1358 106.083 22.4075L106.969 22.4553ZM107.107 21.5124C107.172 21.1836 107.319 20.9659 107.536 20.818L107.038 20.0848C106.605 20.3791 106.342 20.8116 106.238 21.3411L107.107 21.5124ZM107.536 20.818C107.761 20.6654 108.113 20.5631 108.643 20.5631V19.6764C108.015 19.6764 107.463 19.7952 107.038 20.0848L107.536 20.818ZM108.687 20.5609C108.938 20.5358 109.171 20.5203 109.387 20.5142L109.362 19.6278C109.122 19.6347 108.868 19.6517 108.599 19.6786L108.687 20.5609ZM109.387 20.5142C109.615 20.5078 109.884 20.5046 110.194 20.5046V19.6179C109.879 19.6179 109.601 19.6212 109.362 19.6278L109.387 20.5142ZM110.194 20.5046H110.428V19.6179H110.194V20.5046ZM110.432 20.5046L111.369 20.4948L111.359 19.6082L110.423 19.6179L110.432 20.5046ZM111.364 20.4948C111.735 20.4948 112.027 20.5045 112.244 20.5226L112.318 19.6389C112.066 19.618 111.747 19.6081 111.364 19.6081V20.4948ZM112.256 20.5234C112.459 20.5347 112.74 20.5754 113.108 20.6515L113.288 19.7832C112.901 19.7031 112.571 19.6528 112.305 19.6381L112.256 20.5234ZM113.109 20.6518C113.362 20.7031 113.505 20.823 113.592 21.0209L114.403 20.6622C114.191 20.1838 113.801 19.8875 113.286 19.7829L113.109 20.6518ZM113.592 21.0209C113.707 21.2806 113.779 21.6638 113.779 22.1973H114.665C114.665 21.5993 114.587 21.0787 114.403 20.6622L113.592 21.0209ZM114.222 21.754H113.442V22.6407H114.222V21.754ZM113.885 22.1973V22.1388H112.998V22.1973H113.885ZM113.885 22.1388C113.885 21.8298 113.865 21.5563 113.817 21.3272L112.949 21.5068C112.98 21.6548 112.998 21.8625 112.998 22.1388H113.885ZM113.82 21.3417C113.77 21.0543 113.628 20.7945 113.363 20.6304L112.896 21.3843C112.904 21.3892 112.931 21.4026 112.946 21.4923L113.82 21.3417ZM113.371 20.6356C113.148 20.4907 112.812 20.4181 112.454 20.3725L112.342 21.2521C112.699 21.2975 112.851 21.355 112.888 21.3791L113.371 20.6356ZM112.454 20.3725C112.069 20.3235 111.553 20.3007 110.915 20.3007V21.1874C111.539 21.1874 112.012 21.21 112.342 21.2521L112.454 20.3725ZM110.915 20.3007C110.672 20.3007 110.31 20.3107 109.834 20.3303L109.87 21.2162C110.344 21.1968 110.691 21.1874 110.915 21.1874V20.3007ZM109.834 20.3303C109.361 20.3497 109.01 20.3592 108.779 20.3592V21.2459C109.029 21.2459 109.394 21.2358 109.87 21.2162L109.834 20.3303ZM108.743 20.3606C108.448 20.3847 108.188 20.4245 107.971 20.4855C107.764 20.5441 107.55 20.6347 107.393 20.7914L108.02 21.4184C108.019 21.419 108.062 21.3812 108.212 21.339C108.353 21.2992 108.551 21.2659 108.815 21.2444L108.743 20.3606ZM107.4 20.7848C107.128 21.0447 107.015 21.4389 106.973 21.8493L107.855 21.9406C107.89 21.5967 107.972 21.4642 108.013 21.425L107.4 20.7848ZM106.973 21.8493C106.933 22.2361 106.909 22.5931 106.902 22.9196L107.789 22.9381C107.795 22.6404 107.817 22.3081 107.855 21.9406L106.973 21.8493ZM106.902 22.9194C106.896 23.2279 106.892 23.5236 106.892 23.8067H107.779C107.779 23.5305 107.782 23.241 107.789 22.9383L106.902 22.9194ZM106.892 23.8067C106.892 24.6322 106.969 25.3007 107.186 25.7184L107.973 25.3088C107.865 25.1022 107.779 24.6328 107.779 23.8067H106.892ZM107.19 25.7247C107.342 26.005 107.6 26.1802 107.89 26.2828C108.177 26.3839 108.522 26.4251 108.906 26.4251V25.5384C108.575 25.5384 108.341 25.5016 108.186 25.4466C108.034 25.3932 107.987 25.3343 107.969 25.3024L107.19 25.7247ZM108.9 26.4251L110.422 26.4446L110.433 25.5579L108.912 25.5384L108.9 26.4251ZM110.434 26.4446L111.887 26.4251L111.875 25.5384L110.422 25.5579L110.434 26.4446ZM111.881 26.4251C112.485 26.4251 113.013 26.3582 113.361 26.1455L112.898 25.3889C112.778 25.4623 112.473 25.5384 111.881 25.5384V26.4251ZM113.361 26.1455C113.592 26.0044 113.732 25.7822 113.813 25.544C113.892 25.3089 113.924 25.0331 113.924 24.7333H113.037C113.037 24.9797 113.01 25.1493 112.973 25.2588C112.937 25.3653 112.901 25.3869 112.898 25.3889L113.361 26.1455ZM113.924 24.7333V24.4699H113.037V24.7333H113.924ZM113.481 24.9133H114.3V24.0266H113.481V24.9133ZM113.857 24.4699C113.857 24.876 113.825 25.1987 113.77 25.4456C113.714 25.6958 113.639 25.8406 113.572 25.9187L114.247 26.4934C114.441 26.2659 114.561 25.9685 114.635 25.64C114.709 25.3083 114.743 24.9157 114.743 24.4699H113.857ZM113.572 25.9187C113.525 25.9743 113.411 26.0559 113.16 26.1206C112.914 26.1842 112.576 26.2212 112.135 26.2212V27.1079C112.617 27.1079 113.036 27.0684 113.382 26.9792C113.723 26.8911 114.035 26.7435 114.247 26.4934L113.572 25.9187ZM122.693 22.9288H123.136V22.4855H122.693V22.9288ZM122.693 23.5823V24.0257H123.136V23.5823H122.693ZM117.24 23.5823V23.139H116.797V23.5823H117.24ZM117.24 25.972H116.797V26.4153H117.24V25.972ZM122.966 25.972H123.409V25.5286H122.966V25.972ZM122.966 26.6255V27.0688H123.409V26.6255H122.966ZM116.45 26.6255H116.007V27.0688H116.45V26.6255ZM116.45 20.1198V19.6764H116.007V20.1198H116.45ZM122.898 20.1198H123.341V19.6764H122.898V20.1198ZM122.898 20.783V21.2264H123.341V20.783H122.898ZM117.24 20.783V20.3397H116.797V20.783H117.24ZM117.24 22.9288H116.797V23.3722H117.24V22.9288ZM122.249 22.9288V23.5823H123.136V22.9288H122.249ZM122.693 23.139H117.24V24.0257H122.693V23.139ZM116.797 23.5823V25.972H117.684V23.5823H116.797ZM117.24 26.4153H122.966V25.5286H117.24V26.4153ZM122.522 25.972V26.6255H123.409V25.972H122.522ZM122.966 26.1821H116.45V27.0688H122.966V26.1821ZM116.894 26.6255V20.1198H116.007V26.6255H116.894ZM116.45 20.5631H122.898V19.6764H116.45V20.5631ZM122.454 20.1198V20.783H123.341V20.1198H122.454ZM122.898 20.3397H117.24V21.2264H122.898V20.3397ZM116.797 20.783V22.9288H117.684V20.783H116.797ZM117.24 23.3722H122.693V22.4855H117.24V23.3722ZM132.194 22.7825L132.531 23.0711V23.0711L132.194 22.7825ZM131.209 23.1824L131.135 22.7453L131.209 23.6258V23.1824ZM132.34 23.5336L132.004 23.823L132.013 23.8327L132.34 23.5336ZM132.155 26.2158L132.437 26.5581L132.441 26.5548L132.155 26.2158ZM125.113 26.6255H124.67V27.0688H125.113V26.6255ZM125.113 20.1198V19.6764H124.67V20.1198H125.113ZM131.96 20.5002L131.677 20.8414L131.68 20.8443L131.96 20.5002ZM131.336 20.9976L131.062 21.3463L131.07 21.3523L131.336 20.9976ZM125.903 20.783V20.3397H125.46V20.783H125.903ZM125.903 22.9093H125.46V23.3527H125.903V22.9093ZM131.297 22.685L131.038 22.3249L131.033 22.3289L131.297 22.685ZM131.765 24.1578L131.335 24.2653L131.336 24.2691L131.765 24.1578ZM131.472 23.7579L131.69 23.3719L131.472 23.7579ZM130.994 23.6018L130.924 24.0396L130.934 24.0412L130.944 24.0423L130.994 23.6018ZM125.903 23.5628V23.1195H125.46V23.5628H125.903ZM125.903 25.972H125.46V26.4153H125.903V25.972ZM131.472 25.7477L131.711 26.1213L131.714 26.1196L131.472 25.7477ZM131.985 21.7486C131.985 21.9822 131.967 22.16 131.937 22.2896C131.907 22.4224 131.871 22.4776 131.857 22.494L132.531 23.0711C132.673 22.9054 132.754 22.6973 132.802 22.4854C132.851 22.2704 132.871 22.0222 132.871 21.7486H131.985ZM131.857 22.494C131.842 22.5118 131.791 22.5565 131.664 22.6083C131.539 22.6588 131.366 22.7063 131.135 22.7453L131.283 23.6196C131.552 23.5741 131.794 23.5126 131.997 23.4299C132.198 23.3483 132.39 23.2354 132.531 23.0711L131.857 22.494ZM131.209 23.6258C131.728 23.6258 131.934 23.7411 132.004 23.8229L132.676 23.2443C132.344 22.8579 131.795 22.7391 131.209 22.7391V23.6258ZM132.013 23.8327C132.104 23.9326 132.209 24.1876 132.209 24.7333H133.096C133.096 24.1345 132.992 23.5897 132.668 23.2344L132.013 23.8327ZM132.209 24.7333C132.209 25.3925 132.052 25.7226 131.869 25.8769L132.441 26.5548C132.921 26.1498 133.096 25.4915 133.096 24.7333H132.209ZM131.873 25.8736C131.662 26.0476 131.248 26.1821 130.526 26.1821V27.0688C131.313 27.0688 131.985 26.9303 132.437 26.5581L131.873 25.8736ZM130.526 26.1821H125.113V27.0688H130.526V26.1821ZM125.556 26.6255V20.1198H124.67V26.6255H125.556ZM125.113 20.5631H130.614V19.6764H125.113V20.5631ZM130.614 20.5631C131.151 20.5631 131.482 20.6794 131.677 20.8414L132.243 20.159C131.827 19.8137 131.26 19.6764 130.614 19.6764V20.5631ZM131.68 20.8443C131.849 20.9816 131.985 21.2425 131.985 21.7486H132.871C132.871 21.0973 132.695 20.5259 132.24 20.1561L131.68 20.8443ZM132.052 21.8169C132.052 21.3745 131.96 20.9113 131.602 20.6429L131.07 21.3523C131.076 21.357 131.165 21.4401 131.165 21.8169H132.052ZM131.61 20.649C131.306 20.4107 130.873 20.3397 130.419 20.3397V21.2264C130.823 21.2264 131.001 21.2984 131.062 21.3462L131.61 20.649ZM130.419 20.3397H125.903V21.2264H130.419V20.3397ZM125.46 20.783V22.9093H126.346V20.783H125.46ZM125.903 23.3527H130.302V22.466H125.903V23.3527ZM130.302 23.3527C130.789 23.3527 131.241 23.278 131.561 23.041L131.033 22.3289C130.949 22.3911 130.738 22.466 130.302 22.466V23.3527ZM131.555 23.045C131.94 22.7687 132.052 22.2929 132.052 21.8169H131.165C131.165 22.1993 131.07 22.3022 131.038 22.325L131.555 23.045ZM132.276 24.8503C132.276 24.5456 132.253 24.2731 132.194 24.0465L131.336 24.2691C131.368 24.3937 131.39 24.5828 131.39 24.8503H132.276ZM132.195 24.0503C132.123 23.7624 131.956 23.5222 131.69 23.3719L131.254 24.1439C131.287 24.1627 131.316 24.1891 131.335 24.2653L132.195 24.0503ZM131.69 23.3719C131.49 23.2585 131.274 23.1878 131.045 23.1614L130.944 24.0423C131.053 24.0549 131.156 24.0882 131.254 24.1439L131.69 23.3719ZM131.064 23.1641C130.875 23.1337 130.672 23.1195 130.458 23.1195V24.0062C130.634 24.0062 130.789 24.0179 130.924 24.0396L131.064 23.1641ZM130.458 23.1195H130.351V24.0062H130.458V23.1195ZM130.351 23.1195H125.903V24.0062H130.351V23.1195ZM125.46 23.5628V25.972H126.346V23.5628H125.46ZM125.903 26.4153H130.37V25.5286H125.903V26.4153ZM130.37 26.4153C130.897 26.4153 131.368 26.3401 131.711 26.1213L131.234 25.374C131.108 25.4544 130.845 25.5286 130.37 25.5286V26.4153ZM131.714 26.1196C132.138 25.8442 132.276 25.3571 132.276 24.8503H131.39C131.39 25.2279 131.288 25.339 131.231 25.3757L131.714 26.1196ZM136.873 20.071V20.5144L136.876 20.5143L136.873 20.071ZM139.75 20.0515V19.6081L139.747 19.6082L139.75 20.0515ZM142.345 20.5977L142.037 20.9167L142.042 20.922L142.345 20.5977ZM142.832 25.0356L142.392 24.9861L142.391 24.991L142.832 25.0356ZM142.277 26.2256L141.984 25.8923L141.981 25.8954L142.277 26.2256ZM140.862 26.645V26.2016H140.84L140.818 26.2038L140.862 26.645ZM140.111 26.684L140.102 26.2408L140.102 26.2408L140.111 26.684ZM136.473 26.6352L136.426 27.0761L136.427 27.0762L136.473 26.6352ZM135.546 26.4207L135.374 26.8293L135.378 26.8308L135.546 26.4207ZM134.932 25.8842L134.552 26.1124L134.559 26.1235L134.932 25.8842ZM134.63 24.8796L134.189 24.9285L134.63 24.8796ZM134.581 22.2948L135.023 22.3201L135.024 22.3194L134.581 22.2948ZM134.737 21.3L134.305 21.2017L134.303 21.208L134.737 21.3ZM135.429 20.3636L135.639 20.7544V20.7544L135.429 20.3636ZM137.039 25.972L137.047 25.5286H137.039V25.972ZM138.716 26.0013L138.709 26.4446H138.716V26.0013ZM140.921 25.933L140.878 25.4917L140.921 25.933ZM141.847 25.4746L141.465 25.2506L141.463 25.2536L141.847 25.4746ZM142.081 24.2846L141.638 24.2781V24.2846H142.081ZM142.101 22.9483L142.544 22.9548V22.9483H142.101ZM142.052 21.8852L141.611 21.9321L141.611 21.9331L142.052 21.8852ZM141.838 21.1927L141.471 21.442L141.476 21.4489L141.838 21.1927ZM141.399 20.8806L141.273 21.3056L141.282 21.3084L141.291 21.3107L141.399 20.8806ZM140.852 20.783L140.805 21.2239L140.814 21.2247L140.822 21.2253L140.852 20.783ZM140.267 20.7538L140.264 21.1971H140.267V20.7538ZM138.736 20.744L138.739 20.3005L138.727 20.3007L138.736 20.744ZM137.224 20.7733V21.2167L137.233 21.2165L137.224 20.7733ZM135.761 21.0659L136.039 21.4112L136.045 21.4065L135.761 21.0659ZM135.41 22.4216L135.853 22.4349V22.4216H135.41ZM135.381 23.397L134.937 23.3837V23.397H135.381ZM135.644 25.5428L135.264 25.7709L135.266 25.7747L135.644 25.5428ZM136.876 20.5143L139.753 20.4948L139.747 19.6082L136.87 19.6277L136.876 20.5143ZM139.75 20.4948C140.41 20.4948 140.931 20.5396 141.322 20.6219C141.723 20.7062 141.937 20.8198 142.037 20.9167L142.653 20.2788C142.376 20.0115 141.969 19.8519 141.505 19.7542C141.031 19.6545 140.443 19.6081 139.75 19.6081V20.4948ZM142.042 20.922C142.14 21.0128 142.257 21.2107 142.344 21.5939C142.43 21.9685 142.477 22.4718 142.477 23.1142H143.364C143.364 22.4365 143.315 21.8604 143.209 21.3962C143.104 20.9405 142.933 20.5402 142.647 20.2734L142.042 20.922ZM142.477 23.1142V23.3482H143.364V23.1142H142.477ZM142.477 23.3482V23.5531H143.364V23.3482H142.477ZM142.477 23.5531C142.477 24.0029 142.449 24.4804 142.392 24.9861L143.273 25.0852C143.333 24.5504 143.364 24.0396 143.364 23.5531H142.477ZM142.391 24.991C142.348 25.4188 142.201 25.7021 141.984 25.8924L142.569 26.5588C142.989 26.1899 143.213 25.6799 143.274 25.0803L142.391 24.991ZM141.981 25.8954C141.783 26.0729 141.437 26.2016 140.862 26.2016V27.0883C141.549 27.0883 142.146 26.9375 142.572 26.5558L141.981 25.8954ZM140.818 26.2038C140.639 26.2218 140.401 26.2344 140.102 26.2408L140.121 27.1273C140.432 27.1206 140.695 27.1073 140.906 27.0861L140.818 26.2038ZM140.102 26.2408C139.805 26.2472 139.522 26.2504 139.253 26.2504V27.1371C139.529 27.1371 139.819 27.1338 140.121 27.1273L140.102 26.2408ZM139.253 26.2504H137.8V27.1371H139.253V26.2504ZM137.8 26.2504H137.624V27.1371H137.8V26.2504ZM137.624 26.2504C137.242 26.2504 136.874 26.2316 136.519 26.1943L136.427 27.0762C136.814 27.1169 137.213 27.1371 137.624 27.1371V26.2504ZM136.52 26.1944C136.185 26.1585 135.919 26.0943 135.715 26.0105L135.378 26.8308C135.681 26.9551 136.033 27.034 136.426 27.0761L136.52 26.1944ZM135.719 26.0121C135.564 25.947 135.426 25.8327 135.305 25.6449L134.559 26.1235C134.764 26.4429 135.035 26.6862 135.374 26.8293L135.719 26.0121ZM135.312 25.6561C135.198 25.4666 135.111 25.1984 135.07 24.8306L134.189 24.9285C134.239 25.3801 134.353 25.7816 134.552 26.1123L135.312 25.6561ZM135.07 24.8306C135.027 24.4418 135.005 23.9745 135.005 23.4263H134.118C134.118 23.9965 134.141 24.4981 134.189 24.9285L135.07 24.8306ZM135.005 23.4263C135.005 22.9 135.011 22.534 135.023 22.3201L134.138 22.2696C134.124 22.5109 134.118 22.8991 134.118 23.4263H135.005ZM135.024 22.3194C135.035 22.1197 135.081 21.8145 135.171 21.392L134.303 21.208C134.211 21.6438 134.153 22.0018 134.138 22.2703L135.024 22.3194ZM135.169 21.3982C135.24 21.085 135.396 20.8845 135.639 20.7544L135.22 19.9728C134.735 20.2329 134.428 20.6566 134.305 21.2017L135.169 21.3982ZM135.639 20.7544C135.916 20.6058 136.317 20.5144 136.873 20.5144V19.6277C136.232 19.6277 135.671 19.7312 135.22 19.9728L135.639 20.7544ZM137.031 26.4153L138.709 26.4445L138.724 25.558L137.047 25.5287L137.031 26.4153ZM138.716 26.4446H139.321V25.5579H138.716V26.4446ZM139.321 26.4446H139.526V25.5579H139.321V26.4446ZM139.526 26.4446C140.002 26.4446 140.482 26.4211 140.964 26.3742L140.878 25.4917C140.424 25.5359 139.973 25.5579 139.526 25.5579V26.4446ZM140.964 26.3742C141.491 26.3229 141.977 26.1381 142.232 25.6955L141.463 25.2536C141.418 25.3312 141.287 25.452 140.878 25.4917L140.964 26.3742ZM142.23 25.6985C142.445 25.3316 142.525 24.8412 142.525 24.2846H141.638C141.638 24.7814 141.562 25.0843 141.465 25.2506L142.23 25.6985ZM142.525 24.2911L142.544 22.9548L141.658 22.9419L141.638 24.2781L142.525 24.2911ZM142.544 22.9483C142.544 22.528 142.528 22.1568 142.493 21.8373L141.611 21.9331C141.642 22.2118 141.658 22.5494 141.658 22.9483H142.544ZM142.493 21.8383C142.457 21.4984 142.373 21.1811 142.199 20.9364L141.476 21.4489C141.524 21.5164 141.582 21.6608 141.611 21.9321L142.493 21.8383ZM142.204 20.9434C142.036 20.6955 141.799 20.5237 141.506 20.4504L141.291 21.3107C141.362 21.3284 141.419 21.3648 141.471 21.442L142.204 20.9434ZM141.525 20.4555C141.317 20.394 141.103 20.3559 140.883 20.3407L140.822 21.2253C140.979 21.2362 141.129 21.2631 141.273 21.3056L141.525 20.4555ZM140.9 20.3422C140.7 20.3208 140.489 20.3104 140.267 20.3104V21.1971C140.462 21.1971 140.641 21.2062 140.805 21.2239L140.9 20.3422ZM140.27 20.3104L138.739 20.3007L138.733 21.1874L140.264 21.1971L140.27 20.3104ZM138.727 20.3007L137.216 20.33L137.233 21.2165L138.745 21.1873L138.727 20.3007ZM137.224 20.3299C136.837 20.3299 136.498 20.3551 136.215 20.4117C135.94 20.4668 135.676 20.5595 135.477 20.7253L136.045 21.4065C136.08 21.3771 136.177 21.3236 136.389 21.2812C136.594 21.2402 136.87 21.2166 137.224 21.2166V20.3299ZM135.483 20.7206C135.261 20.8996 135.139 21.1647 135.069 21.4351C134.997 21.7112 134.967 22.0441 134.967 22.4216H135.853C135.853 22.0839 135.881 21.8332 135.927 21.6574C135.974 21.4759 136.027 21.4207 136.039 21.4111L135.483 20.7206ZM134.967 22.4084L134.938 23.3837L135.824 23.4103L135.853 22.4349L134.967 22.4084ZM134.937 23.397V23.8749H135.824V23.397H134.937ZM134.937 23.8749C134.937 24.2983 134.96 24.667 135.009 24.9755C135.056 25.278 135.134 25.5543 135.264 25.7709L136.024 25.3147C135.979 25.2388 135.924 25.0908 135.884 24.8373C135.845 24.5899 135.824 24.2709 135.824 23.8749H134.937ZM135.266 25.7747C135.431 26.0435 135.704 26.1992 135.994 26.2884C136.285 26.3781 136.639 26.4153 137.039 26.4153V25.5286C136.684 25.5286 136.428 25.4944 136.255 25.441C136.08 25.3871 136.033 25.3283 136.022 25.3109L135.266 25.7747ZM147.24 20.071V20.5144L147.243 20.5143L147.24 20.071ZM150.118 20.0515V19.6081L150.115 19.6082L150.118 20.0515ZM152.712 20.5977L152.404 20.9167L152.41 20.922L152.712 20.5977ZM153.2 25.0356L152.759 24.9861L152.759 24.991L153.2 25.0356ZM152.644 26.2256L152.352 25.8923L152.348 25.8954L152.644 26.2256ZM151.23 26.645V26.2016H151.208L151.186 26.2038L151.23 26.645ZM150.479 26.684L150.469 26.2408L150.469 26.2408L150.479 26.684ZM146.841 26.6352L146.793 27.0761L146.794 27.0762L146.841 26.6352ZM145.914 26.4207L145.742 26.8293L145.746 26.8308L145.914 26.4207ZM145.299 25.8842L144.919 26.1124L144.926 26.1235L145.299 25.8842ZM144.997 24.8796L144.556 24.9285L144.997 24.8796ZM144.948 22.2948L145.391 22.3201L145.391 22.3194L144.948 22.2948ZM145.104 21.3L144.672 21.2017L144.671 21.208L145.104 21.3ZM145.797 20.3636L146.006 20.7544V20.7544L145.797 20.3636ZM147.406 25.972L147.414 25.5286H147.406V25.972ZM149.084 26.0013L149.076 26.4446H149.084V26.0013ZM151.288 25.933L151.245 25.4917L151.288 25.933ZM152.215 25.4746L151.832 25.2506L151.831 25.2536L152.215 25.4746ZM152.449 24.2846L152.006 24.2781V24.2846H152.449ZM152.468 22.9483L152.912 22.9548V22.9483H152.468ZM152.42 21.8852L151.979 21.9321L151.979 21.9331L152.42 21.8852ZM152.205 21.1927L151.838 21.442L151.843 21.4489L152.205 21.1927ZM151.766 20.8806L151.64 21.3056L151.649 21.3084L151.659 21.3107L151.766 20.8806ZM151.22 20.783L151.173 21.2239L151.181 21.2247L151.189 21.2253L151.22 20.783ZM150.635 20.7538L150.632 21.1971H150.635V20.7538ZM149.103 20.744L149.106 20.3005L149.095 20.3007L149.103 20.744ZM147.592 20.7733V21.2167L147.6 21.2165L147.592 20.7733ZM146.129 21.0659L146.407 21.4112L146.412 21.4065L146.129 21.0659ZM145.777 22.4216L146.221 22.4349V22.4216H145.777ZM145.748 23.397L145.305 23.3837V23.397H145.748ZM146.012 25.5428L145.631 25.7709L145.634 25.7747L146.012 25.5428ZM147.243 20.5143L150.121 20.4948L150.115 19.6082L147.237 19.6277L147.243 20.5143ZM150.118 20.4948C150.778 20.4948 151.298 20.5396 151.689 20.6219C152.09 20.7062 152.304 20.8198 152.404 20.9167L153.02 20.2788C152.743 20.0115 152.336 19.8519 151.872 19.7542C151.398 19.6545 150.81 19.6081 150.118 19.6081V20.4948ZM152.41 20.922C152.507 21.0128 152.624 21.2107 152.712 21.5939C152.797 21.9685 152.844 22.4718 152.844 23.1142H153.731C153.731 22.4365 153.682 21.8604 153.576 21.3962C153.472 20.9405 153.301 20.5402 153.015 20.2734L152.41 20.922ZM152.844 23.1142V23.3482H153.731V23.1142H152.844ZM152.844 23.3482V23.5531H153.731V23.3482H152.844ZM152.844 23.5531C152.844 24.0029 152.816 24.4804 152.759 24.9861L153.641 25.0852C153.701 24.5504 153.731 24.0396 153.731 23.5531H152.844ZM152.759 24.991C152.716 25.4188 152.568 25.7021 152.352 25.8924L152.936 26.5588C153.357 26.1899 153.58 25.6799 153.641 25.0803L152.759 24.991ZM152.348 25.8954C152.15 26.0729 151.805 26.2016 151.23 26.2016V27.0883C151.916 27.0883 152.514 26.9375 152.94 26.5558L152.348 25.8954ZM151.186 26.2038C151.007 26.2218 150.769 26.2344 150.469 26.2408L150.488 27.1273C150.8 27.1206 151.063 27.1073 151.274 27.0861L151.186 26.2038ZM150.469 26.2408C150.173 26.2472 149.89 26.2504 149.62 26.2504V27.1371C149.897 27.1371 150.186 27.1338 150.488 27.1273L150.469 26.2408ZM149.62 26.2504H148.167V27.1371H149.62V26.2504ZM148.167 26.2504H147.992V27.1371H148.167V26.2504ZM147.992 26.2504C147.609 26.2504 147.241 26.2316 146.887 26.1943L146.794 27.0762C147.181 27.1169 147.58 27.1371 147.992 27.1371V26.2504ZM146.888 26.1944C146.552 26.1585 146.287 26.0943 146.082 26.0105L145.746 26.8308C146.048 26.9551 146.401 27.034 146.793 27.0761L146.888 26.1944ZM146.086 26.0121C145.932 25.947 145.793 25.8327 145.673 25.6449L144.926 26.1235C145.131 26.4429 145.402 26.6862 145.742 26.8293L146.086 26.0121ZM145.68 25.6561C145.566 25.4666 145.479 25.1984 145.438 24.8306L144.556 24.9285C144.607 25.3801 144.721 25.7816 144.919 26.1123L145.68 25.6561ZM145.438 24.8306C145.395 24.4418 145.372 23.9745 145.372 23.4263H144.486C144.486 23.9965 144.509 24.4981 144.556 24.9285L145.438 24.8306ZM145.372 23.4263C145.372 22.9 145.379 22.534 145.391 22.3201L144.506 22.2696C144.492 22.5109 144.486 22.8991 144.486 23.4263H145.372ZM145.391 22.3194C145.402 22.1197 145.448 21.8145 145.538 21.392L144.671 21.208C144.578 21.6438 144.521 22.0018 144.506 22.2703L145.391 22.3194ZM145.537 21.3982C145.608 21.085 145.763 20.8845 146.006 20.7544L145.588 19.9728C145.102 20.2329 144.796 20.6566 144.672 21.2017L145.537 21.3982ZM146.006 20.7544C146.284 20.6058 146.685 20.5144 147.24 20.5144V19.6277C146.6 19.6277 146.039 19.7312 145.588 19.9728L146.006 20.7544ZM147.399 26.4153L149.076 26.4445L149.092 25.558L147.414 25.5287L147.399 26.4153ZM149.084 26.4446H149.689V25.5579H149.084V26.4446ZM149.689 26.4446H149.893V25.5579H149.689V26.4446ZM149.893 26.4446C150.37 26.4446 150.849 26.4211 151.331 26.3742L151.245 25.4917C150.791 25.5359 150.341 25.5579 149.893 25.5579V26.4446ZM151.331 26.3742C151.859 26.3229 152.345 26.1381 152.599 25.6955L151.831 25.2536C151.786 25.3312 151.654 25.452 151.245 25.4917L151.331 26.3742ZM152.597 25.6985C152.812 25.3316 152.892 24.8412 152.892 24.2846H152.006C152.006 24.7814 151.93 25.0843 151.832 25.2506L152.597 25.6985ZM152.892 24.2911L152.912 22.9548L152.025 22.9419L152.006 24.2781L152.892 24.2911ZM152.912 22.9483C152.912 22.528 152.895 22.1568 152.86 21.8373L151.979 21.9331C152.009 22.2118 152.025 22.5494 152.025 22.9483H152.912ZM152.861 21.8383C152.824 21.4984 152.74 21.1811 152.567 20.9364L151.843 21.4489C151.891 21.5164 151.95 21.6608 151.979 21.9321L152.861 21.8383ZM152.572 20.9434C152.403 20.6955 152.167 20.5237 151.874 20.4504L151.659 21.3107C151.73 21.3284 151.786 21.3648 151.838 21.442L152.572 20.9434ZM151.892 20.4555C151.684 20.394 151.47 20.3559 151.25 20.3407L151.189 21.2253C151.347 21.2362 151.497 21.2631 151.64 21.3056L151.892 20.4555ZM151.267 20.3422C151.068 20.3208 150.857 20.3104 150.635 20.3104V21.1971C150.829 21.1971 151.008 21.2062 151.173 21.2239L151.267 20.3422ZM150.638 20.3104L149.106 20.3007L149.101 21.1874L150.632 21.1971L150.638 20.3104ZM149.095 20.3007L147.583 20.33L147.6 21.2165L149.112 21.1873L149.095 20.3007ZM147.592 20.3299C147.204 20.3299 146.866 20.3551 146.583 20.4117C146.307 20.4668 146.044 20.5595 145.845 20.7253L146.412 21.4065C146.448 21.3771 146.545 21.3236 146.757 21.2812C146.962 21.2402 147.237 21.2166 147.592 21.2166V20.3299ZM145.85 20.7206C145.628 20.8996 145.506 21.1647 145.436 21.4351C145.365 21.7112 145.334 22.0441 145.334 22.4216H146.221C146.221 22.0839 146.249 21.8332 146.294 21.6574C146.341 21.4759 146.395 21.4207 146.407 21.4111L145.85 20.7206ZM145.334 22.4084L145.305 23.3837L146.191 23.4103L146.221 22.4349L145.334 22.4084ZM145.305 23.397V23.8749H146.192V23.397H145.305ZM145.305 23.8749C145.305 24.2983 145.327 24.667 145.376 24.9755C145.424 25.278 145.501 25.5543 145.631 25.7709L146.392 25.3147C146.346 25.2388 146.292 25.0908 146.252 24.8373C146.213 24.5899 146.192 24.2709 146.192 23.8749H145.305ZM145.634 25.7747C145.799 26.0435 146.071 26.1992 146.361 26.2884C146.653 26.3781 147.006 26.4153 147.406 26.4153V25.5286C147.052 25.5286 146.796 25.4944 146.622 25.441C146.447 25.3871 146.4 25.3283 146.389 25.3109L145.634 25.7747ZM161.705 20.1198V19.6764H161.572L161.461 19.7493L161.705 20.1198ZM163.051 20.1198L163.294 20.4903L164.532 19.6764H163.051V20.1198ZM158.271 23.2605L158.028 22.89L157.465 23.2598L158.027 23.6305L158.271 23.2605ZM163.372 26.6255V27.0688H164.85L163.617 26.2554L163.372 26.6255ZM161.948 26.6255L161.701 26.9932L161.813 27.0688H161.948V26.6255ZM157.432 23.5823L157.68 23.2147L157.568 23.139H157.432V23.5823ZM156.281 23.5823V23.139H155.838V23.5823H156.281ZM156.281 26.6255V27.0688H156.725V26.6255H156.281ZM155.491 26.6255H155.048V27.0688H155.491V26.6255ZM155.491 20.1198V19.6764H155.048V20.1198H155.491ZM156.281 20.1198H156.725V19.6764H156.281V20.1198ZM156.281 22.9288H155.838V23.3722H156.281V22.9288ZM157.432 22.9288V23.3722H157.565L157.676 23.2993L157.432 22.9288ZM161.705 20.5631H163.051V19.6764H161.705V20.5631ZM162.807 19.7493L158.028 22.89L158.515 23.631L163.294 20.4903L162.807 19.7493ZM158.027 23.6305L163.128 26.9956L163.617 26.2554L158.515 22.8904L158.027 23.6305ZM163.372 26.1821H161.948V27.0688H163.372V26.1821ZM162.196 26.2578L157.68 23.2147L157.185 23.95L161.701 26.9932L162.196 26.2578ZM157.432 23.139H156.281V24.0257H157.432V23.139ZM155.838 23.5823V26.6255H156.725V23.5823H155.838ZM156.281 26.1821H155.491V27.0688H156.281V26.1821ZM155.935 26.6255V20.1198H155.048V26.6255H155.935ZM155.491 20.5631H156.281V19.6764H155.491V20.5631ZM155.838 20.1198V22.9288H156.725V20.1198H155.838ZM156.281 23.3722H157.432V22.4855H156.281V23.3722ZM157.676 23.2993L161.948 20.4902L161.461 19.7493L157.189 22.5584L157.676 23.2993Z" fill="#4F4F4F"/>
<g clip-path="url(#clip0_1_16752)">
<path d="M23.941 16.1774C19.5336 16.1774 15.9607 19.7503 15.9607 24.1577C15.9607 28.565 19.5336 32.138 23.941 32.138C28.3483 32.138 31.9213 28.565 31.9213 24.1577C31.9213 19.7503 28.3483 16.1774 23.941 16.1774ZM26.2856 20.7516C25.9063 20.7516 25.5245 20.7516 25.1453 20.7516C24.9054 20.736 24.6577 20.9192 24.6139 21.1592C24.6087 21.5747 24.6113 21.9899 24.6113 22.4053C25.1685 22.4079 25.7258 22.4053 26.2832 22.4079C26.2419 23.009 26.1672 23.6076 26.0794 24.201C25.5867 24.2062 25.0939 24.201 24.6011 24.2036C24.5959 25.976 24.6037 27.7458 24.5985 29.5184C23.8657 29.521 23.1357 29.5158 22.4029 29.521C22.39 27.7486 22.4029 25.9762 22.3952 24.2036C22.0391 24.201 21.6805 24.2062 21.3245 24.201C21.3271 23.605 21.3245 23.0091 21.3245 22.4157C21.6805 22.4105 22.0391 22.4157 22.3952 22.4131C22.4055 21.8352 22.3848 21.2547 22.4055 20.6768C22.4442 20.2149 22.617 19.7532 22.9603 19.4359C23.3757 19.0412 23.9638 18.907 24.5212 18.8915C25.1094 18.8863 25.6977 18.8889 26.2858 18.8889C26.2882 19.5106 26.2882 20.1298 26.2856 20.7516Z" fill="#4F4F4F"/>
</g>
<defs>
<clipPath id="clip0_1_16752">
<rect width="15.9606" height="15.9606" fill="white" transform="translate(15.9607 16.1774)"/>
</clipPath>
</defs>
</svg>
