<svg width="200" height="100" viewBox="0 0 200 100" fill="none" xmlns="http://www.w3.org/2000/svg">
<rect x="0.5" y="0.5" width="199" height="99" rx="6.5" stroke="#D9D9D9"/>
<path d="M95.914 78H95.023V70.663H95.914V78ZM98.6156 78V70.663H100.101L106.866 77.296V70.663H107.757V78H106.294L99.5066 71.334V78H98.6156ZM117.146 71.62C116.992 71.5467 116.714 71.488 116.31 71.444C115.907 71.3927 115.386 71.367 114.748 71.367H114.44C113.956 71.367 113.454 71.389 112.933 71.433C112.42 71.477 112.046 71.5503 111.811 71.653C111.577 71.7557 111.426 71.895 111.36 72.071C111.294 72.247 111.261 72.4597 111.261 72.709C111.261 73.1563 111.382 73.4607 111.624 73.622C111.874 73.7833 112.233 73.864 112.702 73.864L113.505 73.886L115.232 73.875C115.533 73.875 115.801 73.8787 116.035 73.886C116.27 73.8933 116.622 73.9227 117.091 73.974C117.568 74.0253 117.949 74.194 118.235 74.48C118.529 74.7587 118.675 75.239 118.675 75.921C118.675 76.3683 118.606 76.7423 118.466 77.043C118.327 77.3363 118.089 77.56 117.751 77.714C117.421 77.8607 117.018 77.956 116.541 78C116.072 78.044 115.559 78.066 115.001 78.066H114.418C113.868 78.066 113.454 78.0587 113.175 78.044C112.904 78.0367 112.482 77.9963 111.91 77.923C111.346 77.8497 110.942 77.659 110.7 77.351C110.458 77.0357 110.337 76.4893 110.337 75.712H111.228V75.866C111.228 76.24 111.261 76.5187 111.327 76.702C111.401 76.878 111.58 77.01 111.866 77.098C112.16 77.1787 112.548 77.2337 113.032 77.263C113.516 77.285 113.993 77.296 114.462 77.296C115.225 77.296 115.867 77.263 116.387 77.197C116.915 77.131 117.275 77.0063 117.465 76.823C117.656 76.6397 117.751 76.339 117.751 75.921C117.751 75.393 117.627 75.0593 117.377 74.92C117.135 74.7733 116.721 74.7 116.134 74.7L114.451 74.678L112.482 74.623C111.793 74.623 111.261 74.491 110.887 74.227C110.513 73.963 110.326 73.5157 110.326 72.885C110.326 72.3863 110.407 71.972 110.568 71.642C110.73 71.3047 111.001 71.0663 111.382 70.927C111.771 70.7803 112.226 70.6887 112.746 70.652C113.267 70.608 113.85 70.586 114.495 70.586C115.031 70.586 115.416 70.5933 115.65 70.608C115.892 70.6153 116.281 70.6483 116.816 70.707C117.359 70.7583 117.773 70.9417 118.059 71.257C118.345 71.5723 118.488 72.0527 118.488 72.698H117.597C117.597 72.368 117.557 72.1223 117.476 71.961C117.403 71.7997 117.293 71.686 117.146 71.62ZM123.672 78V71.411H119.976V70.663H128.281V71.411H124.563V78H123.672ZM129.702 78H128.657L132.991 70.663H134.179L138.546 78H137.523L136.566 76.35H130.637L129.702 78ZM131.055 75.613H136.148L133.585 71.312L131.055 75.613ZM144.281 74.381H149.055L149.066 75.03C149.066 76.1593 148.898 76.9477 148.56 77.395C148.23 77.8423 147.493 78.066 146.349 78.066L144.545 78.077L143.269 78.088C141.876 78.088 140.956 77.8827 140.508 77.472C140.061 77.054 139.837 76.1557 139.837 74.777V74.37C139.837 72.94 140.006 71.9573 140.343 71.422C140.681 70.8867 141.498 70.619 142.796 70.619L144.644 70.597L145.535 70.586L146.998 70.641C147.702 70.641 148.201 70.817 148.494 71.169C148.795 71.521 148.945 72.0673 148.945 72.808H148.065C148.065 72.1627 147.93 71.7667 147.658 71.62C147.387 71.466 146.881 71.389 146.14 71.389L144.644 71.378L143.775 71.367L142.334 71.422C141.777 71.4733 141.381 71.5797 141.146 71.741C140.919 71.9023 140.805 72.3057 140.805 72.951L140.761 74.843C140.761 75.635 140.816 76.24 140.926 76.658C141.044 77.0687 141.638 77.274 142.708 77.274L144.578 77.296L145.37 77.307H145.535C145.873 77.307 146.316 77.2813 146.866 77.23C147.416 77.1787 147.765 77.0027 147.911 76.702C148.058 76.4013 148.131 75.8733 148.131 75.118H144.281V74.381ZM159.928 72.841C159.928 73.501 159.829 73.9557 159.631 74.205C159.441 74.447 159.019 74.6157 158.366 74.711C158.858 74.777 159.217 74.898 159.444 75.074C159.679 75.2427 159.796 75.5543 159.796 76.009V78H158.916V76.372C158.916 75.8293 158.799 75.47 158.564 75.294C158.337 75.118 157.937 75.03 157.365 75.03H152.36V78H151.469V70.663H157.442C158.33 70.663 158.964 70.8133 159.345 71.114C159.734 71.4073 159.928 71.983 159.928 72.841ZM159.004 72.786C159.004 72.214 158.869 71.8437 158.597 71.675C158.326 71.499 157.879 71.411 157.255 71.411H152.36V74.293H157.277C157.923 74.293 158.37 74.194 158.619 73.996C158.876 73.7907 159.004 73.3873 159.004 72.786ZM162.147 78H161.102L165.436 70.663H166.624L170.991 78H169.968L169.011 76.35H163.082L162.147 78ZM163.5 75.613H168.593L166.03 71.312L163.5 75.613ZM177.936 78L173.36 71.411V78H172.469V70.663H173.921L178.299 76.955L182.699 70.663H184.129V78H183.238V71.411L178.651 78H177.936Z" fill="#4F4F4F"/>
<path d="M95.914 78V78.5H96.414V78H95.914ZM95.023 78H94.523V78.5H95.023V78ZM95.023 70.663V70.163H94.523V70.663H95.023ZM95.914 70.663H96.414V70.163H95.914V70.663ZM95.914 77.5H95.023V78.5H95.914V77.5ZM95.523 78V70.663H94.523V78H95.523ZM95.023 71.163H95.914V70.163H95.023V71.163ZM95.414 70.663V78H96.414V70.663H95.414ZM98.6156 78H98.1156V78.5H98.6156V78ZM98.6156 70.663V70.163H98.1156V70.663H98.6156ZM100.101 70.663L100.451 70.306L100.305 70.163H100.101V70.663ZM106.866 77.296L106.516 77.653L107.366 78.4865V77.296H106.866ZM106.866 70.663V70.163H106.366V70.663H106.866ZM107.757 70.663H108.257V70.163H107.757V70.663ZM107.757 78V78.5H108.257V78H107.757ZM106.294 78L105.943 78.3567L106.089 78.5H106.294V78ZM99.5066 71.334L99.857 70.9773L99.0066 70.1421V71.334H99.5066ZM99.5066 78V78.5H100.007V78H99.5066ZM99.1156 78V70.663H98.1156V78H99.1156ZM98.6156 71.163H100.101V70.163H98.6156V71.163ZM99.7506 71.02L106.516 77.653L107.216 76.939L100.451 70.306L99.7506 71.02ZM107.366 77.296V70.663H106.366V77.296H107.366ZM106.866 71.163H107.757V70.163H106.866V71.163ZM107.257 70.663V78H108.257V70.663H107.257ZM107.757 77.5H106.294V78.5H107.757V77.5ZM106.644 77.6433L99.857 70.9773L99.1563 71.6907L105.943 78.3567L106.644 77.6433ZM99.0066 71.334V78H100.007V71.334H99.0066ZM99.5066 77.5H98.6156V78.5H99.5066V77.5ZM117.146 71.62L116.931 72.0715L116.941 72.076L117.146 71.62ZM116.31 71.444L116.247 71.9401L116.256 71.9411L116.31 71.444ZM112.933 71.433L112.891 70.9348L112.891 70.9348L112.933 71.433ZM111.811 71.653L111.611 71.1949L111.811 71.653ZM111.624 73.622L111.347 74.0381L111.353 74.0418L111.624 73.622ZM112.702 73.864L112.716 73.364H112.702V73.864ZM113.505 73.886L113.492 74.3858L113.5 74.386L113.508 74.386L113.505 73.886ZM115.232 73.875V73.375L115.229 73.375L115.232 73.875ZM116.035 73.886L116.02 74.3858L116.035 73.886ZM117.091 73.974L117.037 74.471L117.038 74.4711L117.091 73.974ZM118.235 74.48L117.882 74.8337L117.891 74.8425L118.235 74.48ZM118.466 77.043L118.918 77.2575L118.92 77.2532L118.466 77.043ZM117.751 77.714L117.954 78.1709L117.959 78.1688L117.751 77.714ZM116.541 78L116.495 77.5021L116.495 77.5022L116.541 78ZM113.175 78.044L113.202 77.5445L113.189 77.5442L113.175 78.044ZM111.91 77.923L111.846 78.4188L111.847 78.4189L111.91 77.923ZM110.7 77.351L110.304 77.6554L110.307 77.6599L110.7 77.351ZM110.337 75.712V75.212H109.837V75.712H110.337ZM111.228 75.712H111.728V75.212H111.228V75.712ZM111.327 76.702L110.857 76.8714L110.861 76.8829L110.866 76.8943L111.327 76.702ZM111.866 77.098L111.719 77.5759L111.726 77.5781L111.734 77.5801L111.866 77.098ZM113.032 77.263L113.002 77.7621L113.01 77.7625L113.032 77.263ZM116.387 77.197L116.325 76.7009L116.324 76.701L116.387 77.197ZM117.465 76.823L117.119 76.4626H117.119L117.465 76.823ZM117.377 74.92L117.118 75.3476L117.126 75.3522L117.133 75.3565L117.377 74.92ZM116.134 74.7L116.128 75.2H116.134V74.7ZM114.451 74.678L114.437 75.1779L114.445 75.178L114.451 74.678ZM112.482 74.623L112.496 74.123H112.482V74.623ZM110.887 74.227L111.176 73.8185L110.887 74.227ZM110.568 71.642L111.017 71.8616L111.019 71.8577L110.568 71.642ZM111.382 70.927L111.554 71.3967L111.559 71.3948L111.382 70.927ZM112.746 70.652L112.781 71.1508L112.788 71.1502L112.746 70.652ZM115.65 70.608L115.619 71.107L115.627 71.1075L115.635 71.1078L115.65 70.608ZM116.816 70.707L116.762 71.2041L116.769 71.2048L116.816 70.707ZM118.488 72.698V73.198H118.988V72.698H118.488ZM117.597 72.698H117.097V73.198H117.597V72.698ZM117.476 71.961L117.021 72.1679L117.025 72.1763L117.029 72.1846L117.476 71.961ZM117.361 71.1686C117.123 71.0552 116.768 70.9909 116.364 70.9469L116.256 71.9411C116.659 71.9851 116.861 72.0382 116.931 72.0714L117.361 71.1686ZM116.373 70.948C115.941 70.8929 115.397 70.867 114.748 70.867V71.867C115.376 71.867 115.873 71.8924 116.247 71.94L116.373 70.948ZM114.748 70.867H114.44V71.867H114.748V70.867ZM114.44 70.867C113.941 70.867 113.425 70.8897 112.891 70.9348L112.975 71.9312C113.483 71.8883 113.971 71.867 114.44 71.867V70.867ZM112.891 70.9348C112.366 70.9798 111.924 71.0579 111.611 71.1949L112.012 72.1111C112.168 72.0428 112.474 71.9742 112.976 71.9312L112.891 70.9348ZM111.611 71.1949C111.299 71.3315 111.021 71.5525 110.892 71.8954L111.828 72.2466C111.832 72.2375 111.855 72.1798 112.012 72.1111L111.611 71.1949ZM110.892 71.8954C110.799 72.1426 110.761 72.4182 110.761 72.709H111.761C111.761 72.5012 111.789 72.3514 111.828 72.2466L110.892 71.8954ZM110.761 72.709C110.761 73.2293 110.902 73.7417 111.347 74.038L111.902 73.206C111.862 73.1797 111.761 73.0834 111.761 72.709H110.761ZM111.353 74.0418C111.717 74.2777 112.188 74.364 112.702 74.364V73.364C112.278 73.364 112.03 73.289 111.896 73.2022L111.353 74.0418ZM112.689 74.3638L113.492 74.3858L113.519 73.3862L112.716 73.3642L112.689 74.3638ZM113.508 74.386L115.235 74.375L115.229 73.375L113.502 73.386L113.508 74.386ZM115.232 74.375C115.529 74.375 115.791 74.3786 116.02 74.3858L116.051 73.3862C115.81 73.3787 115.537 73.375 115.232 73.375V74.375ZM116.02 74.3858C116.234 74.3925 116.57 74.42 117.037 74.471L117.146 73.477C116.673 73.4253 116.306 73.3942 116.051 73.3862L116.02 74.3858ZM117.038 74.4711C117.423 74.5126 117.691 74.6426 117.882 74.8336L118.589 74.1264C118.208 73.7454 117.713 73.5381 117.145 73.4769L117.038 74.4711ZM117.891 74.8425C118.035 74.9793 118.175 75.287 118.175 75.921H119.175C119.175 75.191 119.022 74.5381 118.58 74.1175L117.891 74.8425ZM118.175 75.921C118.175 76.3198 118.113 76.6168 118.013 76.8328L118.92 77.2532C119.098 76.8679 119.175 76.4169 119.175 75.921H118.175ZM118.015 76.8285C117.933 77.0005 117.79 77.1467 117.544 77.2592L117.959 78.1688C118.387 77.9733 118.721 77.6722 118.918 77.2575L118.015 76.8285ZM117.548 77.2571C117.281 77.3758 116.934 77.4616 116.495 77.5021L116.587 78.4979C117.102 78.4504 117.561 78.3456 117.954 78.1709L117.548 77.2571ZM116.495 77.5022C116.043 77.5445 115.546 77.566 115.001 77.566V78.566C115.571 78.566 116.101 78.5435 116.588 78.4978L116.495 77.5022ZM115.001 77.566H114.418V78.566H115.001V77.566ZM114.418 77.566C113.87 77.566 113.467 77.5586 113.202 77.5447L113.149 78.5433C113.441 78.5587 113.866 78.566 114.418 78.566V77.566ZM113.189 77.5442C112.944 77.5376 112.543 77.5001 111.974 77.4271L111.847 78.4189C112.421 78.4926 112.864 78.5358 113.162 78.5438L113.189 77.5442ZM111.975 77.4272C111.481 77.3631 111.224 77.2084 111.093 77.0421L110.307 77.6599C110.66 78.1096 111.21 78.3363 111.846 78.4188L111.975 77.4272ZM111.097 77.0466C110.961 76.8697 110.837 76.4685 110.837 75.712H109.837C109.837 76.5102 109.955 77.2016 110.304 77.6554L111.097 77.0466ZM110.337 76.212H111.228V75.212H110.337V76.212ZM110.728 75.712V75.866H111.728V75.712H110.728ZM110.728 75.866C110.728 76.2548 110.761 76.6043 110.857 76.8714L111.798 76.5326C111.762 76.4331 111.728 76.2252 111.728 75.866H110.728ZM110.866 76.8943C111.022 77.2701 111.372 77.4691 111.719 77.5759L112.013 76.6201C111.788 76.5509 111.779 76.4859 111.789 76.5097L110.866 76.8943ZM111.734 77.5801C112.074 77.6737 112.501 77.7317 113.002 77.7621L113.062 76.7639C112.595 76.7356 112.245 76.6836 111.999 76.6159L111.734 77.5801ZM113.01 77.7625C113.501 77.7848 113.985 77.796 114.462 77.796V76.796C114.001 76.796 113.532 76.7852 113.055 76.7635L113.01 77.7625ZM114.462 77.796C115.237 77.796 115.902 77.7626 116.45 77.693L116.324 76.701C115.832 76.7634 115.212 76.796 114.462 76.796V77.796ZM116.449 77.6931C116.994 77.625 117.497 77.4864 117.812 77.1834L117.119 76.4626C117.052 76.5262 116.836 76.637 116.325 76.7009L116.449 77.6931ZM117.812 77.1834C118.145 76.8633 118.251 76.3982 118.251 75.921H117.251C117.251 76.2798 117.167 76.416 117.119 76.4626L117.812 77.1834ZM118.251 75.921C118.251 75.3646 118.128 74.7665 117.621 74.4835L117.133 75.3565C117.135 75.3576 117.14 75.3605 117.149 75.3711C117.158 75.3828 117.173 75.4065 117.189 75.4497C117.223 75.5405 117.251 75.6907 117.251 75.921H118.251ZM117.636 74.4924C117.269 74.2696 116.733 74.2 116.134 74.2V75.2C116.708 75.2 117.002 75.2771 117.118 75.3476L117.636 74.4924ZM116.141 74.2L114.458 74.178L114.445 75.178L116.128 75.2L116.141 74.2ZM114.465 74.1782L112.496 74.1232L112.468 75.1228L114.437 75.1778L114.465 74.1782ZM112.482 74.123C111.847 74.123 111.432 73.9998 111.176 73.8185L110.599 74.6355C111.09 74.9822 111.739 75.123 112.482 75.123V74.123ZM111.176 73.8185C110.981 73.6809 110.826 73.4197 110.826 72.885H109.826C109.826 73.6117 110.046 74.2451 110.599 74.6355L111.176 73.8185ZM110.826 72.885C110.826 72.4366 110.899 72.1033 111.017 71.8616L110.119 71.4224C109.915 71.8407 109.826 72.336 109.826 72.885H110.826ZM111.019 71.8577C111.119 71.649 111.284 71.4953 111.554 71.3966L111.211 70.4574C110.718 70.6373 110.34 70.9604 110.117 71.4263L111.019 71.8577ZM111.559 71.3948C111.892 71.269 112.297 71.1849 112.781 71.1508L112.711 70.1532C112.154 70.1925 111.65 70.2917 111.206 70.4592L111.559 71.3948ZM112.788 71.1502C113.292 71.1076 113.861 71.086 114.495 71.086V70.086C113.839 70.086 113.242 70.1084 112.704 70.1538L112.788 71.1502ZM114.495 71.086C115.03 71.086 115.401 71.0934 115.619 71.107L115.681 70.109C115.43 70.0933 115.031 70.086 114.495 70.086V71.086ZM115.635 71.1078C115.856 71.1145 116.228 71.1455 116.762 71.204L116.871 70.21C116.334 70.1512 115.929 70.1162 115.665 70.1082L115.635 71.1078ZM116.769 71.2048C117.224 71.2478 117.508 71.3936 117.689 71.5929L118.43 70.9211C118.038 70.4897 117.494 70.2689 116.863 70.2092L116.769 71.2048ZM117.689 71.5929C117.857 71.7788 117.988 72.1147 117.988 72.698H118.988C118.988 71.9906 118.833 71.3659 118.43 70.9211L117.689 71.5929ZM118.488 72.198H117.597V73.198H118.488V72.198ZM118.097 72.698C118.097 72.3446 118.057 72.0043 117.923 71.7374L117.029 72.1846C117.057 72.2404 117.097 72.3914 117.097 72.698H118.097ZM117.931 71.7541C117.813 71.4943 117.621 71.2851 117.351 71.164L116.941 72.076C116.965 72.0869 116.992 72.1051 117.021 72.1679L117.931 71.7541ZM123.672 78H123.172V78.5H123.672V78ZM123.672 71.411H124.172V70.911H123.672V71.411ZM119.976 71.411H119.476V71.911H119.976V71.411ZM119.976 70.663V70.163H119.476V70.663H119.976ZM128.281 70.663H128.781V70.163H128.281V70.663ZM128.281 71.411V71.911H128.781V71.411H128.281ZM124.563 71.411V70.911H124.063V71.411H124.563ZM124.563 78V78.5H125.063V78H124.563ZM124.172 78V71.411H123.172V78H124.172ZM123.672 70.911H119.976V71.911H123.672V70.911ZM120.476 71.411V70.663H119.476V71.411H120.476ZM119.976 71.163H128.281V70.163H119.976V71.163ZM127.781 70.663V71.411H128.781V70.663H127.781ZM128.281 70.911H124.563V71.911H128.281V70.911ZM124.063 71.411V78H125.063V71.411H124.063ZM124.563 77.5H123.672V78.5H124.563V77.5ZM129.702 78V78.5H129.994L130.137 78.2465L129.702 78ZM128.657 78L128.227 77.7457L127.781 78.5H128.657V78ZM132.991 70.663V70.163H132.706L132.561 70.4087L132.991 70.663ZM134.179 70.663L134.609 70.4073L134.464 70.163H134.179V70.663ZM138.546 78V78.5H139.426L138.976 77.7443L138.546 78ZM137.523 78L137.091 78.2509L137.235 78.5H137.523V78ZM136.566 76.35L136.999 76.0991L136.854 75.85H136.566V76.35ZM130.637 76.35V75.85H130.346L130.202 76.1035L130.637 76.35ZM131.055 75.613L130.624 75.3595L130.181 76.113H131.055V75.613ZM136.148 75.613V76.113H137.028L136.578 75.357L136.148 75.613ZM133.585 71.312L134.015 71.056L133.583 70.3306L133.154 71.0585L133.585 71.312ZM129.702 77.5H128.657V78.5H129.702V77.5ZM129.088 78.2543L133.422 70.9173L132.561 70.4087L128.227 77.7457L129.088 78.2543ZM132.991 71.163H134.179V70.163H132.991V71.163ZM133.75 70.9187L138.117 78.2557L138.976 77.7443L134.609 70.4073L133.75 70.9187ZM138.546 77.5H137.523V78.5H138.546V77.5ZM137.956 77.7491L136.999 76.0991L136.134 76.6009L137.091 78.2509L137.956 77.7491ZM136.566 75.85H130.637V76.85H136.566V75.85ZM130.202 76.1035L129.267 77.7535L130.137 78.2465L131.072 76.5965L130.202 76.1035ZM131.055 76.113H136.148V75.113H131.055V76.113ZM136.578 75.357L134.015 71.056L133.156 71.568L135.719 75.869L136.578 75.357ZM133.154 71.0585L130.624 75.3595L131.486 75.8665L134.016 71.5655L133.154 71.0585ZM144.281 74.381V73.881H143.781V74.381H144.281ZM149.055 74.381L149.555 74.3725L149.547 73.881H149.055V74.381ZM149.066 75.03H149.567L149.566 75.0215L149.066 75.03ZM148.56 77.395L148.161 77.0939L148.158 77.0982L148.56 77.395ZM146.349 78.066V77.566L146.346 77.566L146.349 78.066ZM144.545 78.077L144.542 77.577L144.541 77.577L144.545 78.077ZM143.269 78.088V78.588L143.274 78.588L143.269 78.088ZM140.508 77.472L140.167 77.8373L140.17 77.8403L140.508 77.472ZM140.343 71.422L139.92 71.1554V71.1554L140.343 71.422ZM142.796 70.619V71.119L142.802 71.119L142.796 70.619ZM144.644 70.597L144.65 71.097L144.651 71.097L144.644 70.597ZM145.535 70.586L145.554 70.0864L145.542 70.0859L145.529 70.086L145.535 70.586ZM146.998 70.641L146.98 71.1406L146.989 71.141H146.998V70.641ZM148.494 71.169L148.11 71.4891L148.114 71.4937L148.494 71.169ZM148.945 72.808V73.308H149.445V72.808H148.945ZM148.065 72.808H147.565V73.308H148.065V72.808ZM147.658 71.62L147.412 72.0549L147.421 72.0599L147.658 71.62ZM146.14 71.389L146.137 71.889H146.14V71.389ZM144.644 71.378L144.638 71.878L144.641 71.878L144.644 71.378ZM143.775 71.367L143.782 70.867L143.769 70.8669L143.756 70.8674L143.775 71.367ZM142.334 71.422L142.315 70.9224L142.302 70.9229L142.289 70.9241L142.334 71.422ZM141.146 71.741L140.863 71.3289L140.857 71.3332L141.146 71.741ZM140.805 72.951L141.305 72.9626V72.951H140.805ZM140.761 74.843L140.261 74.8314V74.843H140.761ZM140.926 76.658L140.443 76.7853L140.446 76.7954L140.926 76.658ZM142.708 77.274L142.714 76.774H142.708V77.274ZM144.578 77.296L144.585 76.796L144.584 76.796L144.578 77.296ZM145.37 77.307L145.363 77.807H145.37V77.307ZM146.866 77.23L146.913 77.7278L146.866 77.23ZM147.911 76.702L148.361 76.9212V76.9212L147.911 76.702ZM148.131 75.118H148.631V74.618H148.131V75.118ZM144.281 75.118H143.781V75.618H144.281V75.118ZM144.281 74.881H149.055V73.881H144.281V74.881ZM148.556 74.3895L148.567 75.0385L149.566 75.0215L149.555 74.3725L148.556 74.3895ZM148.566 75.03C148.566 76.1427 148.394 76.7857 148.161 77.094L148.96 77.696C149.402 77.1096 149.566 76.176 149.566 75.03H148.566ZM148.158 77.0982C148.078 77.2074 147.919 77.3274 147.615 77.4198C147.31 77.5122 146.894 77.566 146.349 77.566V78.566C146.949 78.566 147.473 78.5079 147.905 78.3767C148.338 78.2454 148.713 78.03 148.963 77.6918L148.158 77.0982ZM146.346 77.566L144.542 77.577L144.548 78.577L146.352 78.566L146.346 77.566ZM144.541 77.577L143.265 77.588L143.274 78.588L144.55 78.577L144.541 77.577ZM143.269 77.588C142.594 77.588 142.055 77.5379 141.643 77.446C141.225 77.3528 140.979 77.2256 140.847 77.1037L140.17 77.8403C140.485 78.1291 140.923 78.3099 141.425 78.422C141.934 78.5354 142.552 78.588 143.269 78.588V77.588ZM140.85 77.1067C140.724 76.9893 140.59 76.7642 140.49 76.3639C140.392 75.9685 140.337 75.4434 140.337 74.777H139.337C139.337 75.4893 139.395 76.1027 139.52 76.6056C139.644 77.1037 139.845 77.5367 140.167 77.8373L140.85 77.1067ZM140.337 74.777V74.37H139.337V74.777H140.337ZM140.337 74.37C140.337 73.6723 140.379 73.0993 140.457 72.6451C140.536 72.1854 140.647 71.8781 140.766 71.6886L139.92 71.1554C139.702 71.5013 139.561 71.953 139.471 72.4759C139.38 73.0043 139.337 73.6377 139.337 74.37H140.337ZM140.766 71.6886C140.854 71.5499 141.027 71.4055 141.365 71.2949C141.705 71.1836 142.176 71.119 142.796 71.119V70.119C142.119 70.119 141.532 70.1882 141.054 70.3446C140.574 70.5016 140.17 70.7588 139.92 71.1554L140.766 71.6886ZM142.802 71.119L144.65 71.097L144.638 70.097L142.79 70.119L142.802 71.119ZM144.651 71.097L145.542 71.086L145.529 70.086L144.638 70.097L144.651 71.097ZM145.517 71.0856L146.98 71.1406L147.017 70.1414L145.554 70.0864L145.517 71.0856ZM146.998 71.141C147.634 71.141 147.954 71.301 148.11 71.4891L148.879 70.8489C148.449 70.333 147.771 70.141 146.998 70.141V71.141ZM148.114 71.4937C148.303 71.7147 148.445 72.1192 148.445 72.808H149.445C149.445 72.0155 149.287 71.3273 148.875 70.8443L148.114 71.4937ZM148.945 72.308H148.065V73.308H148.945V72.308ZM148.565 72.808C148.565 72.4567 148.529 72.1354 148.437 71.8649C148.343 71.5911 148.177 71.3318 147.896 71.1801L147.421 72.0599C147.421 72.0599 147.421 72.06 147.421 72.0602C147.422 72.0605 147.422 72.061 147.423 72.062C147.426 72.0639 147.43 72.0683 147.436 72.0767C147.45 72.0942 147.47 72.1284 147.491 72.189C147.534 72.3146 147.565 72.5139 147.565 72.808H148.565ZM147.905 71.1852C147.693 71.0649 147.43 70.995 147.151 70.9524C146.864 70.9089 146.526 70.889 146.14 70.889V71.889C146.496 71.889 146.78 71.9076 147 71.9411C147.226 71.9755 147.352 72.0211 147.412 72.0548L147.905 71.1852ZM146.144 70.889L144.648 70.878L144.641 71.878L146.137 71.889L146.144 70.889ZM144.651 70.878L143.782 70.867L143.769 71.867L144.638 71.878L144.651 70.878ZM143.756 70.8674L142.315 70.9224L142.354 71.9216L143.794 71.8666L143.756 70.8674ZM142.289 70.9241C141.714 70.9771 141.209 71.0915 140.863 71.329L141.43 72.153C141.554 72.0678 141.841 71.9696 142.38 71.9199L142.289 70.9241ZM140.857 71.3332C140.613 71.5061 140.482 71.7703 140.409 72.0289C140.335 72.2917 140.305 72.6043 140.305 72.951H141.305C141.305 72.6523 141.332 72.4407 141.372 72.3001C141.413 72.1554 141.452 72.1372 141.436 72.1488L140.857 71.3332ZM140.306 72.9394L140.262 74.8314L141.261 74.8546L141.305 72.9626L140.306 72.9394ZM140.261 74.843C140.261 75.6487 140.316 76.3046 140.443 76.7852L141.41 76.5308C141.316 76.1754 141.261 75.6213 141.261 74.843H140.261ZM140.446 76.7954C140.568 77.2221 140.922 77.4632 141.297 77.5926C141.67 77.7218 142.151 77.774 142.708 77.774V76.774C142.195 76.774 141.843 76.7235 141.623 76.6474C141.516 76.6103 141.459 76.5734 141.431 76.5495C141.418 76.5383 141.413 76.5307 141.41 76.5275C141.409 76.5246 141.408 76.5228 141.407 76.5206L140.446 76.7954ZM142.703 77.774L144.573 77.796L144.584 76.796L142.714 76.774L142.703 77.774ZM144.571 77.796L145.363 77.807L145.377 76.807L144.585 76.796L144.571 77.796ZM145.37 77.807H145.535V76.807H145.37V77.807ZM145.535 77.807C145.895 77.807 146.356 77.7798 146.913 77.7278L146.82 76.7322C146.277 76.7828 145.851 76.807 145.535 76.807V77.807ZM146.913 77.7278C147.52 77.6712 148.097 77.4612 148.361 76.9212L147.462 76.4828C147.432 76.5442 147.313 76.6861 146.82 76.7322L146.913 77.7278ZM148.361 76.9212C148.562 76.5082 148.631 75.8768 148.631 75.118H147.631C147.631 75.8698 147.554 76.2945 147.462 76.4828L148.361 76.9212ZM148.131 74.618H144.281V75.618H148.131V74.618ZM144.781 75.118V74.381H143.781V75.118H144.781ZM159.631 74.205L159.24 73.8941L159.239 73.8956L159.631 74.205ZM158.366 74.711L158.294 74.2162L158.3 75.2065L158.366 74.711ZM159.444 75.074L159.138 75.4694L159.145 75.4748L159.153 75.48L159.444 75.074ZM159.796 78V78.5H160.296V78H159.796ZM158.916 78H158.416V78.5H158.916V78ZM158.564 75.294L158.258 75.6894L158.264 75.694L158.564 75.294ZM152.36 75.03V74.53H151.86V75.03H152.36ZM152.36 78V78.5H152.86V78H152.36ZM151.469 78H150.969V78.5H151.469V78ZM151.469 70.663V70.163H150.969V70.663H151.469ZM159.345 71.114L159.036 71.5067L159.044 71.5131L159.345 71.114ZM158.597 71.675L158.325 72.0946L158.333 72.0996L158.597 71.675ZM152.36 71.411V70.911H151.86V71.411H152.36ZM152.36 74.293H151.86V74.793H152.36V74.293ZM158.619 73.996L158.93 74.3876L158.932 74.3864L158.619 73.996ZM159.428 72.841C159.428 73.4883 159.324 73.7884 159.24 73.8941L160.023 74.5159C160.335 74.123 160.428 73.5137 160.428 72.841H159.428ZM159.239 73.8956C159.217 73.9226 159.152 73.9826 158.986 74.0488C158.824 74.1136 158.597 74.172 158.294 74.2162L158.439 75.2057C158.788 75.1547 159.098 75.0811 159.358 74.9772C159.614 74.8747 159.855 74.7294 160.024 74.5144L159.239 73.8956ZM158.3 75.2065C158.759 75.2682 159.014 75.3734 159.138 75.4694L159.75 74.6786C159.42 74.4226 158.956 74.2858 158.433 74.2155L158.3 75.2065ZM159.153 75.48C159.195 75.5106 159.296 75.6208 159.296 76.009H160.296C160.296 75.4878 160.163 74.9747 159.736 74.668L159.153 75.48ZM159.296 76.009V78H160.296V76.009H159.296ZM159.796 77.5H158.916V78.5H159.796V77.5ZM159.416 78V76.372H158.416V78H159.416ZM159.416 76.372C159.416 75.7982 159.3 75.2206 158.864 74.894L158.264 75.694C158.298 75.7194 158.416 75.8605 158.416 76.372H159.416ZM158.87 74.8986C158.503 74.6143 157.956 74.53 157.365 74.53V75.53C157.919 75.53 158.171 75.6217 158.258 75.6894L158.87 74.8986ZM157.365 74.53H152.36V75.53H157.365V74.53ZM151.86 75.03V78H152.86V75.03H151.86ZM152.36 77.5H151.469V78.5H152.36V77.5ZM151.969 78V70.663H150.969V78H151.969ZM151.469 71.163H157.442V70.163H151.469V71.163ZM157.442 71.163C158.299 71.163 158.79 71.3132 159.036 71.5066L159.655 70.7214C159.138 70.3135 158.36 70.163 157.442 70.163V71.163ZM159.044 71.5131C159.238 71.6592 159.428 72.0245 159.428 72.841H160.428C160.428 71.9415 160.23 71.1554 159.647 70.7149L159.044 71.5131ZM159.504 72.786C159.504 72.1765 159.366 71.5641 158.861 71.2504L158.333 72.0996C158.371 72.1233 158.504 72.2515 158.504 72.786H159.504ZM158.869 71.2555C158.471 70.9972 157.9 70.911 157.255 70.911V71.911C157.857 71.911 158.181 72.0008 158.325 72.0945L158.869 71.2555ZM157.255 70.911H152.36V71.911H157.255V70.911ZM151.86 71.411V74.293H152.86V71.411H151.86ZM152.36 74.793H157.277V73.793H152.36V74.793ZM157.277 74.793C157.939 74.793 158.539 74.6986 158.93 74.3876L158.308 73.6044C158.201 73.6894 157.907 73.793 157.277 73.793V74.793ZM158.932 74.3864C159.376 74.0312 159.504 73.421 159.504 72.786H158.504C158.504 73.3537 158.376 73.5502 158.307 73.6056L158.932 74.3864ZM162.147 78V78.5H162.439L162.582 78.2465L162.147 78ZM161.102 78L160.672 77.7457L160.226 78.5H161.102V78ZM165.436 70.663V70.163H165.151L165.006 70.4087L165.436 70.663ZM166.624 70.663L167.054 70.4073L166.908 70.163H166.624V70.663ZM170.991 78V78.5H171.871L171.421 77.7443L170.991 78ZM169.968 78L169.536 78.2509L169.68 78.5H169.968V78ZM169.011 76.35L169.444 76.0991L169.299 75.85H169.011V76.35ZM163.082 76.35V75.85H162.791L162.647 76.1035L163.082 76.35ZM163.5 75.613L163.069 75.3595L162.626 76.113H163.5V75.613ZM168.593 75.613V76.113H169.473L169.023 75.357L168.593 75.613ZM166.03 71.312L166.46 71.056L166.027 70.3306L165.599 71.0585L166.03 71.312ZM162.147 77.5H161.102V78.5H162.147V77.5ZM161.533 78.2543L165.867 70.9173L165.006 70.4087L160.672 77.7457L161.533 78.2543ZM165.436 71.163H166.624V70.163H165.436V71.163ZM166.194 70.9187L170.562 78.2557L171.421 77.7443L167.054 70.4073L166.194 70.9187ZM170.991 77.5H169.968V78.5H170.991V77.5ZM170.401 77.7491L169.444 76.0991L168.579 76.6009L169.536 78.2509L170.401 77.7491ZM169.011 75.85H163.082V76.85H169.011V75.85ZM162.647 76.1035L161.712 77.7535L162.582 78.2465L163.517 76.5965L162.647 76.1035ZM163.5 76.113H168.593V75.113H163.5V76.113ZM169.023 75.357L166.46 71.056L165.601 71.568L168.164 75.869L169.023 75.357ZM165.599 71.0585L163.069 75.3595L163.931 75.8665L166.461 71.5655L165.599 71.0585ZM177.936 78L177.526 78.2852L177.675 78.5H177.936V78ZM173.36 71.411L173.771 71.1258L172.86 69.8145V71.411H173.36ZM173.36 78V78.5H173.86V78H173.36ZM172.469 78H171.969V78.5H172.469V78ZM172.469 70.663V70.163H171.969V70.663H172.469ZM173.921 70.663L174.332 70.3774L174.182 70.163H173.921V70.663ZM178.299 76.955L177.889 77.2406L178.298 77.829L178.709 77.2415L178.299 76.955ZM182.699 70.663V70.163H182.439L182.29 70.3765L182.699 70.663ZM184.129 70.663H184.629V70.163H184.129V70.663ZM184.129 78V78.5H184.629V78H184.129ZM183.238 78H182.738V78.5H183.238V78ZM183.238 71.411H183.738V69.8176L182.828 71.1253L183.238 71.411ZM178.651 78V78.5H178.912L179.062 78.2857L178.651 78ZM178.347 77.7148L173.771 71.1258L172.95 71.6962L177.526 78.2852L178.347 77.7148ZM172.86 71.411V78H173.86V71.411H172.86ZM173.36 77.5H172.469V78.5H173.36V77.5ZM172.969 78V70.663H171.969V78H172.969ZM172.469 71.163H173.921V70.163H172.469V71.163ZM173.511 70.9486L177.889 77.2406L178.71 76.6694L174.332 70.3774L173.511 70.9486ZM178.709 77.2415L183.109 70.9495L182.29 70.3765L177.89 76.6685L178.709 77.2415ZM182.699 71.163H184.129V70.163H182.699V71.163ZM183.629 70.663V78H184.629V70.663H183.629ZM184.129 77.5H183.238V78.5H184.129V77.5ZM183.738 78V71.411H182.738V78H183.738ZM182.828 71.1253L178.241 77.7143L179.062 78.2857L183.649 71.6967L182.828 71.1253ZM178.651 77.5H177.936V78.5H178.651V77.5Z" fill="#4F4F4F"/>
<path d="M29.0149 23.3363C26.4244 23.3363 24.3164 25.4135 24.3164 27.967C24.3164 30.5202 26.4241 32.5974 29.0149 32.5974C31.6054 32.5974 33.7134 30.5202 33.7134 27.967C33.7134 25.4135 31.6054 23.3363 29.0149 23.3363ZM29.0149 30.8927C27.3677 30.8927 26.0278 29.58 26.0278 27.967C26.0278 26.3537 27.3677 25.0413 29.0149 25.0413C30.6618 25.0413 32.002 26.3537 32.002 27.967C32.002 29.5803 30.6621 30.8927 29.0149 30.8927Z" fill="#4F4F4F"/>
<path d="M32.819 19H25.181C22.3244 19 20 21.3151 20 24.161V31.839C20 34.6846 22.3241 37 25.181 37H32.819C35.6759 37 38 34.6846 38 31.839V24.161C38 21.3154 35.6759 19 32.819 19ZM36.2853 31.839C36.2853 33.743 34.7303 35.292 32.819 35.292H25.181C23.2697 35.292 21.7147 33.743 21.7147 31.839V24.161C21.7147 22.2571 23.2697 20.708 25.181 20.708H32.819C34.7303 20.708 36.2853 22.2571 36.2853 24.161V31.839Z" fill="#4F4F4F"/>
<path d="M33.7969 24.2484C34.4075 24.2484 34.9024 23.7553 34.9024 23.1471C34.9024 22.5389 34.4075 22.0459 33.7969 22.0459C33.1864 22.0459 32.6914 22.5389 32.6914 23.1471C32.6914 23.7553 33.1864 24.2484 33.7969 24.2484Z" fill="#4F4F4F"/>
</svg>
