<svg width="178" height="47" viewBox="0 0 178 47" fill="none" xmlns="http://www.w3.org/2000/svg">
<rect x="0.763662" y="0.44335" width="176.113" height="46.1133" rx="5.55665" stroke="#D9D9D9" stroke-width="0.886699"/>
<path d="M85.3475 26.6255H84.5575V20.1198H85.3475V26.6255ZM87.7431 26.6255V20.1198H89.0598L95.0583 26.0013V20.1198H95.8484V26.6255H94.5511L88.5331 20.7147V26.6255H87.7431ZM104.174 20.9683C104.038 20.9033 103.79 20.8513 103.433 20.8123C103.075 20.7668 102.614 20.744 102.048 20.744H101.775C101.346 20.744 100.9 20.7635 100.438 20.8025C99.9833 20.8415 99.6517 20.9066 99.4436 20.9976C99.2355 21.0886 99.1022 21.2122 99.0437 21.3682C98.9852 21.5243 98.9559 21.7129 98.9559 21.934C98.9559 22.3306 99.0632 22.6005 99.2778 22.7435C99.4989 22.8866 99.8175 22.9581 100.234 22.9581L100.946 22.9776L102.477 22.9679C102.744 22.9679 102.981 22.9711 103.189 22.9776C103.397 22.9841 103.709 23.0101 104.125 23.0556C104.548 23.1012 104.886 23.2507 105.14 23.5043C105.4 23.7514 105.53 24.1773 105.53 24.782C105.53 25.1787 105.468 25.5103 105.345 25.7769C105.221 26.037 105.01 26.2353 104.711 26.3719C104.418 26.5019 104.06 26.5865 103.638 26.6255C103.222 26.6645 102.766 26.684 102.272 26.684H101.755C101.268 26.684 100.9 26.6775 100.653 26.6645C100.412 26.658 100.039 26.6222 99.5314 26.5572C99.0307 26.4922 98.6731 26.3231 98.4585 26.05C98.2439 25.7704 98.1366 25.286 98.1366 24.5967H98.9267V24.7333C98.9267 25.0649 98.9559 25.312 99.0144 25.4746C99.0795 25.6306 99.2388 25.7477 99.4924 25.8257C99.7525 25.8972 100.097 25.946 100.526 25.972C100.955 25.9915 101.378 26.0013 101.794 26.0013C102.471 26.0013 103.039 25.972 103.501 25.9135C103.969 25.8549 104.288 25.7444 104.457 25.5818C104.626 25.4193 104.711 25.1527 104.711 24.782C104.711 24.3139 104.6 24.018 104.379 23.8945C104.164 23.7644 103.797 23.6994 103.277 23.6994L101.784 23.6799L100.039 23.6311C99.4273 23.6311 98.9559 23.5141 98.6243 23.28C98.2927 23.0459 98.1269 22.6492 98.1269 22.09C98.1269 21.6479 98.1984 21.2805 98.3414 20.9879C98.4845 20.6887 98.7251 20.4774 99.0632 20.3539C99.4078 20.2238 99.811 20.1425 100.273 20.11C100.734 20.071 101.251 20.0515 101.824 20.0515C102.298 20.0515 102.64 20.058 102.848 20.071C103.062 20.0775 103.407 20.1068 103.882 20.1588C104.363 20.2043 104.73 20.3669 104.984 20.6465C105.237 20.9261 105.364 21.352 105.364 21.9242H104.574C104.574 21.6316 104.538 21.4138 104.467 21.2707C104.402 21.1277 104.304 21.0269 104.174 20.9683ZM109.961 26.6255V20.783H106.684V20.1198H114.048V20.783H110.751V26.6255H109.961ZM115.308 26.6255H114.381L118.224 20.1198H119.277L123.15 26.6255H122.242L121.394 25.1624H116.137L115.308 26.6255ZM116.507 24.5089H121.023L118.751 20.6952L116.507 24.5089ZM128.235 23.4165H132.468L132.478 23.992C132.478 24.9934 132.328 25.6924 132.029 26.089C131.736 26.4857 131.083 26.684 130.069 26.684L128.469 26.6938L127.338 26.7035C126.102 26.7035 125.286 26.5214 124.889 26.1573C124.493 25.7867 124.294 24.9901 124.294 23.7677V23.4068C124.294 22.1388 124.444 21.2675 124.743 20.7928C125.042 20.3181 125.767 20.0808 126.918 20.0808L128.557 20.0613L129.347 20.0515L130.644 20.1003C131.268 20.1003 131.71 20.2563 131.971 20.5684C132.237 20.8806 132.37 21.365 132.37 22.0217H131.59C131.59 21.4495 131.47 21.0984 131.229 20.9683C130.989 20.8318 130.54 20.7635 129.883 20.7635L128.557 20.7538L127.786 20.744L126.509 20.7928C126.014 20.8383 125.663 20.9326 125.455 21.0756C125.254 21.2187 125.153 21.5763 125.153 22.1485L125.114 23.8262C125.114 24.5284 125.162 25.0649 125.26 25.4355C125.364 25.7997 125.891 25.9817 126.84 25.9817L128.498 26.0013L129.201 26.011H129.347C129.646 26.011 130.039 25.9882 130.527 25.9427C131.015 25.8972 131.324 25.7412 131.454 25.4746C131.584 25.208 131.649 24.7398 131.649 24.07H128.235V23.4165ZM142.109 22.051C142.109 22.6362 142.021 23.0394 141.846 23.2605C141.677 23.475 141.303 23.6246 140.724 23.7091C141.16 23.7677 141.478 23.8749 141.68 24.031C141.888 24.1806 141.992 24.4569 141.992 24.8601V26.6255H141.212V25.1819C141.212 24.7008 141.108 24.3821 140.9 24.2261C140.698 24.07 140.344 23.992 139.836 23.992H135.398V26.6255H134.608V20.1198H139.905C140.691 20.1198 141.254 20.2531 141.592 20.5197C141.937 20.7798 142.109 21.2902 142.109 22.051ZM141.29 22.0022C141.29 21.495 141.169 21.1667 140.929 21.0171C140.688 20.8611 140.292 20.783 139.739 20.783H135.398V23.3385H139.758C140.331 23.3385 140.727 23.2507 140.948 23.0751C141.176 22.8931 141.29 22.5354 141.29 22.0022ZM144.076 26.6255H143.15L146.993 20.1198H148.046L151.918 26.6255H151.011L150.163 25.1624H144.905L144.076 26.6255ZM145.276 24.5089H149.792L147.519 20.6952L145.276 24.5089ZM158.077 26.6255L154.019 20.783V26.6255H153.229V20.1198H154.517L158.399 25.6989L162.3 20.1198H163.568V26.6255H162.778V20.783L158.711 26.6255H158.077Z" fill="#4F4F4F"/>
<path d="M85.3475 26.6255V27.0688H85.7909V26.6255H85.3475ZM84.5575 26.6255H84.1141V27.0688H84.5575V26.6255ZM84.5575 20.1198V19.6764H84.1141V20.1198H84.5575ZM85.3475 20.1198H85.7909V19.6764H85.3475V20.1198ZM85.3475 26.1821H84.5575V27.0688H85.3475V26.1821ZM85.0008 26.6255V20.1198H84.1141V26.6255H85.0008ZM84.5575 20.5631H85.3475V19.6764H84.5575V20.5631ZM84.9042 20.1198V26.6255H85.7909V20.1198H84.9042ZM87.7431 26.6255H87.2997V27.0688H87.7431V26.6255ZM87.7431 20.1198V19.6764H87.2997V20.1198H87.7431ZM89.0598 20.1198L89.3702 19.8032L89.2409 19.6764H89.0598V20.1198ZM95.0583 26.0013L94.7479 26.3178L95.5017 27.0569V26.0013H95.0583ZM95.0583 20.1198V19.6764H94.615V20.1198H95.0583ZM95.8484 20.1198H96.2917V19.6764H95.8484V20.1198ZM95.8484 26.6255V27.0688H96.2917V26.6255H95.8484ZM94.5511 26.6255L94.2405 26.9418L94.3698 27.0688H94.5511V26.6255ZM88.5331 20.7147L88.8438 20.3984L88.0898 19.6579V20.7147H88.5331ZM88.5331 26.6255V27.0688H88.9765V26.6255H88.5331ZM88.1864 26.6255V20.1198H87.2997V26.6255H88.1864ZM87.7431 20.5631H89.0598V19.6764H87.7431V20.5631ZM88.7494 20.4363L94.7479 26.3178L95.3687 25.6847L89.3702 19.8032L88.7494 20.4363ZM95.5017 26.0013V20.1198H94.615V26.0013H95.5017ZM95.0583 20.5631H95.8484V19.6764H95.0583V20.5631ZM95.405 20.1198V26.6255H96.2917V20.1198H95.405ZM95.8484 26.1821H94.5511V27.0688H95.8484V26.1821ZM94.8618 26.3092L88.8438 20.3984L88.2224 21.0311L94.2405 26.9418L94.8618 26.3092ZM88.0898 20.7147V26.6255H88.9765V20.7147H88.0898ZM88.5331 26.1821H87.7431V27.0688H88.5331V26.1821ZM104.174 20.9683L103.983 21.3687L103.992 21.3726L104.174 20.9683ZM103.433 20.8123L103.377 21.2522L103.385 21.253L103.433 20.8123ZM100.438 20.8025L100.401 20.3608L100.401 20.3608L100.438 20.8025ZM99.4436 20.9976L99.2659 20.5914L99.4436 20.9976ZM99.2778 22.7435L99.0318 23.1124L99.0369 23.1157L99.2778 22.7435ZM100.234 22.9581L100.246 22.5147H100.234V22.9581ZM100.946 22.9776L100.934 23.4208L100.941 23.421L100.948 23.4209L100.946 22.9776ZM102.477 22.9679V22.5245L102.474 22.5245L102.477 22.9679ZM103.189 22.9776L103.175 23.4207L103.189 22.9776ZM104.125 23.0556L104.077 23.4964L104.078 23.4964L104.125 23.0556ZM105.14 23.5043L104.826 23.8179L104.834 23.8257L105.14 23.5043ZM105.345 25.7769L105.745 25.9671L105.747 25.9633L105.345 25.7769ZM104.711 26.3719L104.891 26.7771L104.895 26.7752L104.711 26.3719ZM103.638 26.6255L103.597 26.184L103.596 26.1841L103.638 26.6255ZM100.653 26.6645L100.676 26.2216L100.665 26.2213L100.653 26.6645ZM99.5314 26.5572L99.4743 26.9969L99.475 26.997L99.5314 26.5572ZM98.4585 26.05L98.1067 26.32L98.1099 26.3239L98.4585 26.05ZM98.1366 24.5967V24.1534H97.6933V24.5967H98.1366ZM98.9267 24.5967H99.37V24.1534H98.9267V24.5967ZM99.0144 25.4746L98.5973 25.6247L98.601 25.635L98.6052 25.6451L99.0144 25.4746ZM99.4924 25.8257L99.3619 26.2496L99.3748 26.2532L99.4924 25.8257ZM100.526 25.972L100.499 26.4146L100.506 26.4149L100.526 25.972ZM103.501 25.9135L103.446 25.4735L103.445 25.4736L103.501 25.9135ZM104.457 25.5818L104.15 25.2623V25.2623L104.457 25.5818ZM104.379 23.8945L104.149 24.2736L104.156 24.2777L104.163 24.2815L104.379 23.8945ZM103.277 23.6994L103.271 24.1427H103.277V23.6994ZM101.784 23.6799L101.772 24.1231L101.779 24.1232L101.784 23.6799ZM100.039 23.6311L100.051 23.1878H100.039V23.6311ZM98.6243 23.28L98.88 22.9178H98.88L98.6243 23.28ZM98.3414 20.9879L98.7397 21.1826L98.7414 21.1791L98.3414 20.9879ZM99.0632 20.3539L99.2154 20.7703L99.2197 20.7687L99.0632 20.3539ZM100.273 20.11L100.304 20.5523L100.31 20.5518L100.273 20.11ZM102.848 20.071L102.82 20.5135L102.827 20.5139L102.834 20.5142L102.848 20.071ZM103.882 20.1588L103.833 20.5995L103.84 20.6002L103.882 20.1588ZM105.364 21.9242V22.3676H105.807V21.9242H105.364ZM104.574 21.9242H104.131V22.3676H104.574V21.9242ZM104.467 21.2707L104.063 21.4542L104.067 21.4616L104.07 21.469L104.467 21.2707ZM104.365 20.5681C104.154 20.4675 103.839 20.4106 103.481 20.3716L103.385 21.253C103.742 21.292 103.922 21.3391 103.984 21.3686L104.365 20.5681ZM103.489 20.3725C103.105 20.3237 102.623 20.3007 102.048 20.3007V21.1874C102.604 21.1874 103.045 21.2099 103.377 21.2521L103.489 20.3725ZM102.048 20.3007H101.775V21.1874H102.048V20.3007ZM101.775 20.3007C101.332 20.3007 100.874 20.3208 100.401 20.3608L100.476 21.2443C100.926 21.2063 101.359 21.1874 101.775 21.1874V20.3007ZM100.401 20.3608C99.9358 20.4006 99.5436 20.4699 99.2659 20.5914L99.6213 21.4038C99.7598 21.3432 100.031 21.2824 100.476 21.2443L100.401 20.3608ZM99.2659 20.5914C98.9891 20.7125 98.7426 20.9085 98.6286 21.2126L99.4588 21.5239C99.4618 21.5159 99.482 21.4647 99.6213 21.4038L99.2659 20.5914ZM98.6286 21.2126C98.5464 21.4317 98.5126 21.6761 98.5126 21.934H99.3993C99.3993 21.7497 99.424 21.6169 99.4588 21.5239L98.6286 21.2126ZM98.5126 21.934C98.5126 22.3953 98.6377 22.8496 99.0319 23.1124L99.5237 22.3746C99.4887 22.3513 99.3993 22.2659 99.3993 21.934H98.5126ZM99.0369 23.1157C99.3602 23.3249 99.7775 23.4014 100.234 23.4014V22.5147C99.8575 22.5147 99.6375 22.4482 99.5186 22.3713L99.0369 23.1157ZM100.222 23.4013L100.934 23.4208L100.958 22.5344L100.246 22.5149L100.222 23.4013ZM100.948 23.4209L102.48 23.4112L102.474 22.5245L100.943 22.5343L100.948 23.4209ZM102.477 23.4112C102.74 23.4112 102.973 23.4144 103.175 23.4207L103.203 22.5345C102.989 22.5278 102.747 22.5245 102.477 22.5245V23.4112ZM103.175 23.4207C103.365 23.4267 103.663 23.4511 104.077 23.4964L104.174 22.6149C103.755 22.5691 103.429 22.5415 103.203 22.5345L103.175 23.4207ZM104.078 23.4964C104.419 23.5332 104.657 23.6484 104.826 23.8178L105.453 23.1908C105.115 22.853 104.677 22.6691 104.173 22.6148L104.078 23.4964ZM104.834 23.8257C104.962 23.947 105.087 24.2198 105.087 24.782H105.973C105.973 24.1348 105.838 23.5558 105.445 23.1829L104.834 23.8257ZM105.087 24.782C105.087 25.1356 105.031 25.399 104.942 25.5905L105.747 25.9633C105.905 25.6216 105.973 25.2217 105.973 24.782H105.087ZM104.944 25.5867C104.872 25.7392 104.745 25.8689 104.526 25.9686L104.895 26.7752C105.275 26.6018 105.57 26.3348 105.745 25.9671L104.944 25.5867ZM104.531 25.9668C104.294 26.072 103.986 26.1481 103.597 26.184L103.678 27.067C104.135 27.0249 104.542 26.9319 104.891 26.777L104.531 25.9668ZM103.596 26.1841C103.196 26.2216 102.755 26.2407 102.272 26.2407V27.1274C102.778 27.1274 103.247 27.1074 103.679 27.0669L103.596 26.1841ZM102.272 26.2407H101.755V27.1274H102.272V26.2407ZM101.755 26.2407C101.269 26.2407 100.911 26.2341 100.676 26.2218L100.63 27.1072C100.889 27.1209 101.266 27.1274 101.755 27.1274V26.2407ZM100.665 26.2213C100.448 26.2155 100.093 26.1822 99.5878 26.1175L99.475 26.997C99.9844 27.0623 100.377 27.1005 100.641 27.1077L100.665 26.2213ZM99.5885 26.1176C99.1508 26.0607 98.923 25.9236 98.8071 25.7761L98.1099 26.3239C98.4231 26.7226 98.9106 26.9237 99.4743 26.9969L99.5885 26.1176ZM98.8102 25.7801C98.6898 25.6233 98.58 25.2675 98.58 24.5967H97.6933C97.6933 25.3045 97.798 25.9176 98.1068 26.3199L98.8102 25.7801ZM98.1366 25.0401H98.9267V24.1534H98.1366V25.0401ZM98.4833 24.5967V24.7333H99.37V24.5967H98.4833ZM98.4833 24.7333C98.4833 25.078 98.512 25.3879 98.5973 25.6247L99.4316 25.3244C99.3998 25.2361 99.37 25.0518 99.37 24.7333H98.4833ZM98.6052 25.6451C98.744 25.9782 99.0541 26.1547 99.362 26.2494L99.6228 25.4019C99.4234 25.3406 99.4149 25.283 99.4237 25.304L98.6052 25.6451ZM99.3748 26.2532C99.6767 26.3362 100.055 26.3876 100.499 26.4145L100.553 25.5295C100.139 25.5043 99.8283 25.4582 99.6099 25.3982L99.3748 26.2532ZM100.506 26.4149C100.942 26.4347 101.371 26.4446 101.794 26.4446V25.5579C101.385 25.5579 100.969 25.5483 100.546 25.5291L100.506 26.4149ZM101.794 26.4446C102.482 26.4446 103.071 26.415 103.557 26.3533L103.445 25.4736C103.008 25.529 102.459 25.5579 101.794 25.5579V26.4446ZM103.556 26.3534C104.039 26.293 104.485 26.1701 104.764 25.9014L104.15 25.2623C104.091 25.3187 103.899 25.4169 103.446 25.4735L103.556 26.3534ZM104.764 25.9014C105.059 25.6176 105.154 25.2052 105.154 24.782H104.267C104.267 25.1002 104.193 25.221 104.15 25.2623L104.764 25.9014ZM105.154 24.782C105.154 24.2887 105.044 23.7584 104.595 23.5074L104.163 24.2815C104.164 24.2824 104.169 24.285 104.176 24.2944C104.184 24.3048 104.198 24.3258 104.212 24.3642C104.242 24.4447 104.267 24.5778 104.267 24.782H105.154ZM104.609 23.5153C104.283 23.3177 103.808 23.256 103.277 23.256V24.1427C103.786 24.1427 104.046 24.2111 104.149 24.2736L104.609 23.5153ZM103.283 23.2561L101.79 23.2366L101.779 24.1232L103.271 24.1427L103.283 23.2561ZM101.797 23.2367L100.051 23.1879L100.026 24.0743L101.772 24.123L101.797 23.2367ZM100.039 23.1878C99.4753 23.1878 99.1077 23.0785 98.88 22.9178L98.3686 23.6422C98.8042 23.9496 99.3794 24.0745 100.039 24.0745V23.1878ZM98.88 22.9178C98.7071 22.7957 98.5702 22.5641 98.5702 22.09H97.6835C97.6835 22.7344 97.8782 23.296 98.3686 23.6422L98.88 22.9178ZM98.5702 22.09C98.5702 21.6925 98.635 21.3969 98.7397 21.1826L97.9431 20.7931C97.7618 21.164 97.6835 21.6033 97.6835 22.09H98.5702ZM98.7414 21.1791C98.8299 20.994 98.9758 20.8578 99.2154 20.7703L98.9111 19.9374C98.4743 20.097 98.1391 20.3834 97.9415 20.7966L98.7414 21.1791ZM99.2197 20.7687C99.5154 20.6571 99.8746 20.5825 100.304 20.5523L100.242 19.6678C99.7474 19.7026 99.3003 19.7905 98.9067 19.9391L99.2197 20.7687ZM100.31 20.5518C100.757 20.514 101.261 20.4948 101.824 20.4948V19.6081C101.242 19.6081 100.712 19.628 100.235 19.6682L100.31 20.5518ZM101.824 20.4948C102.298 20.4948 102.627 20.5014 102.82 20.5135L102.875 19.6285C102.652 19.6146 102.299 19.6081 101.824 19.6081V20.4948ZM102.834 20.5142C103.03 20.5201 103.36 20.5476 103.833 20.5995L103.93 19.7181C103.454 19.6659 103.094 19.6349 102.861 19.6279L102.834 20.5142ZM103.84 20.6002C104.243 20.6383 104.495 20.7676 104.655 20.9443L105.312 20.3486C104.965 19.9661 104.483 19.7703 103.923 19.7174L103.84 20.6002ZM104.655 20.9443C104.805 21.1091 104.921 21.407 104.921 21.9242H105.807C105.807 21.297 105.67 20.743 105.312 20.3486L104.655 20.9443ZM105.364 21.4809H104.574V22.3676H105.364V21.4809ZM105.017 21.9242C105.017 21.6108 104.982 21.3091 104.863 21.0724L104.07 21.469C104.095 21.5185 104.131 21.6524 104.131 21.9242H105.017ZM104.87 21.0873C104.766 20.8569 104.595 20.6714 104.356 20.564L103.992 21.3726C104.014 21.3823 104.038 21.3985 104.063 21.4542L104.87 21.0873ZM109.961 26.6255H109.517V27.0688H109.961V26.6255ZM109.961 20.783H110.404V20.3397H109.961V20.783ZM106.684 20.783H106.24V21.2264H106.684V20.783ZM106.684 20.1198V19.6764H106.24V20.1198H106.684ZM114.048 20.1198H114.491V19.6764H114.048V20.1198ZM114.048 20.783V21.2264H114.491V20.783H114.048ZM110.751 20.783V20.3397H110.307V20.783H110.751ZM110.751 26.6255V27.0688H111.194V26.6255H110.751ZM110.404 26.6255V20.783H109.517V26.6255H110.404ZM109.961 20.3397H106.684V21.2264H109.961V20.3397ZM107.127 20.783V20.1198H106.24V20.783H107.127ZM106.684 20.5631H114.048V19.6764H106.684V20.5631ZM113.604 20.1198V20.783H114.491V20.1198H113.604ZM114.048 20.3397H110.751V21.2264H114.048V20.3397ZM110.307 20.783V26.6255H111.194V20.783H110.307ZM110.751 26.1821H109.961V27.0688H110.751V26.1821ZM115.308 26.6255V27.0688H115.566L115.693 26.8441L115.308 26.6255ZM114.381 26.6255L113.999 26.4L113.604 27.0688H114.381V26.6255ZM118.224 20.1198V19.6764H117.971L117.842 19.8943L118.224 20.1198ZM119.277 20.1198L119.658 19.893L119.529 19.6764H119.277V20.1198ZM123.15 26.6255V27.0688H123.929L123.531 26.3987L123.15 26.6255ZM122.242 26.6255L121.859 26.8479L121.987 27.0688H122.242V26.6255ZM121.394 25.1624L121.777 24.94L121.649 24.7191H121.394V25.1624ZM116.137 25.1624V24.7191H115.878L115.751 24.9439L116.137 25.1624ZM116.507 24.5089L116.125 24.2841L115.732 24.9523H116.507V24.5089ZM121.023 24.5089V24.9523H121.804L121.404 24.282L121.023 24.5089ZM118.751 20.6952L119.132 20.4683L118.748 19.825L118.369 20.4705L118.751 20.6952ZM115.308 26.1821H114.381V27.0688H115.308V26.1821ZM114.763 26.851L118.606 20.3453L117.842 19.8943L113.999 26.4L114.763 26.851ZM118.224 20.5631H119.277V19.6764H118.224V20.5631ZM118.896 20.3465L122.769 26.8522L123.531 26.3987L119.658 19.893L118.896 20.3465ZM123.15 26.1821H122.242V27.0688H123.15V26.1821ZM122.626 26.4031L121.777 24.94L121.01 25.3849L121.859 26.8479L122.626 26.4031ZM121.394 24.7191H116.137V25.6058H121.394V24.7191ZM115.751 24.9439L114.922 26.4069L115.693 26.8441L116.522 25.381L115.751 24.9439ZM116.507 24.9523H121.023V24.0656H116.507V24.9523ZM121.404 24.282L119.132 20.4683L118.37 20.9222L120.642 24.7359L121.404 24.282ZM118.369 20.4705L116.125 24.2841L116.889 24.7337L119.133 20.92L118.369 20.4705ZM128.235 23.4165V22.9732H127.792V23.4165H128.235ZM132.468 23.4165L132.911 23.409L132.904 22.9732H132.468V23.4165ZM132.478 23.992H132.921L132.921 23.9845L132.478 23.992ZM132.029 26.089L131.675 25.8221L131.672 25.8258L132.029 26.089ZM130.069 26.684V26.2407L130.066 26.2407L130.069 26.684ZM128.469 26.6938L128.466 26.2504L128.465 26.2504L128.469 26.6938ZM127.338 26.7035V27.1469L127.341 27.1469L127.338 26.7035ZM124.889 26.1573L124.587 26.4813L124.59 26.4839L124.889 26.1573ZM124.743 20.7928L124.368 20.5564V20.5564L124.743 20.7928ZM126.918 20.0808V20.5241L126.923 20.5241L126.918 20.0808ZM128.557 20.0613L128.562 20.5046L128.562 20.5046L128.557 20.0613ZM129.347 20.0515L129.363 19.6085L129.352 19.608L129.341 19.6082L129.347 20.0515ZM130.644 20.1003L130.627 20.5433L130.636 20.5436H130.644V20.1003ZM131.971 20.5684L131.63 20.8523L131.633 20.8564L131.971 20.5684ZM132.37 22.0217V22.4651H132.814V22.0217H132.37ZM131.59 22.0217H131.147V22.4651H131.59V22.0217ZM131.229 20.9683L131.01 21.354L131.018 21.3584L131.229 20.9683ZM129.883 20.7635L129.88 21.2069H129.883V20.7635ZM128.557 20.7538L128.551 21.1971L128.554 21.1971L128.557 20.7538ZM127.786 20.744L127.792 20.3007L127.781 20.3006L127.769 20.301L127.786 20.744ZM126.509 20.7928L126.492 20.3498L126.48 20.3502L126.468 20.3513L126.509 20.7928ZM125.455 21.0756L125.204 20.7103L125.199 20.7141L125.455 21.0756ZM125.153 22.1485L125.596 22.1589V22.1485H125.153ZM125.114 23.8262L124.67 23.8159V23.8262H125.114ZM125.26 25.4355L124.831 25.5484L124.834 25.5573L125.26 25.4355ZM126.84 25.9817L126.845 25.5384H126.84V25.9817ZM128.498 26.0013L128.504 25.5579L128.503 25.5579L128.498 26.0013ZM129.201 26.011L129.194 26.4544H129.201V26.011ZM130.527 25.9427L130.568 26.3842L130.527 25.9427ZM131.454 25.4746L131.852 25.6689L131.454 25.4746ZM131.649 24.07H132.092V23.6267H131.649V24.07ZM128.235 24.07H127.792V24.5134H128.235V24.07ZM128.235 23.8599H132.468V22.9732H128.235V23.8599ZM132.025 23.424L132.034 23.9995L132.921 23.9845L132.911 23.409L132.025 23.424ZM132.034 23.992C132.034 24.9786 131.881 25.5488 131.675 25.8221L132.383 26.356C132.775 25.836 132.921 25.0081 132.921 23.992H132.034ZM131.672 25.8258C131.601 25.9227 131.461 26.0291 131.191 26.111C130.921 26.193 130.551 26.2407 130.069 26.2407V27.1274C130.6 27.1274 131.065 27.0759 131.448 26.9595C131.832 26.8431 132.165 26.6521 132.386 26.3522L131.672 25.8258ZM130.066 26.2407L128.466 26.2504L128.472 27.1371L130.071 27.1274L130.066 26.2407ZM128.465 26.2504L127.334 26.2602L127.341 27.1469L128.473 27.1371L128.465 26.2504ZM127.338 26.2602C126.738 26.2602 126.261 26.2157 125.895 26.1343C125.525 26.0516 125.307 25.9388 125.189 25.8307L124.59 26.4839C124.868 26.7399 125.257 26.9003 125.702 26.9997C126.153 27.1003 126.701 27.1469 127.338 27.1469V26.2602ZM125.192 25.8334C125.081 25.7293 124.962 25.5297 124.873 25.1748C124.786 24.8241 124.738 24.3585 124.738 23.7677H123.851C123.851 24.3992 123.902 24.9432 124.013 25.389C124.123 25.8307 124.301 26.2147 124.587 26.4812L125.192 25.8334ZM124.738 23.7677V23.4068H123.851V23.7677H124.738ZM124.738 23.4068C124.738 22.7881 124.774 22.2801 124.844 21.8773C124.914 21.4696 125.012 21.1972 125.118 21.0291L124.368 20.5564C124.175 20.8631 124.049 21.2636 123.97 21.7273C123.889 22.1958 123.851 22.7575 123.851 23.4068H124.738ZM125.118 21.0291C125.196 20.9062 125.35 20.7782 125.649 20.6801C125.951 20.5814 126.368 20.5241 126.918 20.5241V19.6374C126.317 19.6374 125.797 19.6988 125.373 19.8374C124.948 19.9767 124.59 20.2047 124.368 20.5564L125.118 21.0291ZM126.923 20.5241L128.562 20.5046L128.552 19.6179L126.913 19.6374L126.923 20.5241ZM128.562 20.5046L129.352 20.4948L129.341 19.6082L128.551 19.6179L128.562 20.5046ZM129.33 20.4945L130.627 20.5433L130.661 19.6572L129.363 19.6085L129.33 20.4945ZM130.644 20.5436C131.208 20.5436 131.491 20.6854 131.63 20.8523L132.311 20.2846C131.93 19.8272 131.329 19.6569 130.644 19.6569V20.5436ZM131.633 20.8564C131.801 21.0523 131.927 21.411 131.927 22.0217H132.814C132.814 21.319 132.674 20.7088 132.308 20.2805L131.633 20.8564ZM132.37 21.5784H131.59V22.4651H132.37V21.5784ZM132.034 22.0217C132.034 21.7103 132.002 21.4253 131.919 21.1855C131.836 20.9428 131.689 20.7128 131.44 20.5783L131.018 21.3584C131.019 21.3584 131.019 21.3585 131.019 21.3587C131.019 21.3589 131.02 21.3594 131.021 21.3603C131.023 21.362 131.027 21.3658 131.033 21.3733C131.044 21.3888 131.062 21.4192 131.081 21.4729C131.119 21.5843 131.147 21.761 131.147 22.0217H132.034ZM131.448 20.5828C131.26 20.4761 131.027 20.4142 130.779 20.3764C130.525 20.3378 130.225 20.3202 129.883 20.3202V21.2069C130.198 21.2069 130.451 21.2234 130.646 21.253C130.846 21.2836 130.958 21.324 131.01 21.3539L131.448 20.5828ZM129.887 20.3202L128.56 20.3104L128.554 21.1971L129.88 21.2069L129.887 20.3202ZM128.562 20.3104L127.792 20.3007L127.781 21.1873L128.551 21.1971L128.562 20.3104ZM127.769 20.301L126.492 20.3498L126.525 21.2358L127.803 21.187L127.769 20.301ZM126.468 20.3513C125.958 20.3983 125.51 20.4997 125.204 20.7103L125.706 21.441C125.816 21.3654 126.071 21.2783 126.549 21.2343L126.468 20.3513ZM125.199 20.7141C124.983 20.8674 124.866 21.1016 124.802 21.3309C124.736 21.5639 124.709 21.8412 124.709 22.1485H125.596C125.596 21.8837 125.62 21.696 125.655 21.5714C125.691 21.4431 125.726 21.427 125.712 21.4372L125.199 20.7141ZM124.71 22.1382L124.67 23.8159L125.557 23.8365L125.596 22.1588L124.71 22.1382ZM124.67 23.8262C124.67 24.5406 124.719 25.1222 124.831 25.5484L125.689 25.3227C125.606 25.0076 125.557 24.5163 125.557 23.8262H124.67ZM124.834 25.5573C124.942 25.9357 125.256 26.1495 125.588 26.2642C125.92 26.3788 126.346 26.4251 126.84 26.4251V25.5384C126.385 25.5384 126.073 25.4937 125.878 25.4262C125.783 25.3933 125.732 25.3605 125.708 25.3394C125.696 25.3294 125.691 25.3226 125.689 25.3198C125.688 25.3173 125.687 25.3157 125.686 25.3137L124.834 25.5573ZM126.835 26.4251L128.493 26.4446L128.503 25.5579L126.845 25.5384L126.835 26.4251ZM128.492 26.4446L129.194 26.4543L129.207 25.5677L128.504 25.5579L128.492 26.4446ZM129.201 26.4544H129.347V25.5677H129.201V26.4544ZM129.347 26.4544C129.666 26.4544 130.074 26.4303 130.568 26.3842L130.486 25.5013C130.004 25.5462 129.626 25.5677 129.347 25.5677V26.4544ZM130.568 26.3842C131.106 26.3339 131.619 26.1477 131.852 25.6689L131.055 25.2802C131.029 25.3346 130.923 25.4605 130.486 25.5013L130.568 26.3842ZM131.852 25.6689C132.031 25.3027 132.092 24.7429 132.092 24.07H131.205C131.205 24.7367 131.137 25.1132 131.055 25.2802L131.852 25.6689ZM131.649 23.6267H128.235V24.5134H131.649V23.6267ZM128.678 24.07V23.4165H127.792V24.07H128.678ZM141.846 23.2605L141.498 22.9847L141.497 22.9861L141.846 23.2605ZM140.724 23.7091L140.66 23.2704L140.665 24.1485L140.724 23.7091ZM141.68 24.031L141.408 24.3816L141.415 24.3864L141.421 24.391L141.68 24.031ZM141.992 26.6255V27.0688H142.435V26.6255H141.992ZM141.212 26.6255H140.768V27.0688H141.212V26.6255ZM140.9 24.2261L140.628 24.5767L140.634 24.5808L140.9 24.2261ZM135.398 23.992V23.5486H134.955V23.992H135.398ZM135.398 26.6255V27.0688H135.842V26.6255H135.398ZM134.608 26.6255H134.165V27.0688H134.608V26.6255ZM134.608 20.1198V19.6764H134.165V20.1198H134.608ZM141.592 20.5197L141.317 20.8679L141.325 20.8736L141.592 20.5197ZM140.929 21.0171L140.687 21.3891L140.695 21.3936L140.929 21.0171ZM135.398 20.783V20.3397H134.955V20.783H135.398ZM135.398 23.3385H134.955V23.7818H135.398V23.3385ZM140.948 23.0751L141.224 23.4223L141.225 23.4213L140.948 23.0751ZM141.666 22.051C141.666 22.6249 141.573 22.891 141.498 22.9848L142.193 23.5362C142.47 23.1877 142.552 22.6475 142.552 22.051H141.666ZM141.497 22.9861C141.479 23.0101 141.42 23.0633 141.274 23.1219C141.13 23.1794 140.929 23.2312 140.66 23.2704L140.788 24.1478C141.098 24.1026 141.373 24.0373 141.603 23.9452C141.83 23.8543 142.044 23.7254 142.194 23.5348L141.497 22.9861ZM140.665 24.1485C141.072 24.2032 141.299 24.2965 141.408 24.3816L141.951 23.6804C141.658 23.4534 141.247 23.3321 140.783 23.2697L140.665 24.1485ZM141.421 24.391C141.459 24.4182 141.549 24.5159 141.549 24.8601H142.435C142.435 24.398 142.317 23.943 141.939 23.671L141.421 24.391ZM141.549 24.8601V26.6255H142.435V24.8601H141.549ZM141.992 26.1821H141.212V27.0688H141.992V26.1821ZM141.655 26.6255V25.1819H140.768V26.6255H141.655ZM141.655 25.1819C141.655 24.6731 141.552 24.161 141.166 23.8714L140.634 24.5808C140.664 24.6033 140.768 24.7284 140.768 25.1819H141.655ZM141.171 23.8755C140.845 23.6234 140.36 23.5486 139.836 23.5486V24.4353C140.327 24.4353 140.551 24.5166 140.628 24.5766L141.171 23.8755ZM139.836 23.5486H135.398V24.4353H139.836V23.5486ZM134.955 23.992V26.6255H135.842V23.992H134.955ZM135.398 26.1821H134.608V27.0688H135.398V26.1821ZM135.052 26.6255V20.1198H134.165V26.6255H135.052ZM134.608 20.5631H139.905V19.6764H134.608V20.5631ZM139.905 20.5631C140.664 20.5631 141.1 20.6963 141.318 20.8678L141.867 20.1715C141.408 19.8099 140.719 19.6764 139.905 19.6764V20.5631ZM141.325 20.8736C141.497 21.0031 141.666 21.327 141.666 22.051H142.552C142.552 21.2534 142.377 20.5564 141.859 20.1658L141.325 20.8736ZM141.733 22.0022C141.733 21.4618 141.61 20.9188 141.163 20.6406L140.695 21.3936C140.728 21.4146 140.846 21.5283 140.846 22.0022H141.733ZM141.17 20.6452C140.817 20.4161 140.311 20.3397 139.739 20.3397V21.2264C140.273 21.2264 140.559 21.306 140.688 21.3891L141.17 20.6452ZM139.739 20.3397H135.398V21.2264H139.739V20.3397ZM134.955 20.783V23.3385H135.842V20.783H134.955ZM135.398 23.7818H139.758V22.8951H135.398V23.7818ZM139.758 23.7818C140.345 23.7818 140.877 23.6982 141.224 23.4223L140.673 22.728C140.578 22.8032 140.316 22.8951 139.758 22.8951V23.7818ZM141.225 23.4213C141.619 23.1063 141.733 22.5653 141.733 22.0022H140.846C140.846 22.5056 140.733 22.6798 140.671 22.7289L141.225 23.4213ZM144.076 26.6255V27.0688H144.335L144.462 26.8441L144.076 26.6255ZM143.15 26.6255L142.768 26.4L142.373 27.0688H143.15V26.6255ZM146.993 20.1198V19.6764H146.74L146.611 19.8943L146.993 20.1198ZM148.046 20.1198L148.427 19.893L148.298 19.6764H148.046V20.1198ZM151.918 26.6255V27.0688H152.698L152.299 26.3987L151.918 26.6255ZM151.011 26.6255L150.628 26.8479L150.756 27.0688H151.011V26.6255ZM150.163 25.1624L150.546 24.94L150.418 24.7191H150.163V25.1624ZM144.905 25.1624V24.7191H144.647L144.52 24.9439L144.905 25.1624ZM145.276 24.5089L144.894 24.2841L144.501 24.9523H145.276V24.5089ZM149.792 24.5089V24.9523H150.572L150.173 24.282L149.792 24.5089ZM147.519 20.6952L147.9 20.4683L147.517 19.825L147.137 20.4705L147.519 20.6952ZM144.076 26.1821H143.15V27.0688H144.076V26.1821ZM143.532 26.851L147.375 20.3453L146.611 19.8943L142.768 26.4L143.532 26.851ZM146.993 20.5631H148.046V19.6764H146.993V20.5631ZM147.665 20.3465L151.537 26.8522L152.299 26.3987L148.427 19.893L147.665 20.3465ZM151.918 26.1821H151.011V27.0688H151.918V26.1821ZM151.395 26.4031L150.546 24.94L149.779 25.3849L150.628 26.8479L151.395 26.4031ZM150.163 24.7191H144.905V25.6058H150.163V24.7191ZM144.52 24.9439L143.691 26.4069L144.462 26.8441L145.291 25.381L144.52 24.9439ZM145.276 24.9523H149.792V24.0656H145.276V24.9523ZM150.173 24.282L147.9 20.4683L147.139 20.9222L149.411 24.7359L150.173 24.282ZM147.137 20.4705L144.894 24.2841L145.658 24.7337L147.902 20.92L147.137 20.4705ZM158.077 26.6255L157.712 26.8784L157.845 27.0688H158.077V26.6255ZM154.019 20.783L154.383 20.5301L153.576 19.3674V20.783H154.019ZM154.019 26.6255V27.0688H154.462V26.6255H154.019ZM153.229 26.6255H152.786V27.0688H153.229V26.6255ZM153.229 20.1198V19.6764H152.786V20.1198H153.229ZM154.517 20.1198L154.88 19.8666L154.748 19.6764H154.517V20.1198ZM158.399 25.6989L158.035 25.9521L158.398 26.4738L158.762 25.953L158.399 25.6989ZM162.3 20.1198V19.6764H162.069L161.937 19.8657L162.3 20.1198ZM163.568 20.1198H164.011V19.6764H163.568V20.1198ZM163.568 26.6255V27.0688H164.011V26.6255H163.568ZM162.778 26.6255H162.335V27.0688H162.778V26.6255ZM162.778 20.783H163.221V19.3702L162.414 20.5297L162.778 20.783ZM158.711 26.6255V27.0688H158.942L159.074 26.8788L158.711 26.6255ZM158.441 26.3726L154.383 20.5301L153.655 21.0359L157.712 26.8784L158.441 26.3726ZM153.576 20.783V26.6255H154.462V20.783H153.576ZM154.019 26.1821H153.229V27.0688H154.019V26.1821ZM153.672 26.6255V20.1198H152.786V26.6255H153.672ZM153.229 20.5631H154.517V19.6764H153.229V20.5631ZM154.153 20.373L158.035 25.9521L158.762 25.4457L154.88 19.8666L154.153 20.373ZM158.762 25.953L162.663 20.3738L161.937 19.8657L158.035 25.4448L158.762 25.953ZM162.3 20.5631H163.568V19.6764H162.3V20.5631ZM163.125 20.1198V26.6255H164.011V20.1198H163.125ZM163.568 26.1821H162.778V27.0688H163.568V26.1821ZM163.221 26.6255V20.783H162.335V26.6255H163.221ZM162.414 20.5297L158.347 26.3722L159.074 26.8788L163.142 21.0363L162.414 20.5297ZM158.711 26.1821H158.077V27.0688H158.711V26.1821Z" fill="#4F4F4F"/>
<path d="M26.0282 20.0223C23.7312 20.0223 21.8621 21.8642 21.8621 24.1284C21.8621 26.3923 23.7309 28.2342 26.0282 28.2342C28.3252 28.2342 30.1944 26.3923 30.1944 24.1284C30.1944 21.8642 28.3252 20.0223 26.0282 20.0223ZM26.0282 26.7226C24.5676 26.7226 23.3796 25.5586 23.3796 24.1284C23.3796 22.6979 24.5676 21.5342 26.0282 21.5342C27.4886 21.5342 28.6769 22.6979 28.6769 24.1284C28.6769 25.5589 27.4888 26.7226 26.0282 26.7226Z" fill="#4F4F4F"/>
<path d="M29.4012 16.1774H22.6287C20.0957 16.1774 18.0347 18.2301 18.0347 20.7536V27.5617C18.0347 30.0849 20.0954 32.138 22.6287 32.138H29.4012C31.9345 32.138 33.9953 30.0849 33.9953 27.5617V20.7536C33.9953 18.2304 31.9345 16.1774 29.4012 16.1774ZM32.4749 27.5617C32.4749 29.2499 31.096 30.6235 29.4012 30.6235H22.6287C20.9339 30.6235 19.555 29.2499 19.555 27.5617V20.7536C19.555 19.0654 20.9339 17.6919 22.6287 17.6919H29.4012C31.096 17.6919 32.4749 19.0654 32.4749 20.7536V27.5617Z" fill="#4F4F4F"/>
<path d="M30.2683 20.8311C30.8097 20.8311 31.2486 20.3939 31.2486 19.8546C31.2486 19.3153 30.8097 18.8782 30.2683 18.8782C29.727 18.8782 29.2881 19.3153 29.2881 19.8546C29.2881 20.3939 29.727 20.8311 30.2683 20.8311Z" fill="#4F4F4F"/>
</svg>
