<svg width="232" height="32" viewBox="0 0 232 32" fill="none" xmlns="http://www.w3.org/2000/svg">
<path d="M31.2644 23.3806V31H0.969375V0.568122H10.2313V23.3806H31.2644ZM75.8557 0.568122V7.50312H51.1726V12.7044H74.2132V18.7269H51.1726V24.1106H75.8557V31H41.9107V0.568122H75.8557ZM131.133 31H118.449L108.229 20.0956L97.9635 31H85.371L100.564 15.8069L86.2379 0.568122H98.6022L108.32 11.4725L118.084 0.568122H130.038L115.803 15.8069L131.133 31ZM180.849 17.9512V19.7306C180.849 24.4756 179.602 27.6085 177.108 29.1294C174.644 30.6198 170.827 31.365 165.656 31.365L158.082 31.3194C154.067 31.3194 150.995 31.1065 148.866 30.6806C146.737 30.2548 145.018 29.175 143.71 27.4412C142.402 25.7075 141.748 22.9852 141.748 19.2744V0.61375H151.01V16.5369C151.01 19.5785 151.375 21.5556 152.105 22.4681C152.835 23.3806 154.675 23.8369 157.626 23.8369L161.778 23.8825L165.61 23.8369C168.135 23.8369 169.747 23.4415 170.446 22.6506C171.176 21.8598 171.541 20.2629 171.541 17.86V16.7194V0.61375H180.849V17.9512ZM203.035 21.7837C203.035 23.0308 203.446 23.8217 204.267 24.1562C205.119 24.4604 206.29 24.6125 207.78 24.6125L212.16 24.6581L218.365 24.4756C220.068 24.4756 221.179 24.2627 221.696 23.8369C222.213 23.411 222.471 22.7419 222.471 21.8294C222.471 21.0081 222.167 20.3542 221.559 19.8675C220.981 19.3808 219.855 19.1375 218.183 19.1375H216.677L201.438 18.8181C198.579 18.8181 196.556 18.1033 195.37 16.6737C194.214 15.2137 193.636 12.9933 193.636 10.0125C193.636 7.48792 194.001 5.52604 194.731 4.12687C195.492 2.72771 196.845 1.78479 198.792 1.29812C200.769 0.78104 203.339 0.476874 206.503 0.385625C209.696 0.294374 211.841 0.248749 212.936 0.248749L219.414 0.339998C222 0.339998 224.083 0.552914 225.665 0.978748C227.247 1.37416 228.357 2.11937 228.996 3.21437C229.665 4.30937 230.091 5.29792 230.273 6.18C230.456 7.06208 230.547 8.27875 230.547 9.83H221.468C221.468 8.76542 221.148 8.02021 220.509 7.59437C219.901 7.16854 219.034 6.95562 217.909 6.95562L213.438 6.91L206.366 7.13812C205.423 7.13812 204.617 7.32062 203.948 7.68562C203.309 8.02021 202.989 8.59812 202.989 9.41937C202.989 10.5448 203.37 11.29 204.13 11.655C204.921 11.9896 205.985 12.1569 207.324 12.1569H208.282L214.487 12.2481L220.601 12.2937C224.524 12.2937 227.368 12.9173 229.133 14.1644C230.927 15.381 231.824 17.8448 231.824 21.5556C231.824 25.1448 231.018 27.6085 229.406 28.9469C227.825 30.2852 225.194 30.9544 221.513 30.9544L209.651 31.2738L203.446 31.1369C200.161 31.1369 197.743 30.6046 196.191 29.54C194.64 28.4754 193.864 26.331 193.864 23.1069V21.2819H202.989L203.035 21.7837Z" fill="white"/>
</svg>
