<svg width="274" height="24" viewBox="0 0 274 24" fill="none" xmlns="http://www.w3.org/2000/svg">
<path d="M32.85 23.1106V5.8386L22.854 23.1106H17.312L7.418 5.8386V23.1106H0.924V0.432594H11.906L20.236 15.4606L28.464 0.432594H39.378V23.1106H32.85ZM71.2602 0.432594V5.60059H52.8662V9.47659H70.0362V13.9646H52.8662V17.9766H71.2602V23.1106H45.9642V0.432594H71.2602ZM98.139 0.432594C100.859 0.432594 102.797 0.965261 103.953 2.0306C105.132 3.07326 105.721 4.93193 105.721 7.60659C105.721 8.6266 105.664 9.49926 105.551 10.2246C105.438 10.9499 105.211 11.5846 104.871 12.1286C104.531 12.6499 104.134 13.0466 103.681 13.3186C103.228 13.5679 102.276 13.9306 100.825 14.4066C102.412 14.6106 103.579 15.0186 104.327 15.6306C105.075 16.2199 105.449 17.2626 105.449 18.7586V23.1106H98.445V20.9346C98.445 19.8239 98.343 18.9399 98.139 18.2826C97.9577 17.6253 97.0624 17.2966 95.453 17.2966H83.927V23.1106H77.025V0.432594H98.139ZM95.249 11.7886C96.813 11.7886 97.7877 11.5959 98.173 11.2106C98.5584 10.8253 98.751 9.96393 98.751 8.62659C98.751 7.87859 98.6717 7.32326 98.513 6.96059C98.377 6.59793 98.071 6.3486 97.595 6.2126C97.1417 6.0766 96.7677 5.99726 96.473 5.9746C96.1784 5.95193 95.827 5.9406 95.419 5.9406H94.875H83.927V11.7886H94.365H95.249ZM140.664 15.4606C140.664 18.5886 140.086 20.6739 138.93 21.7166C137.797 22.7366 135.542 23.2466 132.164 23.2466L126.894 23.3486L122.61 23.2806C118.054 23.2806 115.119 22.6913 113.804 21.5126C112.512 20.3113 111.866 18.4526 111.866 15.9366L111.662 11.1766C111.662 7.45926 112.206 4.73926 113.294 3.0166C114.382 1.27126 116.604 0.398594 119.958 0.398594L126.418 0.228594C128.3 0.228594 129.852 0.251261 131.076 0.296596C132.3 0.319262 133.785 0.421261 135.53 0.602594C137.276 0.783927 138.522 1.55459 139.27 2.91459C140.018 4.25193 140.392 6.08793 140.392 8.4226H133.694C133.694 7.37993 133.434 6.6886 132.912 6.34859C132.414 5.98593 131.609 5.8046 130.498 5.8046L128.56 5.77059H126.656L123.154 5.8046C121.069 5.8046 119.788 6.18993 119.312 6.96059C118.859 7.73126 118.632 9.32926 118.632 11.7546C118.632 14.2479 118.904 15.8686 119.448 16.6166C119.992 17.3646 121.443 17.7386 123.8 17.7386L126.486 17.8066L130.022 17.7726C131.405 17.7726 132.391 17.5799 132.98 17.1946C133.57 16.8093 133.864 15.9026 133.864 14.4746H140.63L140.664 15.4606ZM172.013 0.432594V5.60059H153.619V9.47659H170.789V13.9646H153.619V17.9766H172.013V23.1106H146.717V0.432594H172.013ZM197.77 0.432594C201.873 0.432594 204.627 1.11259 206.032 2.47259C207.437 3.83259 208.14 6.55259 208.14 10.6326V11.9246V12.6386V13.2506C208.14 14.3159 208.117 15.0639 208.072 15.4946C208.049 15.9253 207.925 16.8093 207.698 18.1466C207.471 19.4613 206.689 20.6173 205.352 21.6146C204.015 22.6119 202.337 23.1106 200.32 23.1106H177.778V0.432594H197.77ZM201.17 11.8566V11.6526C201.17 9.43126 200.921 7.93526 200.422 7.1646C199.923 6.39393 198.586 6.00859 196.41 6.00859H184.68V17.5686H196.308C198.439 17.5686 199.776 17.1719 200.32 16.3786C200.887 15.5853 201.17 14.0779 201.17 11.8566ZM239.547 0.432594V5.60059H221.153V9.47659H238.323V13.9646H221.153V17.9766H239.547V23.1106H214.251V0.432594H239.547ZM251.84 16.2426C251.84 17.1719 252.146 17.7613 252.758 18.0106C253.392 18.2373 254.265 18.3506 255.376 18.3506L258.64 18.3846L263.264 18.2486C264.533 18.2486 265.36 18.0899 265.746 17.7726C266.131 17.4553 266.324 16.9566 266.324 16.2766C266.324 15.6646 266.097 15.1773 265.644 14.8146C265.213 14.4519 264.374 14.2706 263.128 14.2706H262.006L250.65 14.0326C248.519 14.0326 247.012 13.4999 246.128 12.4346C245.266 11.3466 244.836 9.69193 244.836 7.4706C244.836 5.58926 245.108 4.12726 245.652 3.08459C246.218 2.04193 247.227 1.33926 248.678 0.976595C250.151 0.591261 252.066 0.364595 254.424 0.296596C256.804 0.228595 258.402 0.194595 259.218 0.194595L264.046 0.262594C265.972 0.262594 267.525 0.421261 268.704 0.738594C269.882 1.03326 270.71 1.58859 271.186 2.40459C271.684 3.2206 272.002 3.95726 272.138 4.61459C272.274 5.27193 272.342 6.17859 272.342 7.3346H265.576C265.576 6.54126 265.338 5.98593 264.862 5.6686C264.408 5.35126 263.762 5.1926 262.924 5.1926L259.592 5.1586L254.322 5.3286C253.619 5.3286 253.018 5.4646 252.52 5.73659C252.044 5.98593 251.806 6.4166 251.806 7.0286C251.806 7.86726 252.089 8.42259 252.656 8.69459C253.245 8.94393 254.038 9.0686 255.036 9.0686H255.75L260.374 9.1366L264.93 9.17059C267.854 9.17059 269.973 9.63526 271.288 10.5646C272.625 11.4713 273.294 13.3073 273.294 16.0726C273.294 18.7473 272.693 20.5833 271.492 21.5806C270.313 22.5779 268.352 23.0766 265.61 23.0766L256.77 23.3146L252.146 23.2126C249.698 23.2126 247.896 22.8159 246.74 22.0226C245.584 21.2293 245.006 19.6313 245.006 17.2286V15.8686H251.806L251.84 16.2426Z" fill="white"/>
</svg>
