<svg width="279" height="22" viewBox="0 0 279 22" fill="none" xmlns="http://www.w3.org/2000/svg">
<path d="M28.75 21V5.76L19.93 21H15.04L6.31 5.76V21H0.58V0.989998H10.27L17.62 14.25L24.88 0.989998H34.51V21H28.75ZM43.3213 21V0.989998H49.4113V21H43.3213ZM65.3399 21V6H56.3999V0.989998H80.3399V6H71.4299V21H65.3399ZM93.1075 14.94C93.1075 15.76 93.3775 16.28 93.9175 16.5C94.4775 16.7 95.2475 16.8 96.2275 16.8L99.1075 16.83L103.188 16.71C104.308 16.71 105.038 16.57 105.378 16.29C105.718 16.01 105.888 15.57 105.888 14.97C105.888 14.43 105.688 14 105.288 13.68C104.908 13.36 104.168 13.2 103.068 13.2H102.078L92.0575 12.99C90.1775 12.99 88.8475 12.52 88.0675 11.58C87.3075 10.62 86.9275 9.16 86.9275 7.2C86.9275 5.54 87.1675 4.25 87.6475 3.33C88.1475 2.41 89.0375 1.79 90.3175 1.47C91.6175 1.13 93.3075 0.929999 95.3875 0.87C97.4875 0.809999 98.8975 0.779999 99.6175 0.779999L103.878 0.839998C105.578 0.839998 106.948 0.979998 107.988 1.26C109.028 1.52 109.758 2.01 110.178 2.73C110.618 3.45 110.898 4.1 111.018 4.68C111.138 5.26 111.198 6.06 111.198 7.08H105.228C105.228 6.38 105.018 5.89 104.598 5.61C104.198 5.33 103.628 5.19 102.888 5.19L99.9475 5.16L95.2975 5.31C94.6775 5.31 94.1475 5.43 93.7075 5.67C93.2875 5.89 93.0775 6.27 93.0775 6.81C93.0775 7.55 93.3275 8.04 93.8275 8.28C94.3475 8.5 95.0475 8.61 95.9275 8.61H96.5575L100.638 8.67L104.658 8.7C107.238 8.7 109.108 9.11 110.268 9.93C111.448 10.73 112.038 12.35 112.038 14.79C112.038 17.15 111.508 18.77 110.448 19.65C109.408 20.53 107.678 20.97 105.258 20.97L97.4575 21.18L93.3775 21.09C91.2175 21.09 89.6275 20.74 88.6075 20.04C87.5875 19.34 87.0775 17.93 87.0775 15.81V14.61H93.0775L93.1075 14.94ZM146.129 12.42V13.59C146.129 16.71 145.309 18.77 143.669 19.77C142.049 20.75 139.539 21.24 136.139 21.24L131.159 21.21C128.519 21.21 126.499 21.07 125.099 20.79C123.699 20.51 122.569 19.8 121.709 18.66C120.849 17.52 120.419 15.73 120.419 13.29V1.02H126.509V11.49C126.509 13.49 126.749 14.79 127.229 15.39C127.709 15.99 128.919 16.29 130.859 16.29L133.589 16.32L136.109 16.29C137.769 16.29 138.829 16.03 139.289 15.51C139.769 14.99 140.009 13.94 140.009 12.36V11.61V1.02H146.129V12.42ZM173.948 0.989998C175.948 0.989998 177.478 1.37 178.538 2.13C179.598 2.89 180.128 4.23 180.128 6.15C180.128 6.99 180.048 7.71 179.888 8.31C179.748 8.89 179.478 9.35 179.078 9.69C178.698 10.03 178.338 10.26 177.998 10.38C177.678 10.5 177.218 10.64 176.618 10.8C178.238 11.06 179.358 11.47 179.978 12.03C180.598 12.59 180.908 13.66 180.908 15.24C180.908 17.46 180.368 18.98 179.288 19.8C178.228 20.6 176.548 21 174.248 21H154.958V0.989998H173.948ZM173.978 7.05C173.978 6.37 173.778 5.92 173.378 5.7C172.998 5.48 172.428 5.37 171.668 5.37H161.048V8.85H171.548C172.348 8.85 172.948 8.74 173.348 8.52C173.768 8.3 173.978 7.81 173.978 7.05ZM174.788 14.52C174.788 13.98 174.608 13.56 174.248 13.26C173.908 12.96 173.228 12.81 172.208 12.81H161.048V16.47H172.118C172.818 16.47 173.438 16.4 173.978 16.26C174.518 16.1 174.788 15.52 174.788 14.52ZM189.319 21V0.989998H195.409V21H189.319ZM209.988 14.94C209.988 15.76 210.258 16.28 210.798 16.5C211.358 16.7 212.128 16.8 213.108 16.8L215.988 16.83L220.068 16.71C221.188 16.71 221.918 16.57 222.258 16.29C222.598 16.01 222.768 15.57 222.768 14.97C222.768 14.43 222.568 14 222.168 13.68C221.788 13.36 221.048 13.2 219.948 13.2H218.958L208.938 12.99C207.058 12.99 205.728 12.52 204.948 11.58C204.188 10.62 203.808 9.16 203.808 7.2C203.808 5.54 204.048 4.25 204.528 3.33C205.028 2.41 205.918 1.79 207.198 1.47C208.498 1.13 210.188 0.929999 212.268 0.87C214.368 0.809999 215.778 0.779999 216.498 0.779999L220.758 0.839998C222.458 0.839998 223.828 0.979998 224.868 1.26C225.908 1.52 226.638 2.01 227.058 2.73C227.498 3.45 227.778 4.1 227.898 4.68C228.018 5.26 228.078 6.06 228.078 7.08H222.108C222.108 6.38 221.898 5.89 221.478 5.61C221.078 5.33 220.508 5.19 219.768 5.19L216.828 5.16L212.178 5.31C211.558 5.31 211.028 5.43 210.588 5.67C210.168 5.89 209.958 6.27 209.958 6.81C209.958 7.55 210.208 8.04 210.708 8.28C211.228 8.5 211.928 8.61 212.808 8.61H213.438L217.518 8.67L221.538 8.7C224.118 8.7 225.988 9.11 227.148 9.93C228.328 10.73 228.918 12.35 228.918 14.79C228.918 17.15 228.388 18.77 227.328 19.65C226.288 20.53 224.558 20.97 222.138 20.97L214.338 21.18L210.258 21.09C208.098 21.09 206.508 20.74 205.488 20.04C204.468 19.34 203.958 17.93 203.958 15.81V14.61H209.958L209.988 14.94ZM263.31 0.989998V21H257.19V13.29H243.39V21H237.3V0.989998H243.39V8.31H257.19V0.989998H263.31ZM272.131 21V0.989998H278.221V21H272.131Z" fill="white"/>
</svg>
