<svg width="317" height="47" viewBox="0 0 317 47" fill="none" xmlns="http://www.w3.org/2000/svg">
<path d="M1 5C1 2.79086 2.79086 1 5 1H46V46H5C2.79086 46 1 44.2091 1 42V5Z" stroke="#989898"/>
<path d="M46 1H91V46H46V1Z" stroke="#989898"/>
<path d="M136 1H181V46H136V1Z" stroke="#989898"/>
<path d="M181 1H226V46H181V1Z" stroke="#989898"/>
<path d="M226 1H271V46H226V1Z" stroke="#989898"/>
<path d="M271 1H312C314.209 1 316 2.79086 316 5V42C316 44.2091 314.209 46 312 46H271V1Z" stroke="#989898"/>
<path d="M91 1H136V46H91V1Z" fill="#4071CB" stroke="#989898"/>
<path d="M245.625 19.3333L252.333 23.9999L245.625 28.6666" stroke="#989898" stroke-linecap="round" stroke-linejoin="round"/>
<path d="M71.375 19.3333L64.6667 23.9999L71.375 28.6666" stroke="#989898" stroke-linecap="round" stroke-linejoin="round"/>
<path d="M24.375 19.3333L17.6667 23.9999L24.375 28.6666" stroke="#989898" stroke-linecap="round" stroke-linejoin="round"/>
<path d="M29.375 19.3333L22.6667 23.9999L29.375 28.6666" stroke="#989898" stroke-linecap="round" stroke-linejoin="round"/>
<path d="M293.625 19.3333L300.333 23.9999L293.625 28.6666" stroke="#989898" stroke-linecap="round" stroke-linejoin="round"/>
<path d="M288.625 19.3333L295.333 23.9999L288.625 28.6666" stroke="#989898" stroke-linecap="round" stroke-linejoin="round"/>
<path d="M114.957 16.9091V30H113.372V18.571H113.295L110.099 20.6932V19.0824L113.372 16.9091H114.957Z" fill="white"/>
<path d="M155.355 30V28.8494L159.676 24.1193C160.183 23.5653 160.601 23.0838 160.929 22.6747C161.257 22.2614 161.5 21.8736 161.658 21.5114C161.82 21.1449 161.901 20.7614 161.901 20.3608C161.901 19.9006 161.79 19.5021 161.568 19.1655C161.351 18.8288 161.053 18.5689 160.673 18.3857C160.294 18.2024 159.868 18.1108 159.395 18.1108C158.892 18.1108 158.453 18.2152 158.078 18.424C157.707 18.6286 157.42 18.9162 157.215 19.2869C157.015 19.6577 156.915 20.0923 156.915 20.5909H155.406C155.406 19.8239 155.583 19.1506 155.937 18.571C156.29 17.9915 156.772 17.5398 157.381 17.2159C157.995 16.892 158.683 16.7301 159.446 16.7301C160.213 16.7301 160.893 16.892 161.485 17.2159C162.077 17.5398 162.542 17.9766 162.879 18.5263C163.215 19.076 163.384 19.6875 163.384 20.3608C163.384 20.8423 163.296 21.3132 163.121 21.7734C162.951 22.2294 162.653 22.7386 162.227 23.3011C161.805 23.8594 161.219 24.5412 160.469 25.3466L157.528 28.4915V28.5938H163.614V30H155.355Z" fill="#989898"/>
<path d="M204.778 30.179C203.935 30.179 203.183 30.0341 202.522 29.7443C201.866 29.4545 201.344 29.0518 200.956 28.5362C200.572 28.0163 200.364 27.4134 200.33 26.7273H201.94C201.974 27.1491 202.119 27.5135 202.375 27.8203C202.631 28.1229 202.965 28.3572 203.379 28.5234C203.792 28.6896 204.25 28.7727 204.753 28.7727C205.315 28.7727 205.814 28.6747 206.249 28.4787C206.683 28.2827 207.024 28.0099 207.271 27.6605C207.518 27.3111 207.642 26.9062 207.642 26.446C207.642 25.9645 207.523 25.5405 207.284 25.174C207.045 24.8033 206.696 24.5135 206.236 24.3047C205.776 24.0959 205.213 23.9915 204.548 23.9915H203.5V22.5852H204.548C205.068 22.5852 205.524 22.4915 205.916 22.304C206.313 22.1165 206.621 21.8523 206.843 21.5114C207.069 21.1705 207.182 20.7699 207.182 20.3097C207.182 19.8665 207.084 19.4808 206.888 19.1527C206.692 18.8246 206.415 18.5689 206.057 18.3857C205.703 18.2024 205.286 18.1108 204.804 18.1108C204.352 18.1108 203.926 18.1939 203.526 18.3601C203.129 18.522 202.805 18.7585 202.554 19.0696C202.303 19.3764 202.166 19.7472 202.145 20.1818H200.611C200.636 19.4957 200.843 18.8949 201.231 18.3793C201.619 17.8594 202.126 17.4545 202.752 17.1648C203.383 16.875 204.075 16.7301 204.83 16.7301C205.639 16.7301 206.334 16.8942 206.913 17.2223C207.493 17.5462 207.938 17.9744 208.249 18.5071C208.56 19.0398 208.716 19.6151 208.716 20.233C208.716 20.9702 208.522 21.5987 208.134 22.1186C207.751 22.6385 207.229 22.9986 206.568 23.1989V23.3011C207.395 23.4375 208.04 23.7891 208.505 24.3558C208.969 24.9183 209.202 25.6151 209.202 26.446C209.202 27.1577 209.008 27.7969 208.62 28.3636C208.237 28.9261 207.712 29.3693 207.048 29.6932C206.383 30.017 205.626 30.179 204.778 30.179Z" fill="#989898"/>
</svg>
