<svg width="43" height="13" viewBox="0 0 43 13" fill="none" xmlns="http://www.w3.org/2000/svg">
<circle cx="2.5" cy="6.5" r="2.5" fill="#4071CB"/>
<path d="M8.93 9V2.33H10.28L16.43 8.36V2.33H17.24V9H15.91L9.74 2.94V9H8.93ZM26.696 5.21V5.88H21.106V8.33H26.976V9H20.296V2.33H26.906V3.01H21.106V5.21H26.696ZM42.5473 2.33L39.3673 9H38.2473L35.6373 3.11L32.9973 9H31.8973L28.7173 2.33H29.6273L32.4373 8.26L35.0773 2.33H36.1873L38.8173 8.26L41.6473 2.33H42.5473Z" fill="#4071CB"/>
<path d="M8.93 9H8.73V9.2H8.93V9ZM8.93 2.33V2.13H8.73V2.33H8.93ZM10.28 2.33L10.42 2.18719L10.3617 2.13H10.28V2.33ZM16.43 8.36L16.29 8.50281L16.63 8.83619V8.36H16.43ZM16.43 2.33V2.13H16.23V2.33H16.43ZM17.24 2.33H17.44V2.13H17.24V2.33ZM17.24 9V9.2H17.44V9H17.24ZM15.91 9L15.7699 9.14269L15.8282 9.2H15.91V9ZM9.74 2.94L9.88014 2.79731L9.54 2.46323V2.94H9.74ZM9.74 9V9.2H9.94V9H9.74ZM9.13 9V2.33H8.73V9H9.13ZM8.93 2.53H10.28V2.13H8.93V2.53ZM10.14 2.47281L16.29 8.50281L16.57 8.21719L10.42 2.18719L10.14 2.47281ZM16.63 8.36V2.33H16.23V8.36H16.63ZM16.43 2.53H17.24V2.13H16.43V2.53ZM17.04 2.33V9H17.44V2.33H17.04ZM17.24 8.8H15.91V9.2H17.24V8.8ZM16.0501 8.85731L9.88014 2.79731L9.59986 3.08269L15.7699 9.14269L16.0501 8.85731ZM9.54 2.94V9H9.94V2.94H9.54ZM9.74 8.8H8.93V9.2H9.74V8.8ZM26.696 5.21H26.896V5.01H26.696V5.21ZM26.696 5.88V6.08H26.896V5.88H26.696ZM21.106 5.88V5.68H20.906V5.88H21.106ZM21.106 8.33H20.906V8.53H21.106V8.33ZM26.976 8.33H27.176V8.13H26.976V8.33ZM26.976 9V9.2H27.176V9H26.976ZM20.296 9H20.096V9.2H20.296V9ZM20.296 2.33V2.13H20.096V2.33H20.296ZM26.906 2.33H27.106V2.13H26.906V2.33ZM26.906 3.01V3.21H27.106V3.01H26.906ZM21.106 3.01V2.81H20.906V3.01H21.106ZM21.106 5.21H20.906V5.41H21.106V5.21ZM26.496 5.21V5.88H26.896V5.21H26.496ZM26.696 5.68H21.106V6.08H26.696V5.68ZM20.906 5.88V8.33H21.306V5.88H20.906ZM21.106 8.53H26.976V8.13H21.106V8.53ZM26.776 8.33V9H27.176V8.33H26.776ZM26.976 8.8H20.296V9.2H26.976V8.8ZM20.496 9V2.33H20.096V9H20.496ZM20.296 2.53H26.906V2.13H20.296V2.53ZM26.706 2.33V3.01H27.106V2.33H26.706ZM26.906 2.81H21.106V3.21H26.906V2.81ZM20.906 3.01V5.21H21.306V3.01H20.906ZM21.106 5.41H26.696V5.01H21.106V5.41ZM42.5473 2.33L42.7278 2.41607L42.8642 2.13H42.5473V2.33ZM39.3673 9V9.2H39.4935L39.5478 9.08607L39.3673 9ZM38.2473 9L38.0644 9.08103L38.1171 9.2H38.2473V9ZM35.6373 3.11L35.8201 3.02897L35.6383 2.61869L35.4548 3.0282L35.6373 3.11ZM32.9973 9V9.2H33.1268L33.1798 9.0818L32.9973 9ZM31.8973 9L31.7167 9.08607L31.771 9.2H31.8973V9ZM28.7173 2.33V2.13H28.4003L28.5367 2.41607L28.7173 2.33ZM29.6273 2.33L29.808 2.24436L29.7538 2.13H29.6273V2.33ZM32.4373 8.26L32.2565 8.34564L32.4429 8.73902L32.62 8.34134L32.4373 8.26ZM35.0773 2.33V2.13H34.9474L34.8946 2.24866L35.0773 2.33ZM36.1873 2.33L36.3701 2.24891L36.3174 2.13H36.1873V2.33ZM38.8173 8.26L38.6344 8.34108L38.8106 8.73831L38.9978 8.34614L38.8173 8.26ZM41.6473 2.33V2.13H41.5211L41.4668 2.24386L41.6473 2.33ZM42.3667 2.24393L39.1867 8.91393L39.5478 9.08607L42.7278 2.41607L42.3667 2.24393ZM39.3673 8.8H38.2473V9.2H39.3673V8.8ZM38.4301 8.91897L35.8201 3.02897L35.4544 3.19103L38.0644 9.08103L38.4301 8.91897ZM35.4548 3.0282L32.8148 8.9182L33.1798 9.0818L35.8198 3.1918L35.4548 3.0282ZM32.9973 8.8H31.8973V9.2H32.9973V8.8ZM32.0778 8.91393L28.8978 2.24393L28.5367 2.41607L31.7167 9.08607L32.0778 8.91393ZM28.7173 2.53H29.6273V2.13H28.7173V2.53ZM29.4465 2.41564L32.2565 8.34564L32.618 8.17436L29.808 2.24436L29.4465 2.41564ZM32.62 8.34134L35.26 2.41134L34.8946 2.24866L32.2546 8.17866L32.62 8.34134ZM35.0773 2.53H36.1873V2.13H35.0773V2.53ZM36.0044 2.41108L38.6344 8.34108L39.0001 8.17892L36.3701 2.24891L36.0044 2.41108ZM38.9978 8.34614L41.8278 2.41614L41.4668 2.24386L38.6368 8.17386L38.9978 8.34614ZM41.6473 2.53H42.5473V2.13H41.6473V2.53Z" fill="#4071CB"/>
</svg>
